<svg width="29" height="39" viewBox="0 0 29 39" fill="none" xmlns="http://www.w3.org/2000/svg">
<path d="M14.4736 15.377V34.1582" stroke="#F389B8" stroke-width="3.3154" stroke-miterlimit="10" stroke-linecap="round" stroke-linejoin="round"/>
<path d="M14.0617 28.6113C14.2898 28.1556 14.6599 28.1556 14.888 28.6113L15.8721 30.5907C16.0986 31.0464 16.7 31.4815 17.2088 31.5543L19.4116 31.8707C19.9188 31.9435 20.0336 32.2948 19.6652 32.6508L18.0717 34.1919C17.7049 34.5479 17.4752 35.2472 17.5629 35.7504L17.9377 37.926C18.0239 38.4275 17.724 38.6427 17.2694 38.4054L15.3011 37.3801C14.8465 37.1428 14.1016 37.1428 13.6486 37.3801L11.6771 38.4054C11.2225 38.6427 10.9211 38.426 11.0088 37.926L11.3852 35.7504C11.4714 35.2488 11.2417 34.5495 10.8748 34.1919L9.28134 32.6508C8.91288 32.2932 9.02772 31.9435 9.53654 31.8707L11.7393 31.5543C12.2482 31.4815 12.8479 31.0448 13.0776 30.5907L14.0617 28.6113Z" fill="#FDB73B"/>
<path d="M17.594 35.9413C17.0086 36.2087 16.3578 36.3622 15.6783 36.3622C13.1422 36.3622 11.0271 34.2626 11.0271 31.7484C11.0271 31.7199 11.0271 31.6883 11.0287 31.6582L9.53732 31.8718C9.03008 31.9446 8.91365 32.2958 9.28211 32.6519L10.8756 34.193C11.2424 34.549 11.4721 35.2483 11.386 35.7515L11.0096 37.9271C10.9219 38.4286 11.2233 38.6438 11.6779 38.4065L13.6494 37.3812C14.1024 37.1438 14.8457 37.1438 15.3019 37.3812L17.2702 38.4065C17.7248 38.6438 18.0247 38.4271 17.9386 37.9271L17.594 35.9413Z" fill="#FAA83B"/>
<path d="M6.89551 14.916V26.5487" stroke="#F389B8" stroke-width="3.3154" stroke-miterlimit="10" stroke-linecap="round" stroke-linejoin="round"/>
<path d="M6.47963 21.0051C6.70931 20.5478 7.07936 20.5478 7.30745 21.0051L8.29162 22.9844C8.51971 23.4417 9.11945 23.8721 9.62828 23.9449L11.8295 24.2629C12.3367 24.3389 12.4515 24.687 12.0847 25.0445L10.4912 26.5856C10.1228 26.9385 9.89465 27.6394 9.98078 28.1457L10.3572 30.3182C10.4433 30.8213 10.1435 31.0381 9.68889 30.8008L7.71899 29.7739C7.26599 29.5365 6.52268 29.5365 6.06649 29.7739L4.09659 30.8008C3.642 31.0397 3.34213 30.8229 3.42827 30.3182L3.8047 28.1442C3.89083 27.6394 3.66115 26.9401 3.29429 26.5856L1.7008 25.0445C1.33234 24.687 1.4488 24.3373 1.95603 24.2629L4.1588 23.9449C4.66444 23.8721 5.26897 23.4417 5.49706 22.9844L6.47963 21.0051Z" fill="#FDB73B"/>
<path d="M10.0121 28.3316C9.42515 28.6022 8.77439 28.7525 8.09489 28.7525C5.55874 28.7525 3.44369 26.6544 3.44369 24.1371C3.44369 24.1086 3.44369 24.0769 3.44688 24.0469L1.9555 24.2605C1.44668 24.3364 1.33182 24.6845 1.70028 25.0421L3.29374 26.5832C3.6622 26.9361 3.89031 27.637 3.80417 28.1417L3.42774 30.3157C3.34001 30.8189 3.64147 31.0372 4.09606 30.7983L6.06596 29.7714C6.52055 29.5341 7.26387 29.5341 7.71846 29.7714L9.68835 30.7983C10.1429 31.0356 10.4428 30.8205 10.3567 30.3157L10.0121 28.3316Z" fill="#FAA83B"/>
<path d="M21.0784 13.6289V23.7521" stroke="#F389B8" stroke-width="3.3154" stroke-miterlimit="10" stroke-linecap="round" stroke-linejoin="round"/>
<path d="M20.6641 18.2081C20.8922 17.7477 21.2639 17.7477 21.4904 18.2081L22.4746 20.1843C22.7011 20.6416 23.3024 21.0783 23.8112 21.1511L26.014 21.466C26.5212 21.5387 26.6361 21.89 26.2692 22.246L24.6757 23.7855C24.3089 24.1384 24.0792 24.8441 24.1653 25.3456L24.5418 27.5212C24.6295 28.0244 24.328 28.2411 23.8734 28.0022L21.9051 26.9753C21.4489 26.738 20.7056 26.738 20.251 26.9753L18.2811 28.0022C17.8265 28.2411 17.5266 28.0244 17.6128 27.5212L17.9892 25.3456C18.0753 24.8441 17.8457 24.14 17.4788 23.7855L15.8869 22.246C15.5184 21.8884 15.6333 21.5387 16.1405 21.466L18.3433 21.1511C18.8521 21.0783 19.4535 20.6416 19.68 20.1843L20.6641 18.2081Z" fill="#FDB73B"/>
<path d="M24.1984 25.5346C23.613 25.8036 22.9622 25.9555 22.2827 25.9555C19.745 25.9555 17.6315 23.8574 17.6315 21.3432C17.6315 21.3084 17.6331 21.2831 17.6347 21.2515L16.1417 21.4651C15.6345 21.5379 15.5197 21.8891 15.8881 22.2451L17.48 23.7846C17.8469 24.1375 18.0765 24.8432 17.9904 25.3447L17.614 27.5203C17.5278 28.0235 17.8277 28.2402 18.2823 28.0013L20.2522 26.9744C20.7068 26.7371 21.4501 26.7371 21.9063 26.9744L23.8746 28.0013C24.3292 28.2402 24.6306 28.0235 24.5429 27.5203L24.1984 25.5346Z" fill="#FAA83B"/>
<path d="M27.9062 11.2618C27.6605 10.0798 27.0145 9.08459 26.1357 8.52764C25.303 8.00233 24.3316 7.71595 23.3587 7.69696C23.3906 7.65899 23.4256 7.62259 23.4544 7.58779C23.9472 6.97862 24.1706 6.21598 24.0828 5.43751C23.9951 4.65905 23.6091 3.96444 22.995 3.47553C22.2421 2.8806 21.2994 2.60846 20.3408 2.71289C19.6326 2.79042 18.9786 3.06889 18.4411 3.50876C18.4379 3.43597 18.4331 3.35844 18.4236 3.28408C18.3039 2.29359 17.8015 1.4107 17.0087 0.795205C16.2176 0.179711 15.2318 -0.0924333 14.2349 0.0278174C12.3831 0.250914 10.8805 1.56259 10.3573 3.26509C9.85806 2.46131 8.96323 1.92335 7.94558 1.92335C6.03151 1.92335 4.47632 3.4692 4.47632 5.36631C4.47632 5.95649 4.60074 6.53559 4.83681 7.06881C4.03768 6.91691 3.21145 7.01027 2.45379 7.34728C1.47124 7.78398 0.716764 8.57036 0.332355 9.56717C-0.141379 10.795 -0.104688 12.1304 0.436037 13.3329C0.976763 14.5338 1.95454 15.4547 3.19391 15.9246C3.2274 15.9357 3.26248 15.9436 3.29917 15.9436L24.3205 15.9515C24.4353 15.9626 24.5518 15.9721 24.6682 15.9721C24.9027 15.9721 25.1403 15.9468 25.3732 15.8962C26.2186 15.7095 26.938 15.211 27.4053 14.4864C27.9668 13.6066 28.1502 12.431 27.9062 11.2618Z" fill="#5DC8F3"/>
<path d="M26.6203 8.90132C24.5611 12.2826 20.8175 14.5784 16.6129 14.5784C10.4591 14.5784 5.29265 9.65763 4.94971 3.63086C4.64824 4.13876 4.47438 4.73369 4.47438 5.365C4.47438 5.95518 4.5988 6.53428 4.83487 7.0675C4.03574 6.9156 3.20951 7.00895 2.45185 7.34597C1.46929 7.78267 0.714814 8.56905 0.330403 9.56586C-0.143332 10.7937 -0.106642 12.1291 0.434086 13.3316C0.974814 14.5325 1.9526 15.4534 3.19196 15.9233C3.22546 15.9344 3.26054 15.9423 3.29722 15.9423L24.3186 15.9502C24.4335 15.9613 24.5499 15.9708 24.6664 15.9708C24.9008 15.9708 25.1385 15.9455 25.3714 15.8948C26.2168 15.7081 26.9361 15.2097 27.4035 14.4851C27.9665 13.6085 28.1484 12.4329 27.9059 11.2636C27.7081 10.3111 27.2504 9.47726 26.6203 8.90132Z" fill="#7CCFF4"/>
</svg>
