<svg width="44" height="27" viewBox="0 0 44 27" fill="none" xmlns="http://www.w3.org/2000/svg">
<path d="M43.5431 14.3406C43.2289 12.8375 42.4058 11.567 41.2877 10.8613C40.227 10.1904 38.9924 9.8265 37.7514 9.79961C37.7929 9.75372 37.836 9.70942 37.8742 9.66195C38.4995 8.88665 38.7834 7.91357 38.6734 6.92467C38.5633 5.93735 38.072 5.04812 37.2872 4.42788C36.3286 3.66208 35.1275 3.32031 33.9041 3.4548C33.0029 3.5529 32.1687 3.90574 31.486 4.46744C31.4812 4.3725 31.4748 4.27757 31.4637 4.18422C31.3089 2.92159 30.6693 1.79661 29.6628 1.01024C28.6548 0.228606 27.3994 -0.117906 26.1282 0.035572C23.7691 0.317212 21.855 1.98806 21.1898 4.16049C20.555 3.13519 19.4129 2.45166 18.1161 2.45166C15.6805 2.45166 13.6994 4.41681 13.6994 6.8329C13.6994 7.58446 13.8589 8.32021 14.1588 9.00057C13.1411 8.80595 12.0884 8.92779 11.1234 9.35499C9.87125 9.9072 8.91262 10.9119 8.42134 12.184C7.8184 13.7457 7.86306 15.4514 8.55213 16.9814C9.2412 18.5083 10.4869 19.6839 12.0645 20.282C12.1059 20.2962 12.1522 20.3041 12.1969 20.3041L38.9748 20.3136C39.1216 20.331 39.2699 20.3421 39.4183 20.3421C39.7149 20.3421 40.018 20.3089 40.3163 20.2456C41.393 20.0082 42.3101 19.3674 42.9019 18.4482C43.6229 17.3295 43.8541 15.8343 43.5431 14.3406Z" fill="#00B8F0"/>
<path d="M41.9048 11.3353C39.2841 15.6421 34.5133 18.5677 29.1571 18.5677C21.3237 18.5677 14.7409 12.3004 14.3054 4.6218C13.921 5.27052 13.7009 6.02683 13.7009 6.83219C13.7009 7.58376 13.8604 8.3195 14.1603 8.99987C13.1426 8.80525 12.0899 8.92709 11.1248 9.35429C9.87272 9.9065 8.91408 10.9112 8.4228 12.1833C7.81987 13.745 7.86453 15.4507 8.5536 16.9807C9.24267 18.5076 10.4884 19.6832 12.0659 20.2813C12.1074 20.2955 12.1537 20.3034 12.1983 20.3034L38.9763 20.3129C39.123 20.3303 39.2714 20.3414 39.4197 20.3414C39.7164 20.3414 40.0195 20.3082 40.3177 20.2449C41.3944 20.0076 42.3116 19.3667 42.9033 18.4475C43.6243 17.332 43.8556 15.8352 43.5446 14.3431C43.2893 13.1295 42.7087 12.0742 41.9048 11.3353Z" fill="#00B8F0"/>
<path d="M26.209 22.5746C25.9773 21.4662 25.3704 20.5293 24.5459 20.009C23.7637 19.5143 22.8534 19.2459 21.9383 19.2261C21.9689 19.1923 22.0006 19.1596 22.0289 19.1246C22.4899 18.5529 22.6993 17.8354 22.6181 17.1062C22.537 16.3781 22.1747 15.7224 21.596 15.2651C20.8892 14.7004 20.0035 14.4484 19.1014 14.5475C18.4368 14.6199 17.8217 14.88 17.3183 15.2942C17.3147 15.2242 17.31 15.1542 17.3018 15.0854C17.1877 14.1543 16.7161 13.3248 15.9739 12.7449C15.2305 12.1686 14.3049 11.9131 13.3675 12.0262C11.6279 12.2339 10.2165 13.466 9.72602 15.0679C9.2579 14.3118 8.41575 13.8078 7.45952 13.8078C5.66349 13.8078 4.20267 15.2569 4.20267 17.0385C4.20267 17.5927 4.32029 18.1352 4.54141 18.6369C3.79101 18.4934 3.01473 18.5832 2.30314 18.8982C1.37984 19.3054 0.672952 20.0463 0.310688 20.9844C-0.133908 22.1359 -0.100974 23.3936 0.407136 24.5219C0.915246 25.6478 1.83384 26.5146 2.99709 26.9557C3.02767 26.9662 3.06178 26.972 3.09471 26.972L22.8404 26.979C22.9486 26.9918 23.058 27 23.1674 27C23.3862 27 23.6097 26.9755 23.8296 26.9288C24.6235 26.7538 25.2998 26.2813 25.7362 25.6034C26.2678 24.7786 26.4384 23.676 26.209 22.5746Z" fill="#91D7EC"/>
<path d="M24.9999 20.358C23.0674 23.5338 19.5495 25.6911 15.5999 25.6911C9.82364 25.6911 4.96954 21.0697 4.64844 15.4075C4.36498 15.8859 4.20267 16.4436 4.20267 17.0375C4.20267 17.5916 4.32029 18.1342 4.54141 18.6359C3.79101 18.4924 3.01473 18.5822 2.30314 18.8972C1.37984 19.3044 0.672952 20.0453 0.310688 20.9833C-0.133908 22.1349 -0.100974 23.3926 0.407136 24.5208C0.915246 25.6467 1.83384 26.5136 2.99709 26.9546C3.02767 26.9651 3.06178 26.971 3.09471 26.971L22.8404 26.978C22.9486 26.9908 23.058 26.999 23.1674 26.999C23.3862 26.999 23.6096 26.9745 23.8296 26.9278C24.6235 26.7528 25.2998 26.2803 25.7362 25.6024C26.2678 24.7799 26.4384 23.6761 26.209 22.5759C26.0208 21.681 25.5927 20.9028 24.9999 20.358Z" fill="#91D7EC"/>
</svg>
