<svg width="208" height="246" viewBox="0 0 208 246" fill="none" xmlns="http://www.w3.org/2000/svg">
<path d="M164.547 88.1704L154.461 158.765L133.688 162.119L126.034 163.365L97.3069 168.001L95.3542 99.0956L124.74 94.4596L135.054 92.8304L164.547 88.1704Z" fill="#D02E32"/>
<path d="M97.3074 168.002L85.268 162.887L77.6132 159.628L66.9635 155.112L55.0081 89.848L67.6943 92.759L77.9966 95.119L95.3547 99.0961L97.3074 168.002Z" fill="#D42E33"/>
<path d="M164.548 88.1703L103.752 80.8868L55.0081 89.8474L95.3547 99.0955L164.548 88.1703Z" fill="#A32E2E"/>
<path d="M85.2679 162.886L77.613 159.628L67.6941 92.7587L77.9964 95.1186L85.2679 162.886Z" fill="#ECC230"/>
<path d="M124.741 94.4604L135.056 92.8312L133.69 162.12L126.047 163.366C125.772 149.015 125.269 122.708 124.741 94.4604Z" fill="#ECC230"/>
<path d="M138.313 5.7627L147.717 28.1642L124.034 46.8281L113.013 55.5252L85.6039 77.1241L74.1995 57.2982L103.417 33.8185L115.133 24.4027L138.313 5.7627Z" fill="#D02E32"/>
<path d="M85.6033 77.1242C84.9924 76.9804 76.1635 79.568 66.4243 82.5269C62.1356 83.8327 57.6793 85.2103 53.6662 86.4562C45.9754 88.8401 39.9258 90.7448 39.9258 90.7448L27 75.3632L43.1842 69.1579L56.2777 64.1385L74.1869 57.2743L85.6033 77.1242Z" fill="#D42E33"/>
<path d="M27.0117 75.3871L71.1558 32.6924L138.312 5.7627L74.1986 57.2982L27.0117 75.3871Z" fill="#D42E33"/>
<path d="M103.417 33.8192L78.4998 44.5288L81.7582 39.4016L115.133 24.4033L103.417 33.8192Z" fill="#CA8720"/>
<path d="M66.4357 82.5388C62.147 83.8445 57.6907 85.2222 53.6775 86.4681L43.1956 69.1817L56.2891 64.1624L66.4357 82.5388Z" fill="#ECC230"/>
<path d="M43.0295 69.2888L63.9097 49.6066L71.9359 46.8274L56.2908 64.1616L43.0295 69.2888Z" fill="#CA8720"/>
<path d="M115.131 24.4033L124.032 46.8408L113.011 55.5259C108.95 46.3496 105.62 38.8026 103.416 33.8192L115.131 24.4033Z" fill="#ECC230"/>
<path d="M78.3547 39.8451L101.343 35.4727L106.458 50.1953L98.6838 48.5422L99.187 57.2273L91.592 43.5348L78.3547 39.8451Z" fill="#ECC230"/>
<path d="M91.5935 43.5348L101.345 35.4727L77.5896 39.9769L91.5935 43.5348Z" fill="#CA8720"/>
<path d="M70.4842 45.9172L59.9902 62.7483L71.3347 69.9479L69.5378 65.9109L75.2161 68.3187L70.3884 58.9029L70.4842 45.9172Z" fill="#ECC230"/>
<path d="M59.9902 62.7483L70.3884 58.9029L70.3764 45.0188L59.9902 62.7483Z" fill="#CA8720"/>
<path d="M65.2856 28.9181C61.2006 24.6055 55.8459 21.3112 49.964 20.4846C47.5322 20.1372 45.0165 20.221 42.6805 21.0117C40.3445 21.8023 38.2361 23.3117 36.9783 25.4201C36.2475 26.63 35.8642 28.2832 36.7387 29.3853C37.709 30.6192 39.6018 30.4634 41.1351 30.152C45.268 29.3134 49.4968 28.1873 53.6297 29.0139C57.0438 29.6968 60.0506 31.6614 62.9616 33.5781C65.5492 35.2911 68.2565 37.136 69.6342 39.9152C70.0415 40.7298 70.317 41.6043 70.7602 42.395C71.2274 43.2455 73.0962 45.2341 73.9228 43.7606C74.6296 42.5147 72.7608 39.9032 72.2217 38.873C70.341 35.2912 68.0888 31.877 65.2856 28.9181Z" fill="#CA8720"/>
<path d="M49.1263 48.2776C41.6152 45.5463 35.1943 39.1612 33.7567 31.3027C33.2775 28.6792 33.4093 25.7802 34.9786 23.6359C36.3443 21.7551 38.6324 20.7249 40.9324 20.3655C43.2325 20.0181 46.1195 20.066 48.4315 20.3176C46.4669 21.9109 44.67 24.5823 44.5742 27.1099C44.4664 29.6376 45.4966 32.2012 47.3294 33.9502C49.6055 36.1304 52.828 36.945 55.8947 37.6878C62.2558 39.2092 68.6168 40.7425 74.9779 42.2759C75.2414 42.3358 74.2591 45.7379 74.1513 46.0374C73.6961 47.3072 73.3966 48.002 72.1987 48.5052C69.9705 49.4396 66.9397 49.6552 64.5438 49.9187C59.3687 50.4578 54.0499 50.0745 49.1263 48.2776Z" fill="#ECC230"/>
<path d="M67.8009 26.7394C67.0821 20.8455 67.9447 14.6162 71.0593 9.54894C72.3411 7.45255 74.0182 5.57178 76.1026 4.27801C78.1871 2.98423 80.7147 2.3134 83.1346 2.68476C84.5242 2.90039 86.0456 3.64309 86.3451 5.02073C86.6805 6.55409 85.3508 7.91977 84.1289 8.90208C80.8465 11.5495 77.2886 14.1011 75.288 17.8147C73.6349 20.8815 73.2396 24.4514 72.8682 27.9134C72.5328 31.0041 72.2333 34.2625 73.5031 37.1016C73.8745 37.9282 74.3776 38.7069 74.7011 39.5574C75.0485 40.4559 75.4079 43.1632 73.7307 42.8637C72.3172 42.6121 71.5025 39.5215 71.0473 38.4313C69.502 34.6938 68.304 30.7765 67.8009 26.7394Z" fill="#CA8720"/>
<path d="M93.0284 26.6189C95.6999 19.0838 94.8853 10.0753 89.7341 3.95384C88.021 1.91734 85.6971 0.168331 83.0496 0.0125988C80.7256 -0.131154 78.4734 0.970948 76.7364 2.51629C74.9994 4.06164 73.2025 6.32573 71.9207 8.2664C74.4005 7.76326 77.599 8.08671 79.6115 9.62008C81.6241 11.1534 82.9418 13.5733 83.1215 16.1009C83.3491 19.2515 81.9235 22.2464 80.5459 25.0855C77.6708 30.9674 74.7958 36.8373 71.9207 42.7192C71.8009 42.9588 75.0473 44.3604 75.3468 44.4682C76.6166 44.9234 77.3354 45.1391 78.4974 44.5281C80.6297 43.414 82.7381 41.2098 84.4632 39.5327C88.1768 35.9029 91.2675 31.5424 93.0284 26.6189Z" fill="#ECC230"/>
<path d="M80.9665 33.8188C82.7394 30.7281 83.7098 27.0744 83.1707 23.5524C82.9431 22.0909 82.4639 20.6654 81.6134 19.4555C80.7629 18.2575 79.517 17.2992 78.0914 16.9398C77.2649 16.7361 76.2586 16.796 75.7674 17.4908C75.2284 18.2575 75.6357 19.3237 76.0909 20.1503C77.2888 22.3784 78.6664 24.6186 78.906 27.1343C79.0977 29.2187 78.4988 31.2792 77.8878 33.2917C77.3487 35.0766 76.7617 36.9574 75.3961 38.2272C75.0008 38.5986 74.5455 38.91 74.1622 39.3054C73.7549 39.7246 72.9403 41.1382 73.9226 41.3539C74.7612 41.5455 75.9351 40.0241 76.4383 39.533C78.1753 37.8319 79.7446 35.9391 80.9665 33.8188Z" fill="#CA8720"/>
<path d="M67.0352 27.8759C67.3107 23.0842 69.8623 18.2924 74.1389 16.1002C75.5645 15.3694 77.2536 14.9502 78.763 15.4772C80.0807 15.9444 81.075 17.0705 81.674 18.3284C82.2729 19.5862 82.7402 21.2633 82.9917 22.629C81.7339 21.7784 79.8891 21.2034 78.4156 21.5868C76.9421 21.9701 75.6484 23.0003 74.9655 24.354C74.103 26.0431 74.1869 28.0317 74.2947 29.9244C74.5223 33.8417 74.7379 37.7709 74.9655 41.6882C74.9775 41.8439 72.8571 41.8679 72.6655 41.8559C71.8509 41.82 71.4076 41.7601 70.9045 41.1611C69.9821 40.047 69.3352 38.334 68.7722 37.0043C67.5503 34.1412 66.8555 31.0146 67.0352 27.8759Z" fill="#ECC230"/>
<path d="M59.5713 42.802C56.1213 41.9035 52.8389 40.0347 50.6946 37.1836C49.8081 36.0096 49.1253 34.656 48.8617 33.2064C48.5982 31.7569 48.7898 30.1996 49.5326 28.9298C49.9638 28.199 50.7185 27.5162 51.5451 27.648C52.4795 27.8037 52.9467 28.834 53.2222 29.7444C53.9769 32.1643 54.6118 34.7158 56.241 36.6445C57.5947 38.2498 59.4875 39.2561 61.3443 40.2264C62.9975 41.0889 64.7464 41.9874 66.6152 41.9035C67.1663 41.8796 67.7053 41.7717 68.2444 41.7717C68.8314 41.7717 70.4127 42.1791 69.8736 43.0416C69.4184 43.7723 67.5137 43.5447 66.8069 43.5567C64.3871 43.6166 61.9313 43.4249 59.5713 42.802Z" fill="#CA8720"/>
<path d="M65.0819 28.7039C61.4641 25.5414 56.253 24.008 51.7008 25.5294C50.1794 26.0325 48.694 26.9429 48.0231 28.3925C47.4362 29.6503 47.544 31.1597 48.0231 32.4655C48.5023 33.7712 49.3648 35.2806 50.1675 36.4186C50.443 34.9212 51.3175 33.2082 52.6232 32.4175C53.929 31.6269 55.5702 31.4352 57.0197 31.8904C58.8286 32.4535 60.1942 33.915 61.4641 35.3166C64.1115 38.2156 66.7589 41.1266 69.3944 44.0376C69.5022 44.1574 70.9997 42.66 71.1315 42.5162C71.6705 41.9052 71.9461 41.5578 71.8622 40.7672C71.7065 39.3296 70.9518 37.6645 70.3887 36.3348C69.1908 33.4598 67.4418 30.7644 65.0819 28.7039Z" fill="#ECC230"/>
<path d="M76.7394 41.2331C77.7936 43.7487 76.6076 46.6358 74.1039 47.6899C71.5883 48.7441 68.7012 47.5582 67.647 45.0545C66.5928 42.5388 67.7788 39.6518 70.2825 38.5976C72.7982 37.5434 75.6852 38.7294 76.7394 41.2331Z" fill="#ECC230"/>
<path d="M76.7393 41.2331C77.7935 43.7487 76.6195 46.6358 74.1038 47.6899C72.0553 48.5525 69.7553 47.9176 68.4016 46.3123C69.4798 46.9592 70.8454 47.091 72.0913 46.5759C74.1877 45.7014 75.17 43.2935 74.2835 41.2091C73.5528 39.4721 71.7678 38.5018 69.9829 38.7294C70.0787 38.6814 70.1746 38.6335 70.2824 38.5976C72.7981 37.5434 75.6851 38.7294 76.7393 41.2331Z" fill="#CA8720"/>
<path d="M78.8341 215.546C86.6585 214.393 94.5357 213.539 102.448 213.099C110.36 212.659 118.29 212.571 126.22 212.817C130.181 212.941 134.15 213.134 138.102 213.442C142.054 213.75 146.006 214.155 149.94 214.675C157.808 215.704 165.633 217.112 173.343 218.97C173.818 219.084 174.108 219.559 173.994 220.035C173.88 220.492 173.431 220.783 172.973 220.695C165.237 219.207 157.465 217.878 149.658 216.857C141.852 215.836 134.01 215.053 126.141 214.578C118.273 214.102 110.387 214.023 102.492 214.208C94.6061 214.393 86.7201 214.912 78.8605 215.775C78.7989 215.783 78.7461 215.739 78.7373 215.678C78.7373 215.607 78.7725 215.555 78.8341 215.546Z" fill="#CD9F52"/>
<path d="M127.364 169.093C130.365 168.723 133.375 168.354 136.377 167.975C133.428 167.623 130.48 167.271 127.531 166.919C128.535 165.625 129.547 164.34 130.55 163.047C129.274 164.05 127.989 165.062 126.713 166.065C126.343 163.047 125.965 160.019 125.595 157C125.225 160.063 124.865 163.126 124.495 166.189C123.113 165.115 121.731 164.032 120.349 162.958C121.397 164.287 122.444 165.616 123.492 166.954C120.614 167.306 117.727 167.667 114.849 168.019C117.788 168.371 120.728 168.723 123.668 169.075C122.603 170.44 121.546 171.795 120.481 173.159C121.846 172.085 123.21 171.012 124.574 169.938C124.926 172.798 125.278 175.668 125.639 178.528C125.974 175.703 126.317 172.878 126.651 170.052C127.927 171.047 129.195 172.033 130.471 173.027C129.424 171.716 128.394 170.404 127.364 169.093Z" fill="#CD9F52" fill-opacity="0.4"/>
<path d="M196.788 187.681C199.683 187.32 202.579 186.968 205.475 186.607C202.632 186.264 199.789 185.929 196.946 185.586C197.914 184.345 198.891 183.095 199.859 181.854C198.627 182.822 197.395 183.799 196.154 184.767C195.793 181.854 195.432 178.941 195.072 176.028C194.72 178.976 194.367 181.933 194.015 184.882C192.686 183.843 191.357 182.805 190.02 181.766C191.032 183.051 192.035 184.336 193.047 185.621C190.266 185.964 187.494 186.308 184.712 186.651C187.546 186.994 190.38 187.328 193.214 187.672C192.193 188.983 191.164 190.295 190.143 191.606C191.454 190.567 192.774 189.538 194.086 188.499C194.429 191.263 194.772 194.026 195.107 196.781C195.432 194.053 195.758 191.333 196.084 188.605C197.307 189.564 198.539 190.515 199.763 191.474C198.777 190.215 197.782 188.948 196.788 187.681Z" fill="#CD9F52"/>
<path d="M99.1474 176.548C101.33 176.275 103.513 176.011 105.696 175.738C103.557 175.483 101.409 175.228 99.2707 174.973C100.001 174.031 100.732 173.098 101.462 172.156C100.529 172.887 99.6051 173.617 98.6722 174.348C98.3993 172.156 98.1265 169.956 97.8625 167.764C97.5984 169.991 97.3344 172.218 97.0615 174.436C96.0582 173.652 95.0548 172.869 94.0515 172.086C94.8084 173.054 95.5741 174.022 96.331 174.99C94.2363 175.246 92.1416 175.51 90.0469 175.765C92.1856 176.02 94.3155 176.275 96.4542 176.531C95.6797 177.516 94.914 178.511 94.1395 179.497C95.134 178.713 96.1198 177.939 97.1143 177.155C97.3696 179.233 97.6248 181.318 97.8889 183.396C98.1353 181.345 98.3817 179.285 98.6282 177.235C99.5523 177.956 100.476 178.678 101.401 179.4C100.644 178.458 99.8955 177.499 99.1474 176.548Z" fill="#CD9F52" fill-opacity="0.4"/>
<path d="M55.8533 226.936C58.8898 226.557 61.935 226.188 64.9715 225.809C61.9878 225.448 59.0042 225.096 56.0205 224.735C57.0415 223.433 58.0536 222.121 59.0746 220.819C57.7808 221.84 56.487 222.852 55.1932 223.873C54.8148 220.819 54.4363 217.756 54.0578 214.702C53.6882 217.8 53.3185 220.898 52.9489 223.996C51.5495 222.905 50.1589 221.822 48.7595 220.731C49.8156 222.077 50.8806 223.424 51.9367 224.771C49.0235 225.131 46.1103 225.492 43.1882 225.853C46.1631 226.205 49.1379 226.566 52.1128 226.918C51.039 228.291 49.9652 229.673 48.8915 231.046C50.2733 229.963 51.6551 228.872 53.0281 227.789C53.389 230.685 53.741 233.581 54.1019 236.485C54.4451 233.625 54.7884 230.764 55.1316 227.913C56.4166 228.916 57.7016 229.919 58.9866 230.923C57.9392 229.585 56.9007 228.265 55.8533 226.936Z" fill="#CD9F52"/>
<path d="M115.043 183.096C116.504 182.92 117.965 182.735 119.417 182.559C117.982 182.392 116.556 182.216 115.122 182.049C115.615 181.424 116.099 180.799 116.592 180.165C115.967 180.658 115.351 181.142 114.726 181.635C114.541 180.165 114.365 178.704 114.18 177.234C114.004 178.722 113.828 180.209 113.643 181.697C112.974 181.177 112.305 180.649 111.637 180.13C112.147 180.772 112.658 181.424 113.159 182.066C111.76 182.242 110.36 182.41 108.961 182.586C110.387 182.753 111.813 182.929 113.247 183.096C112.728 183.756 112.217 184.416 111.698 185.076C112.358 184.557 113.027 184.038 113.687 183.51C113.863 184.9 114.031 186.291 114.207 187.682C114.374 186.309 114.532 184.936 114.699 183.563C115.316 184.047 115.932 184.522 116.556 185.006C116.046 184.372 115.544 183.73 115.043 183.096Z" fill="#CD9F52" fill-opacity="0.4"/>
<path d="M9.36459 188.886C11.6089 188.605 13.8621 188.332 16.1064 188.05C13.8973 187.786 11.6881 187.522 9.48782 187.258C10.2447 186.29 10.9929 185.322 11.7498 184.363C10.7904 185.119 9.83106 185.868 8.87172 186.624C8.59007 184.363 8.31725 182.101 8.03561 179.839C7.76277 182.127 7.48991 184.424 7.21706 186.712C6.18731 185.903 5.14876 185.102 4.11901 184.292C4.90233 185.287 5.68566 186.281 6.46897 187.285C4.31265 187.549 2.15632 187.821 0 188.085C2.20033 188.349 4.40066 188.614 6.60099 188.878C5.80887 189.899 5.00796 190.919 4.21584 191.932C5.23679 191.131 6.25773 190.33 7.27868 189.52C7.54272 191.668 7.80675 193.806 8.07079 195.954C8.32603 193.842 8.58128 191.72 8.82772 189.608C9.77826 190.347 10.7288 191.096 11.6793 191.835C10.9048 190.858 10.1303 189.872 9.36459 188.886Z" fill="#CD9F52"/>
<path d="M40.53 233.272C42.0086 233.087 43.4785 232.911 44.9571 232.726C43.5049 232.55 42.0615 232.383 40.6092 232.207C41.1021 231.574 41.595 230.94 42.0967 230.306C41.4718 230.799 40.8381 231.292 40.2132 231.794C40.0284 230.306 39.8435 228.828 39.6675 227.34C39.4915 228.845 39.3066 230.35 39.1306 231.855C38.4529 231.327 37.7752 230.799 37.0975 230.271C37.608 230.922 38.1273 231.582 38.6378 232.234C37.2207 232.41 35.8037 232.586 34.3955 232.762C35.8389 232.938 37.2824 233.105 38.7258 233.281C38.2065 233.95 37.6784 234.619 37.1591 235.288C37.828 234.76 38.4969 234.232 39.1658 233.703C39.3419 235.112 39.5091 236.52 39.6851 237.928C39.8523 236.537 40.0196 235.156 40.1868 233.765C40.8117 234.249 41.4366 234.742 42.0615 235.226C41.551 234.566 41.0405 233.915 40.53 233.272Z" fill="#CD9F52"/>
<path d="M37.6247 188.896C39.8866 188.615 42.1486 188.342 44.4017 188.06C42.1838 187.796 39.9658 187.532 37.7479 187.268C38.5048 186.3 39.2617 185.323 40.0187 184.355C39.0593 185.112 38.0912 185.869 37.1318 186.625C36.8502 184.355 36.5685 182.075 36.2869 179.804C36.014 182.11 35.7324 184.408 35.4596 186.713C34.421 185.904 33.3825 185.094 32.3439 184.284C33.1272 185.288 33.9193 186.291 34.7026 187.286C32.5375 187.55 30.3636 187.822 28.1985 188.086C30.4076 188.351 32.6255 188.615 34.8347 188.879C34.0337 189.9 33.2328 190.929 32.4407 191.95C33.4705 191.141 34.4914 190.34 35.5212 189.53C35.7852 191.686 36.0492 193.843 36.3221 195.99C36.5773 193.86 36.8326 191.739 37.0878 189.609C38.0471 190.357 38.9977 191.105 39.957 191.845C39.1825 190.868 38.3992 189.882 37.6247 188.896Z" fill="#CD9F52"/>
<path d="M24.9249 180.579C26.5884 180.376 28.2518 180.165 29.9241 179.963C28.287 179.769 26.6588 179.575 25.0217 179.373C25.5762 178.66 26.1395 177.938 26.694 177.225C25.9811 177.78 25.277 178.343 24.5641 178.898C24.3617 177.225 24.1504 175.544 23.9392 173.872C23.7367 175.571 23.5343 177.269 23.3319 178.959C22.5662 178.361 21.8005 177.762 21.0348 177.173C21.6156 177.912 22.1965 178.651 22.7774 179.382C21.1844 179.575 19.5825 179.778 17.9895 179.971C19.6177 180.165 21.246 180.359 22.8742 180.552C22.2845 181.309 21.6948 182.057 21.1051 182.814C21.8621 182.216 22.619 181.626 23.3759 181.028C23.5695 182.612 23.7719 184.205 23.9656 185.789C24.1504 184.222 24.344 182.656 24.5289 181.089C25.233 181.635 25.9371 182.189 26.6412 182.735C26.0691 182.031 25.497 181.3 24.9249 180.579Z" fill="#CD9F52"/>
<path d="M200.846 229.347C202.826 229.1 204.798 228.863 206.778 228.616C204.842 228.387 202.896 228.15 200.96 227.921C201.62 227.076 202.289 226.222 202.949 225.377C202.104 226.037 201.268 226.698 200.423 227.366C200.177 225.377 199.93 223.388 199.684 221.399C199.446 223.415 199.2 225.43 198.962 227.446C198.056 226.742 197.149 226.029 196.234 225.325C196.92 226.205 197.607 227.076 198.302 227.956C196.41 228.194 194.509 228.423 192.616 228.66C194.553 228.889 196.48 229.127 198.417 229.356C197.721 230.253 197.017 231.151 196.322 232.04C197.22 231.336 198.117 230.632 199.015 229.919C199.244 231.802 199.481 233.686 199.71 235.569C199.93 233.712 200.159 231.846 200.379 229.989C201.215 230.641 202.052 231.292 202.888 231.943C202.21 231.081 201.532 230.218 200.846 229.347Z" fill="#CD9F52"/>
<path d="M186.166 237.277C188.657 236.969 191.156 236.661 193.647 236.353C191.2 236.063 188.754 235.764 186.307 235.473C187.143 234.399 187.979 233.334 188.815 232.261C187.75 233.097 186.694 233.933 185.629 234.769C185.321 232.261 185.013 229.752 184.696 227.244C184.388 229.787 184.089 232.331 183.781 234.866C182.637 233.968 181.493 233.079 180.348 232.181C181.22 233.29 182.082 234.391 182.954 235.5C180.56 235.799 178.174 236.089 175.781 236.388C178.218 236.679 180.656 236.969 183.103 237.26C182.223 238.386 181.343 239.522 180.463 240.648C181.598 239.759 182.725 238.87 183.86 237.982C184.151 240.358 184.45 242.734 184.74 245.111C185.022 242.761 185.304 240.419 185.585 238.07C186.641 238.897 187.698 239.715 188.754 240.543C187.882 239.46 187.02 238.369 186.166 237.277Z" fill="#CD9F52"/>
<path d="M170.86 229.532C172.357 229.347 173.844 229.162 175.34 228.977C173.87 228.801 172.409 228.625 170.94 228.449C171.441 227.807 171.943 227.164 172.445 226.522C171.811 227.023 171.169 227.525 170.535 228.027C170.35 226.522 170.165 225.026 169.98 223.521C169.796 225.043 169.619 226.566 169.435 228.088C168.748 227.552 168.062 227.015 167.375 226.487C167.894 227.147 168.414 227.807 168.933 228.476C167.498 228.652 166.073 228.828 164.638 229.004C166.099 229.18 167.56 229.356 169.021 229.532C168.493 230.209 167.965 230.887 167.437 231.565C168.114 231.028 168.792 230.5 169.47 229.963C169.646 231.389 169.822 232.815 169.998 234.232C170.165 232.823 170.332 231.424 170.5 230.016C171.133 230.509 171.767 231.002 172.392 231.495C171.89 230.834 171.38 230.183 170.86 229.532Z" fill="#CD9F52"/>
<path d="M199.71 215.106C199.341 215.159 198.469 215.282 198.196 215.995C197.985 216.559 198.267 217.192 198.628 217.535C199.112 218.002 199.745 217.967 200.203 217.949C200.529 217.932 200.854 217.923 201.18 217.694C201.497 217.465 201.717 217.069 201.779 216.638C201.831 216.242 201.743 215.863 201.532 215.582C201.022 214.921 200.062 215.053 199.71 215.106Z" fill="white"/>
<path d="M206.963 196.526C206.435 195.954 205.484 195.681 204.78 195.673C204.235 195.664 203.812 195.796 203.575 196.033C203.425 196.192 203.346 196.491 203.178 197.134C203.073 197.521 203.02 197.741 202.958 198.119C202.853 198.753 200.767 209.244 200.072 212.131C200.001 212.413 199.816 213.17 200.292 213.636C200.529 213.874 200.908 214.006 201.277 214.014C201.489 214.014 201.691 213.979 201.858 213.9C202.166 213.75 202.378 213.46 202.483 213.029C203.205 210.221 204.217 207.449 205.194 204.764C205.801 203.092 206.435 201.358 206.989 199.633L207.025 199.528C207.341 198.507 207.711 197.354 206.963 196.526Z" fill="white"/>
<path d="M157.623 194.334C157.817 194.431 158.028 194.466 158.239 194.475C158.582 194.484 158.926 194.378 159.163 194.229C159.709 193.903 159.815 193.366 159.938 192.724C160.131 191.747 160.307 190.823 159.621 190.33C159.049 189.916 157.993 189.995 157.368 190.506C156.778 190.981 156.778 191.659 156.778 192.257C156.787 192.847 156.787 193.938 157.623 194.334Z" fill="white"/>
<path d="M198.558 206.085C198.549 205.513 198.408 204.096 197.326 203.198C195.83 201.957 193.128 201.852 191.174 202.961C189.273 204.035 188.815 205.944 188.709 206.719C188.665 206.939 188.648 207.115 188.639 207.221C188.498 208.779 189.229 210.046 189.537 210.583C189.607 210.697 189.678 210.812 189.748 210.926C188.463 211.938 187.116 212.598 185.823 212.827C185.409 212.898 185.215 212.889 185.057 212.792C184.52 212.431 184.951 210.961 185.673 208.532C185.787 208.154 185.902 207.749 186.034 207.317C187.389 202.662 187.521 201.359 186.711 200.672C186.148 200.197 185.347 200.241 184.828 200.259C183.499 200.32 182.161 201.051 179.063 204.607C179.151 204.29 180.427 199.59 179.494 199.159C179.371 199.106 179.125 199.071 178.702 199.027C178.121 198.965 177.796 198.93 177.523 199.027C177.056 199.194 176.898 199.801 176.775 200.303C176.572 201.113 176.308 202.283 176.106 203.788C176.018 203.815 175.93 203.85 175.842 203.867C175.279 203.991 174.698 204.035 174.117 204.017C174.09 200.752 172.647 198.111 170.684 197.451C170.297 197.319 168.678 196.774 167.269 197.592C166.909 197.803 166.653 198.05 166.486 198.235C164.471 198.455 162.79 199.74 161.865 201.773C161.267 203.093 161.064 204.563 161.223 205.944C160.66 206.429 160.07 206.877 159.436 207.273C158.072 208.127 157.738 208.03 157.676 208.004C157.465 207.89 157.262 207.467 157.623 205.135C157.826 203.779 158.063 202.829 158.336 201.737C158.424 201.385 158.512 201.016 158.609 200.602C159.551 196.65 159.287 196.087 158.873 195.805C158.274 195.392 157.209 195.577 156.629 196.017C156.083 196.421 155.96 197.02 155.907 197.249C155.423 199.537 155.115 201.561 154.93 202.89C154.164 203.691 153.328 204.395 152.395 204.985L152.351 205.012C151.489 205.557 149.878 206.569 149.13 206.112C148.549 205.76 148.672 204.571 148.734 204.07C149.112 200.54 149.455 197.794 149.728 195.673C150.221 195.7 150.67 195.735 151.075 195.761C151.99 195.823 152.686 195.867 153.214 195.876C154.191 195.893 154.631 195.779 154.921 195.383C155.308 194.872 155.282 194.063 154.859 193.693C154.463 193.341 153.83 193.455 153.152 193.57C152.624 193.658 152.069 193.737 151.48 193.799C150.943 193.851 150.432 193.887 149.948 193.913C150.406 190.542 150.652 189.328 150.67 189.24C150.785 188.703 150.987 187.427 150.344 187.118C150.124 187.013 149.764 187.057 149.042 187.154C148.602 187.215 148.364 187.242 148.197 187.33C147.528 187.655 147.449 188.527 147.422 188.817C147.343 189.724 147.088 191.862 146.815 193.975C146.164 193.966 145.636 193.948 145.328 193.913C145.09 193.887 144.456 193.834 144.228 194.168C144.131 194.309 144.113 194.494 144.184 194.696C144.333 195.154 145.178 195.339 146.63 195.462C146.419 197.055 146.102 199.335 146.102 199.335C145.961 200.285 145.697 201.993 145.627 203.656C145.257 203.876 144.888 204.096 144.518 204.299C142.458 205.434 141.992 205.46 141.807 205.364C141.349 205.1 141.525 204.008 141.684 203.031C142.608 197.363 143.031 194.38 142.036 193.957C141.746 193.834 141.156 193.878 140.83 193.913C140.487 193.948 140.135 193.992 139.862 194.186C139.668 194.327 139.554 194.512 139.484 194.705C138.815 194.151 137.917 193.623 136.755 193.464C134.229 193.112 132.425 194.749 131.835 195.286C129.617 197.293 129.072 200.329 129.3 202.494C129.318 202.679 129.353 202.855 129.38 203.04C127.039 205.135 126.158 205.399 125.833 205.214C125.736 205.161 125.604 204.959 125.534 203.832C125.463 202.723 125.507 201.614 125.666 200.54C127.901 197.97 129.538 195.189 130.541 192.294C131.976 188.104 131.184 186.15 130.577 185.358C130.401 185.121 129.917 184.496 129.063 184.232C127.637 183.792 126.202 184.636 125.736 184.909C124.381 185.701 123.025 187.55 122.594 200.496C122.576 200.998 122.559 201.588 122.567 202.195C121.96 202.846 121.353 203.436 120.754 203.92C120.552 204.087 120.059 204.483 119.786 204.369C119.434 204.228 119.461 203.33 119.461 203.04C119.478 202.186 119.584 200.857 119.689 199.458C119.865 197.082 120.077 194.388 119.936 193.191C119.918 193.068 119.883 192.681 119.557 192.434C119.293 192.241 118.871 192.17 118.404 192.25C117.815 192.355 117.287 192.663 117.023 193.059C116.961 193.297 116.882 193.667 116.811 194.124C116.591 195.621 116.855 195.929 116.811 197.944C116.794 198.622 116.759 198.771 116.679 201.007C116.671 201.157 116.671 201.28 116.662 201.359C116.063 202.089 115.394 202.732 114.62 203.278C114.101 203.639 112.534 204.739 111.9 204.351C111.566 204.14 111.61 203.278 111.689 201.561C111.724 200.796 111.759 200.593 111.812 199.493C111.865 198.411 111.856 198.419 111.883 197.557C111.918 196.421 111.962 195.251 112.041 194.107C112.076 193.543 112.147 192.61 111.548 192.302C111.029 192.03 110.281 192.417 109.964 192.663C109.55 192.98 109.286 193.438 109.163 194.027C108.802 195.797 108.749 198.305 108.732 199.255C108.723 199.581 108.714 199.907 108.705 200.232C108.089 201.033 107.412 201.764 106.637 202.406C106.355 202.688 104.542 204.466 103.557 203.938C102.967 203.63 102.914 202.626 102.905 201.966C102.844 198.419 102.817 195.656 102.826 193.508C103.31 193.473 103.768 193.447 104.164 193.42C106.76 193.262 107.552 193.218 107.922 192.558C108.239 192.003 108.116 191.202 107.649 190.885C107.209 190.586 106.602 190.78 105.951 190.982C105.44 191.141 104.903 191.281 104.322 191.422C103.803 191.546 103.301 191.642 102.826 191.73C102.853 188.254 102.949 187.03 102.949 187.004C102.993 186.458 103.029 185.165 102.36 184.936C102.131 184.857 101.779 184.953 101.075 185.138C100.635 185.253 100.415 185.314 100.256 185.42C99.6312 185.825 99.6665 186.696 99.6841 186.995C99.7281 187.937 99.7369 190.085 99.7369 192.188C99.0944 192.258 98.5663 192.311 98.2582 192.32C98.0206 192.329 97.3957 192.355 97.2021 192.716C97.1229 192.866 97.1317 193.051 97.2197 193.244C97.3781 193.57 97.915 193.702 98.7951 193.711C99.068 193.711 99.3848 193.702 99.7281 193.693C99.7281 194.186 99.6576 198.305 99.6753 199.511C99.6841 200.083 99.7016 200.919 99.7721 201.949C99.4376 202.213 99.1031 202.477 98.7511 202.732C96.8588 204.131 96.4012 204.202 96.2075 204.131C95.7235 203.929 95.7587 202.82 95.7851 201.834C95.9787 196.096 96.0227 193.095 94.9841 192.787C94.6761 192.699 94.104 192.813 93.7872 192.892C93.4527 192.971 93.1095 193.059 92.863 193.288C92.687 193.455 92.599 193.658 92.555 193.86C91.8333 193.394 90.8915 192.989 89.7297 192.971C87.1334 192.954 85.5667 194.793 85.0562 195.401C83.12 197.68 82.9615 200.761 83.4632 202.882C83.5248 203.128 83.5864 203.357 83.6656 203.586C82.0902 205.575 81.5181 205.812 81.3157 205.733C81.1221 205.654 81.1221 204.915 81.1221 202.943V202.67C81.1221 199.308 81.1221 198.182 80.4091 197.891C80.1363 197.777 79.9075 197.856 79.5642 197.962C79.2914 198.05 78.9217 198.173 78.3496 198.261C77.7424 198.349 77.1263 198.375 76.5014 198.331C77.1703 197.31 78.0592 195.638 77.5399 194.564C77.4783 194.432 77.3991 194.327 77.2935 194.221C76.5454 193.517 74.7587 193.693 73.7554 194.582C73.2449 195.04 73.0689 195.568 72.9985 195.788C72.6288 196.914 72.9368 198.226 73.773 199.141C73.9402 199.326 74.1338 199.484 74.3451 199.634C73.3945 200.998 72.5232 202.301 71.7311 203.515C71.6254 201.429 71.5022 198.93 71.3614 195.964C71.3438 195.656 71.2998 194.705 70.7189 194.512C70.5605 194.459 70.4109 194.485 70.138 194.547C69.7772 194.626 69.0995 194.758 68.7562 195.224C68.5714 195.471 68.545 195.735 68.545 195.946C67.7617 195.453 66.6879 195.022 65.3853 195.092C62.8329 195.242 61.3983 197.214 60.923 197.865C59.4532 199.889 59.0308 202.917 59.8581 205.592C59.9109 205.751 59.9637 205.9 60.0165 206.05C59.3124 207.027 58.5027 207.793 57.6401 208.312C57.2793 208.523 57.0945 208.585 56.9184 208.541C56.2935 208.391 56.1791 206.869 55.9943 204.343C55.9679 203.947 55.9327 203.524 55.8975 203.075C55.519 198.243 55.1934 196.976 54.1988 196.615C53.5123 196.369 52.7818 196.685 52.3065 196.897C51.092 197.425 50.115 198.578 48.4868 202.987C48.4604 202.75 48.4252 202.512 48.3988 202.266C48.1171 199.81 47.8091 197.759 46.9729 197.742C46.8233 197.742 46.5769 197.803 46.1896 197.9C45.6439 198.041 45.3183 198.129 45.0983 198.314C44.7638 198.595 44.6846 199.079 44.8518 199.775C45.1071 200.805 45.2567 201.878 45.4063 202.908C45.4239 203.031 45.4415 203.154 45.4591 203.278C45.3799 203.33 45.3183 203.401 45.2391 203.445C44.7638 203.753 44.2357 204.008 43.69 204.193C42.5195 201.148 40.2487 199.185 38.1804 199.255C37.7756 199.273 36.0769 199.335 35.0472 200.584C34.7831 200.91 34.6335 201.227 34.5455 201.456C32.75 202.371 31.6411 204.158 31.4914 206.385C31.4474 207.097 31.509 207.81 31.6498 208.506C30.8225 210.134 29.2383 212.343 26.3515 213.593C23.3854 214.878 21.2027 214.649 19.8913 214.218C15.3146 212.739 13.5015 206.288 14.7337 201.421C14.8921 200.805 15.8251 197.618 18.9496 195.242C19.5392 194.793 21.5811 193.376 23.271 193.86C24.1335 194.107 25.0049 194.855 25.4361 195.709C25.6473 196.131 25.8498 196.765 25.6033 197.398C25.3217 198.155 25.7618 198.719 26.3338 198.947C27.0027 199.211 27.9093 199.044 28.2526 198.208C29.0095 196.377 28.9743 194.89 28.1381 193.763C27.5924 193.024 26.9147 192.663 26.6243 192.505C24.6264 191.422 22.3997 191.818 21.5635 191.968C18.7383 192.47 16.8636 194.036 16.1595 194.635C12.595 197.627 9.62895 203.542 11.5476 209.456C12.3398 211.921 14.3464 216.216 18.8263 217.333C19.4864 217.501 20.1641 217.589 20.8506 217.597C22.1884 217.615 23.5878 217.351 25.04 216.805C28.7806 215.388 30.9545 212.361 32.1251 210.046C32.6444 211.252 33.4453 212.299 34.4575 212.986C34.7479 213.188 35.056 213.346 35.3728 213.478C36.2001 213.822 36.9042 213.848 37.2563 213.857C38.4269 213.901 39.9407 213.575 41.0585 212.898C43.162 211.613 44.3413 208.752 43.9629 205.672C44.0069 205.619 44.271 205.504 44.4822 205.408C44.8342 205.249 45.3007 205.038 45.688 204.774C45.6968 204.818 45.7056 204.871 45.7144 204.915C45.9168 206.006 46.1544 207.097 46.3832 208.162C46.5857 209.104 46.7969 210.09 46.9818 211.058C47.017 211.234 47.105 211.709 47.5186 211.877C47.6154 211.921 47.7211 211.938 47.8267 211.938C48.4164 211.947 49.0677 211.454 49.1029 211.428C50.027 210.732 49.7454 209.439 49.2789 207.309C49.1733 206.825 49.0589 206.27 48.9357 205.689C49.5869 204.343 50.2646 203.014 50.9952 201.729C51.3824 201.051 52.0161 199.933 52.2801 199.933C52.5002 199.968 52.553 200.901 52.6234 201.975C52.6938 203.093 52.7818 204.624 53.0635 206.525C53.3891 208.717 53.7764 209.993 54.8765 210.477C55.1846 210.618 55.5014 210.662 55.7743 210.662C56.0559 210.662 56.2936 210.627 56.4432 210.6C58.2034 210.319 59.6732 208.884 60.7206 207.476C61.3103 208.382 62.0584 209.034 62.8945 209.324C63.2906 209.465 63.7307 209.535 64.1971 209.544C65.0157 209.553 65.8958 209.368 66.6615 208.99C67.9289 208.374 68.5274 207.397 69.2315 206.235C69.2667 206.569 69.2931 206.913 69.3195 207.256C66.6703 211.56 65.2181 214.429 64.6988 215.494C64.2147 216.48 63.0882 218.794 64.0651 220.784C64.5228 221.716 65.2621 222.236 65.6405 222.5C66.2302 222.913 66.9343 223.098 67.6472 223.116C68.809 223.133 69.9972 222.685 70.7805 222.007C71.2734 221.576 71.5198 221.127 71.7399 220.731C72.444 219.446 72.4968 218.205 72.4528 216.708C72.4176 215.327 72.0039 208.013 71.8367 205.812C72.9544 203.894 74.1162 202.01 75.322 200.127C76.2813 200.47 77.4079 200.505 78.4993 200.188C78.4817 201.641 78.4729 203.102 78.4817 204.633C78.4905 205.592 78.4905 206.789 79.2826 207.229C79.661 207.441 80.2243 207.467 80.4532 207.476C80.4972 207.476 81.3949 207.344 81.5797 207.3C82.5919 207.053 84.1057 205.135 84.1673 205.047C84.2025 205.012 84.2377 204.959 84.2729 204.915C84.7922 205.786 85.4611 206.429 86.2444 206.763C86.7197 206.965 87.2742 207.062 87.8551 207.08C88.5768 207.089 89.3337 206.957 90.0202 206.684C91.3316 206.156 91.9917 205.24 92.775 204.149C92.8014 204.105 92.8278 204.061 92.8542 204.017C92.9686 205.443 93.0831 206.314 93.8224 206.693C94.0424 206.798 94.2712 206.842 94.5001 206.851C94.9841 206.86 95.4682 206.693 95.8379 206.569C97.0436 206.156 97.7038 205.469 99.024 204.105C99.3144 203.841 99.6048 203.568 99.8953 203.304C99.9921 203.911 100.124 204.483 100.309 204.941C100.388 205.144 100.635 205.777 101.268 206.129C101.603 206.314 101.964 206.385 102.316 206.385C102.958 206.393 103.557 206.191 103.882 206.085C105.361 205.601 106.32 204.677 107.192 203.771C107.676 203.26 108.142 202.732 108.6 202.186C108.591 203.621 108.697 205.012 109.225 205.645C109.41 205.865 109.638 206.024 109.647 206.024C110.193 206.209 110.712 206.305 111.214 206.314C111.372 206.314 111.539 206.314 111.698 206.297C113.476 206.138 114.646 204.985 115.887 203.771L115.931 203.727C116.143 203.515 116.345 203.295 116.547 203.075C116.521 205.196 116.679 205.83 117.26 206.182C117.568 206.376 117.929 206.429 118.246 206.429C118.448 206.429 118.633 206.411 118.774 206.402C119.804 206.314 120.508 205.76 121.15 205.196C121.652 204.765 122.136 204.29 122.62 203.788C122.796 205.029 123.21 206.138 124.152 206.569C124.495 206.728 124.803 206.745 125.005 206.763C125.067 206.763 125.12 206.772 125.181 206.772C126.968 206.798 128.579 205.434 129.644 204.246C130.04 205.355 130.682 206.217 131.518 206.701C132.143 207.062 132.953 207.256 133.798 207.273C134.3 207.282 134.801 207.221 135.285 207.097C136.65 206.745 137.433 205.909 138.348 204.932C138.383 204.897 138.41 204.853 138.445 204.818C138.375 206.244 138.375 207.133 139.07 207.59C139.36 207.784 139.686 207.846 140.02 207.854C140.408 207.863 140.786 207.784 141.094 207.722C142.344 207.467 143.092 206.869 144.58 205.68C144.905 205.425 145.222 205.17 145.548 204.906C145.565 205.557 145.627 206.165 145.75 206.666C145.803 206.877 145.97 207.529 146.56 207.96C146.991 208.277 147.519 208.374 147.994 208.382C148.47 208.391 148.91 208.303 149.165 208.259C150.696 207.969 151.779 207.177 152.756 206.385C153.398 205.865 154.023 205.311 154.631 204.739C154.595 205.073 154.569 205.381 154.534 205.672C154.323 207.626 154.226 208.514 154.948 209.043C155.308 209.298 155.854 209.447 156.532 209.456C156.655 209.456 156.787 209.456 156.919 209.447C157.711 209.403 158.327 209.131 158.82 208.867C159.665 208.418 160.519 207.784 161.346 207.036C161.54 207.731 161.83 208.382 162.226 208.946C163.309 210.477 165.025 211.137 166.715 211.164C166.961 211.164 168.079 211.208 169.373 210.671C172.436 209.403 173.536 206.147 173.756 205.469C173.888 205.46 174.09 205.434 174.337 205.408C174.689 205.372 175.287 205.337 175.701 205.24C175.692 205.284 175.683 205.337 175.675 205.381C175.472 206.473 175.314 207.582 175.155 208.655C175.015 209.615 174.865 210.6 174.698 211.569C174.671 211.727 174.583 212.229 174.909 212.537C175.111 212.722 175.411 212.783 175.701 212.792C176.124 212.801 176.528 212.686 176.555 212.677C177.673 212.361 177.866 211.049 178.174 208.884C178.245 208.391 178.333 207.837 178.429 207.247C179.512 206.217 180.63 205.214 181.774 204.272C182.381 203.771 183.411 202.926 183.64 203.058C183.825 203.163 183.543 204.052 183.226 205.082C182.892 206.147 182.434 207.617 182.029 209.5C181.563 211.665 181.475 213.003 182.346 213.839C182.848 214.323 183.481 214.455 183.781 214.517C184.045 214.57 184.318 214.596 184.59 214.605C186.799 214.64 189.079 213.135 190.452 212.035C190.681 212.352 190.919 212.66 191.156 212.968C192.089 214.174 193.048 215.423 193.515 216.682C194.149 218.372 193.295 220.66 191.623 221.787C190.734 222.385 189.598 222.641 188.243 222.526C187.644 222.482 186.069 222.359 184.978 221.171C184.608 220.766 184.326 220.15 184.203 219.851C184.511 219.868 185.066 219.895 185.532 219.736C186.65 219.366 187.715 218.275 187.556 217.096C187.539 216.99 187.398 216.048 186.553 215.626C185.796 215.247 184.995 215.564 184.731 215.661C184.054 215.934 183.165 216.664 182.804 218.636C182.601 218.645 182.02 218.46 181.721 218.31C181.554 218.231 181.413 218.143 181.272 218.055C180.938 217.853 180.656 217.685 180.392 217.809C180.348 217.826 180.207 217.905 180.163 218.073C180.022 218.61 181.246 219.217 181.492 219.331C181.633 219.402 181.888 219.446 182.152 219.507C182.416 219.56 182.768 219.631 182.839 219.683C182.874 219.842 182.944 220.071 183.041 220.326C183.429 221.32 184.045 221.936 184.344 222.236C185.488 223.362 186.808 223.741 187.24 223.864C187.9 224.058 188.533 224.128 189.123 224.146C190.549 224.163 191.693 223.776 192.221 223.556C192.952 223.248 194.765 222.324 195.768 220.317C196.296 219.261 196.384 218.319 196.402 218.055C196.516 215.899 195.319 214.35 194.166 212.854C193.048 211.41 191.887 209.914 191.825 207.819C191.799 206.869 192.001 206.165 192.459 205.61C193.365 204.51 195.319 203.955 196.173 204.554C196.833 205.012 197.203 205.496 197.396 206.156C197.475 206.411 197.731 206.561 198.004 206.517C198.373 206.543 198.567 206.341 198.558 206.085ZM36.2529 202.741C36.3322 202.239 36.737 201.764 37.3355 201.473C37.7227 201.289 38.1364 201.192 38.5149 201.201C38.8317 201.209 39.131 201.28 39.3862 201.412C40.6712 202.107 41.7802 204.651 41.6482 204.915C41.4369 205.258 38.9549 205.372 37.6171 204.554C37.0539 204.211 36.1209 203.524 36.2529 202.741ZM39.439 210.838C38.4533 211.313 37.4411 211.164 37.3795 211.155C36.2177 210.961 35.5224 210.204 35.2232 209.87C34.0262 208.558 33.991 206.93 33.9822 206.402C33.9558 205.064 34.3959 204.017 34.6951 203.436C34.8535 203.797 35.6984 205.575 37.7756 206.393C39.6238 207.115 41.2433 206.613 41.6746 206.464C41.701 208.426 40.8472 210.152 39.439 210.838ZM68.8266 198.895C68.9058 200.303 69.0203 202.169 69.1787 204.36C68.7122 205.17 68.0345 205.962 67.0224 206.411C66.6791 206.561 66.0542 206.842 65.3413 206.71C63.7043 206.402 63.0178 204.184 62.8417 203.515C62.4809 202.116 62.5337 199.889 63.493 198.314C63.9771 197.513 64.6284 197.011 65.4117 196.826C66.6703 196.536 67.9113 197.143 68.7562 197.742C68.7738 198.085 68.8002 198.463 68.8266 198.895ZM139 200.725C138.885 201.509 138.779 202.301 138.691 203.102C138.075 203.797 137.257 204.431 136.166 204.677C135.805 204.756 135.127 204.906 134.449 204.642C132.891 204.035 132.645 201.773 132.601 201.095C132.513 199.696 132.979 197.592 134.203 196.245C134.845 195.541 135.585 195.172 136.412 195.145C136.456 195.145 136.509 195.145 136.553 195.145C137.723 195.163 138.735 195.885 139.431 196.562C139.396 197.962 139.202 199.361 139 200.725ZM125.666 198.56C125.692 197.953 125.718 197.143 125.762 196.201C126.185 187.303 127.496 186.414 127.883 186.353C127.936 186.344 128.368 186.291 128.772 186.494C129.23 186.722 129.406 187.162 129.476 187.321C130.656 190.208 127.452 195.779 127.417 195.841C126.898 196.765 126.308 197.671 125.666 198.56ZM87.5646 196.061C88.1103 195.286 88.7968 194.82 89.6065 194.688C90.8211 194.494 91.9653 195.101 92.7662 195.709C92.907 197.099 92.8894 198.507 92.863 199.889C92.8454 200.681 92.8454 201.482 92.863 202.292C92.3438 203.058 91.6132 203.797 90.5659 204.175C90.2138 204.299 89.5713 204.536 88.8672 204.36C87.2566 203.955 86.7197 201.746 86.5877 201.077C86.3325 199.704 86.5261 197.548 87.5646 196.061ZM74.5123 195.691C74.7499 195.339 75.234 195.11 75.6212 195.119C75.7268 195.119 75.8237 195.136 75.9117 195.18C76.0701 195.26 76.1933 195.462 76.2637 195.753C76.4838 196.65 76.0437 197.548 75.6036 198.182C75.2956 197.997 74.8291 197.654 74.5739 197.082C74.4419 196.791 74.169 196.184 74.5123 195.691ZM70.2788 216.876C70.3229 218.24 70.2788 218.918 69.8828 219.613C69.4427 220.379 68.9322 220.801 68.369 220.872C67.4888 220.977 66.6967 220.159 66.6175 220.062C65.3325 218.636 66.7847 215.186 69.5483 210.09C69.5835 210.028 69.6099 209.975 69.6452 209.923C69.742 210.926 69.8388 211.965 69.9532 213.038C70.0852 214.42 70.2436 215.855 70.2788 216.876ZM166.732 208.488C164.999 208.18 164.18 206.481 164.092 206.288C163.221 204.413 163.907 201.896 165.879 200.083C165.967 200.69 166.169 201.482 166.644 202.283C168.079 204.721 170.816 205.276 171.371 205.381C170.473 207.582 168.484 208.805 166.732 208.488ZM171.899 203.938C171.582 204.184 169.206 203.41 168.229 202.178C167.815 201.658 167.19 200.681 167.586 199.995C167.841 199.555 168.387 199.255 169.047 199.194C169.144 199.185 169.25 199.176 169.346 199.185C170.015 199.194 170.649 199.449 171.01 199.872C171.969 200.963 172.11 203.735 171.899 203.938ZM186.06 218.354C185.444 218.962 184.432 218.874 184.053 218.812C184.045 218.478 184.098 217.853 184.573 217.377C184.995 216.955 185.444 216.779 185.84 216.867C185.893 216.876 186.324 216.99 186.465 217.307C186.65 217.729 186.201 218.214 186.06 218.354Z" fill="white"/>
<path d="M117.103 63.9807L117.039 59.1211C119.519 59.0903 124.351 56.7942 126.81 55.3541L129.265 59.5455C128.505 59.9936 121.677 63.9204 117.103 63.9807Z" fill="#F7BE39"/>
<path d="M176.002 21.755L174.89 24.8905C173.29 24.3248 169.645 24.6512 167.724 24.9898L167.141 21.7131C167.735 21.6067 173.05 20.707 176.002 21.755Z" fill="#F7BE39"/>
<path d="M129.948 83.0952C130.021 82.0813 130.033 81.0341 130.045 80.0203C130.057 78.8847 130.069 77.7086 130.167 76.5393C130.401 73.7793 131.108 71.6411 132.333 70.0022C133.928 67.8673 136.465 66.7338 138.799 67.1096C139.446 67.2119 140.079 67.4542 140.658 67.8099C141.577 67.377 142.62 67.1005 143.725 67.0095C146.087 66.8185 148.457 67.4206 150.548 67.9504L150.163 69.518C148.102 68.994 145.97 68.4565 143.88 68.6237C143.296 68.6707 142.661 68.7921 142.038 69.0053C142.131 69.1154 142.216 69.2324 142.301 69.3493C143.042 70.4095 143.321 71.6208 143.082 72.7604C142.849 73.8887 141.934 74.9246 140.806 75.3421C139.891 75.6781 138.955 75.5639 138.235 75.0307C136.84 73.9968 136.87 71.9679 137.604 70.5817C137.953 69.9196 138.447 69.3294 139.05 68.8254C138.888 68.773 138.725 68.7307 138.559 68.7056C136.845 68.428 134.871 69.3412 133.652 70.976C132.611 72.3699 132.004 74.2388 131.796 76.6927C131.703 77.7985 131.69 78.9441 131.68 80.0551C131.669 81.0922 131.658 82.1655 131.581 83.2285L129.948 83.0952ZM140.525 69.7485C139.922 70.1568 139.398 70.6862 139.045 71.3539C138.627 72.1403 138.569 73.2767 139.198 73.7448C139.535 73.9966 139.94 73.9327 140.217 73.831C140.837 73.6017 141.358 73.0229 141.479 72.4227C141.626 71.7223 141.438 70.9557 140.957 70.2669C140.829 70.0784 140.685 69.9065 140.525 69.7485Z" fill="#FF7676"/>
<path d="M104.665 70.2843C105.233 70.7951 105.848 71.2855 106.443 71.7607C107.111 72.292 107.802 72.8419 108.45 73.4397C109.978 74.852 110.919 76.2577 111.325 77.7402C111.854 79.6711 111.355 81.6977 110.056 82.9074C109.697 83.2437 109.261 83.5074 108.783 83.6862C108.615 84.431 108.298 85.1767 107.841 85.8739C106.865 87.3617 105.414 88.4884 104.135 89.4836L103.383 88.532C104.645 87.5522 105.948 86.5365 106.813 85.2204C107.055 84.8529 107.276 84.4202 107.437 83.9527C107.329 83.9569 107.22 83.9534 107.112 83.9499C106.142 83.8995 105.295 83.5059 104.73 82.8384C104.168 82.1798 103.977 81.1593 104.25 80.298C104.473 79.6008 104.972 79.0986 105.621 78.9178C106.877 78.5683 108.066 79.522 108.549 80.5968C108.78 81.1097 108.902 81.6747 108.923 82.2648C109.028 82.193 109.129 82.1155 109.22 82.0288C110.176 81.1409 110.546 79.5497 110.139 78.0726C109.794 76.8122 108.966 75.5899 107.607 74.3345C106.995 73.7691 106.322 73.2321 105.668 72.7135C105.058 72.2288 104.427 71.7267 103.833 71.1905L104.665 70.2843ZM107.695 82.7128C107.731 82.1669 107.659 81.6122 107.426 81.0948C107.153 80.4839 106.506 79.9254 105.939 80.0821C105.634 80.1653 105.485 80.4352 105.417 80.6462C105.267 81.1197 105.37 81.6956 105.669 82.0444C106.017 82.4545 106.558 82.6972 107.188 82.73C107.359 82.741 107.528 82.7346 107.695 82.7128Z" fill="#FDB73B"/>
<path d="M139.441 51.5701C138.924 52.2172 137.979 52.3181 137.333 51.801C136.686 51.2839 136.585 50.3392 137.103 49.6922C137.62 49.0451 138.564 48.9442 139.211 49.4613C139.856 49.9825 139.962 50.9253 139.441 51.5701Z" fill="white"/>
</svg>
