<svg width="172" height="97" viewBox="0 0 172 97" fill="none" xmlns="http://www.w3.org/2000/svg">
<path d="M28.5978 22L29.1244 25.2058C27.4895 25.476 24.5264 27.4728 23.0426 28.6681L21 26.1401C21.458 25.7691 25.5797 22.4946 28.5978 22Z" fill="#F7BE39"/>
<path d="M146.598 4L147.124 7.20581C145.489 7.47601 142.526 9.47277 141.043 10.6681L139 8.14007C139.458 7.76911 143.58 4.49461 146.598 4Z" fill="#F7BE39"/>
<path d="M17.5259 85.7101C17.0792 84.7274 16.5604 83.7446 16.0587 82.7927C15.4951 81.7275 14.911 80.6245 14.4093 79.4836C13.2272 76.7896 12.7942 74.4323 13.0897 72.2744C13.4746 69.4635 15.2305 67.1028 17.5637 66.254C18.2098 66.0169 18.9142 65.9173 19.6255 65.9516C20.2509 65.0754 21.0687 64.2816 22.0378 63.6287C24.1098 62.2371 26.5908 61.5807 28.7797 61L29.2195 62.6597C27.0616 63.2301 24.8314 63.8246 22.9965 65.0548C22.4845 65.3984 21.9622 65.8382 21.4983 66.3571C21.6391 66.4121 21.7766 66.4774 21.914 66.5427C23.1305 67.1509 23.9999 68.1371 24.3572 69.3226C24.7146 70.4944 24.3985 71.9307 23.5738 72.8998C22.9037 73.6832 21.9862 74.0578 21.055 73.9306C19.2509 73.6832 18.251 71.7761 18.2235 70.1061C18.2098 69.3089 18.3644 68.5048 18.6633 67.7248C18.4881 67.7591 18.3163 67.8038 18.1513 67.8656C16.4367 68.4876 15.0862 70.3535 14.7941 72.5046C14.5433 74.3396 14.9316 76.3944 15.9831 78.7895C16.4573 79.8685 17.0243 80.944 17.5775 81.9852C18.0929 82.9577 18.6255 83.9645 19.0929 84.9954L17.5259 85.7101ZM20.4846 67.8278C20.1375 68.5185 19.9245 69.2814 19.9382 70.0855C19.9519 71.0339 20.4743 72.1232 21.2886 72.2366C21.7251 72.2984 22.0652 72.0304 22.268 71.7933C22.7216 71.2607 22.9071 70.4531 22.7147 69.8312C22.4948 69.1027 21.9347 68.4842 21.1443 68.089C20.9313 67.979 20.7114 67.8931 20.4846 67.8278Z" fill="#E6563E"/>
<path d="M166.939 72.8045C167.166 72.0964 167.43 71.3882 167.685 70.7024C167.971 69.9349 168.268 69.1401 168.522 68.3181C169.123 66.3769 169.343 64.6784 169.193 63.1236C168.997 61.0982 168.105 59.3973 166.92 58.7857C166.592 58.6149 166.234 58.5431 165.873 58.5678C165.555 57.9365 165.14 57.3645 164.648 56.8941C163.595 55.8913 162.335 55.4184 161.223 55L161 56.1959C162.096 56.6069 163.229 57.0352 164.161 57.9216C164.421 58.1692 164.686 58.4861 164.922 58.86C164.85 58.8996 164.78 58.9466 164.711 58.9937C164.093 59.4319 163.651 60.1425 163.47 60.9967C163.288 61.841 163.449 62.876 163.868 63.5742C164.208 64.1387 164.674 64.4086 165.147 64.317C166.063 64.1387 166.571 62.7645 166.585 61.5612C166.592 60.9868 166.514 60.4075 166.362 59.8454C166.451 59.8702 166.538 59.9024 166.622 59.9469C167.493 60.3951 168.179 61.7395 168.327 63.2894C168.454 64.6116 168.257 66.0922 167.723 67.8179C167.482 68.5954 167.194 69.3703 166.913 70.1206C166.651 70.8212 166.381 71.5467 166.144 72.2895L166.939 72.8045ZM165.437 59.9197C165.613 60.4174 165.721 60.967 165.714 61.5464C165.707 62.2297 165.442 63.0146 165.028 63.0963C164.807 63.1409 164.634 62.9478 164.531 62.7769C164.3 62.3932 164.206 61.8113 164.304 61.3632C164.416 60.8383 164.7 60.3926 165.102 60.1079C165.21 60.0286 165.322 59.9667 165.437 59.9197Z" fill="#E6563E"/>
<path d="M11.9778 15.344C11.8371 16.4325 11.0583 17.1581 10.242 16.9705C9.42563 16.7828 8.88141 15.7444 9.02216 14.6559C9.16291 13.5675 9.94171 12.8419 10.758 13.0295C11.5744 13.2235 12.1186 14.2556 11.9778 15.344Z" fill="white"/>
<path d="M148.978 25.344C148.837 26.4325 148.058 27.1581 147.242 26.9705C146.426 26.7828 145.881 25.7444 146.022 24.6559C146.163 23.5675 146.942 22.8419 147.758 23.0295C148.574 23.2235 149.119 24.2556 148.978 25.344Z" fill="white"/>
<path d="M11.7518 39.4906L9.65808 38.8109L9.89227 41L8.89461 39.0359L7.51288 40.7562L8.19204 38.6563L6 38.8953L7.96253 37.8922L6.24824 36.5094L8.34192 37.1891L8.10773 35L9.10539 36.9641L10.4871 35.2438L9.80796 37.3437L12 37.1047L10.0375 38.1078L11.7518 39.4906Z" fill="white"/>
<path d="M171.752 30.4906L169.658 29.8109L169.892 32L168.895 30.0359L167.513 31.7562L168.192 29.6563L166 29.8953L167.963 28.8922L166.248 27.5094L168.342 28.1891L168.108 26L169.105 27.9641L170.487 26.2438L169.808 28.3437L172 28.1047L170.037 29.1078L171.752 30.4906Z" fill="white"/>
<path d="M5.75176 95.4871L3.65808 94.808L3.89227 97L2.89461 95.0375L1.51288 96.7518L2.19204 94.6581L0 94.8923L1.96253 93.8946L0.248243 92.5129L2.34192 93.192L2.10773 91L3.10539 92.9625L4.48712 91.2482L3.80796 93.3419L6 93.1077L4.03747 94.1054L5.75176 95.4871Z" fill="white"/>
<path d="M150.752 90.9461L148.658 90.2669L148.892 92.459L147.895 90.4965L146.513 92.2107L147.192 90.1171L145 90.3513L146.963 89.3536L145.248 87.9719L147.342 88.651L147.108 86.459L148.105 88.4215L149.487 86.7072L148.808 88.8009L151 88.5667L149.037 89.5644L150.752 90.9461Z" fill="white"/>
<path d="M38.7518 4.48712L36.6581 3.80796L36.8923 6L35.8899 4.03278L34.5082 5.75176L35.192 3.65339L33 3.89227L34.9625 2.88993L33.2436 1.50819L35.3419 2.19203L35.103 0L36.1054 1.96253L37.4871 0.243558L36.808 2.34192L39 2.10304L37.0328 3.10539L38.7518 4.48712Z" fill="#E6563E"/>
<path d="M144.752 59.4871L142.658 58.808L142.892 61L141.89 59.0328L140.508 60.7518L141.192 58.6534L139 58.8923L140.963 57.8899L139.244 56.5082L141.342 57.192L141.103 55L142.105 56.9625L143.487 55.2436L142.808 57.3419L145 57.103L143.033 58.1054L144.752 59.4871Z" fill="#E6563E"/>
<path d="M46.9307 43.3026H105.565V83.9804C105.565 84.8552 105.218 85.6941 104.599 86.3126C103.981 86.9312 103.142 87.2786 102.267 87.2786H50.2289C49.3541 87.2786 48.5152 86.9312 47.8967 86.3126C47.2782 85.6941 46.9307 84.8552 46.9307 83.9804V43.3026Z" fill="#FFC73B"/>
<path d="M105.565 44.4203V64.4679L82.8809 43.3026H104.367L105.565 44.4203Z" fill="#C7830B"/>
<path d="M105.564 59.4235V64.4642L100.163 59.4235H105.564Z" fill="#C7830B"/>
<path d="M91.0728 4.18471L90.2909 4.47568C89.1396 4.90427 88.1039 5.59503 87.2657 6.49326C86.4276 7.39149 85.8101 8.47252 85.4622 9.65074L84.7261 12.1427L83.5337 12.7928C81.6901 13.7958 80.3205 15.4901 79.7261 17.5028L93.6593 30.5033L101.659 21.9279L102.071 12.1746C102.12 10.9987 101.915 9.82596 101.469 8.73691C101.022 7.64785 100.346 6.66825 99.4852 5.86532C98.3774 4.83166 97.0036 4.12693 95.5177 3.83009C94.0319 3.53326 92.4928 3.65605 91.0728 4.18471Z" fill="#FF4440"/>
<path d="M128.665 39.2607L128.429 40.0607C128.081 41.2389 127.464 42.3199 126.625 43.2182C125.787 44.1164 124.752 44.8072 123.6 45.2357L121.165 46.1424L120.6 47.377C120.168 48.322 119.553 49.1727 118.792 49.8803C118.031 50.5879 117.138 51.1387 116.165 51.5012L102.231 38.501L110.232 29.9268L119.933 28.8415C121.103 28.7106 122.287 28.8344 123.404 29.2043C124.522 29.5742 125.546 30.1814 126.406 30.9844C127.514 32.0181 128.312 33.3399 128.711 34.8017C129.11 36.2635 129.094 37.8075 128.665 39.2607Z" fill="#FF4440"/>
<path d="M70.3853 43.3026H82.1122V87.2786H70.3853V43.3026Z" fill="#FF4440"/>
<path d="M46.9307 59.4235H105.565V71.1504H46.9307V59.4235Z" fill="#FF4440"/>
<path d="M105.564 59.4235V64.4642L100.163 59.4235H105.564Z" fill="#CB2527"/>
<path d="M75.7093 13.7433L120.179 55.2317C120.818 55.8283 121.194 56.6545 121.225 57.5284C121.255 58.4024 120.937 59.2527 120.34 59.8921L112.592 68.1966L63.3011 22.2094L71.049 13.9049C71.6455 13.2654 72.4717 12.8892 73.3457 12.8589C74.2197 12.8286 75.0699 13.1467 75.7093 13.7433Z" fill="#FFC73B"/>
<path d="M92.5889 29.4856L103.304 39.4828L93.3071 50.1983L82.5916 40.2011L92.5889 29.4856Z" fill="#CB2527"/>
<path d="M97.6583 27.6821C97.4333 27.6824 97.2113 27.6309 97.0094 27.5315C96.8076 27.432 96.6314 27.2874 96.4946 27.1088L95.528 25.8499C92.425 21.8239 91.0008 16.753 91.5539 11.7001C91.5741 11.5084 91.6319 11.3226 91.7241 11.1533C91.8162 10.9839 91.9409 10.8345 92.0908 10.7134C92.2408 10.5923 92.4132 10.502 92.5982 10.4476C92.7831 10.3932 92.9769 10.3758 93.1686 10.3965C93.3602 10.4171 93.546 10.4754 93.7151 10.5679C93.8842 10.6604 94.0334 10.7853 94.1542 10.9356C94.2749 11.0858 94.3649 11.2584 94.4189 11.4434C94.4729 11.6285 94.4898 11.8224 94.4688 12.014C93.9978 16.3172 95.2107 20.6357 97.8533 24.0645L98.8198 25.3233C98.9865 25.5403 99.0891 25.7995 99.116 26.0718C99.143 26.344 99.0932 26.6184 98.9723 26.8638C98.8515 27.1092 98.6644 27.3159 98.4321 27.4605C98.1999 27.6052 97.9319 27.6819 97.6583 27.6821Z" fill="#CB2527"/>
<path d="M93.6596 30.5013L93.599 30.5239C87.5567 32.7731 81.1258 33.7918 74.6841 33.5203L70.9414 33.3623L77.3729 39.3625L75.5166 45.6498L81.3769 43.7535C86.9953 41.9357 92.2333 39.1046 96.8319 35.4001L97.9476 34.5013L93.6596 30.5013Z" fill="#FF4440"/>
<path d="M117.64 39.6092C113.763 39.6086 109.972 38.4619 106.745 36.3134L105.422 35.4361C105.1 35.2203 104.877 34.8859 104.801 34.5058C104.725 34.1258 104.802 33.7311 105.017 33.4081C105.231 33.0851 105.564 32.8601 105.944 32.7823C106.324 32.7045 106.719 32.7802 107.043 32.9928L108.365 33.8702C111.969 36.2691 116.361 37.1803 120.621 36.4127C120.811 36.3776 121.006 36.3804 121.195 36.421C121.384 36.4615 121.563 36.5391 121.722 36.6491C121.881 36.7591 122.017 36.8995 122.121 37.0622C122.226 37.2248 122.297 37.4065 122.331 37.5967C122.365 37.787 122.361 37.9821 122.319 38.1708C122.277 38.3595 122.198 38.5381 122.087 38.6963C121.976 38.8545 121.835 38.9891 121.672 39.0926C121.509 39.196 121.327 39.2661 121.136 39.2988C119.982 39.5051 118.812 39.6089 117.64 39.6092Z" fill="#CB2527"/>
<path d="M102.232 38.503L102.214 38.5651C100.388 44.7484 99.8165 51.2344 100.533 57.6417L100.95 61.3646L94.5181 55.3645L88.3745 57.6514L89.8605 51.674C91.2853 45.9432 93.7473 40.5217 97.1248 35.6777L97.9442 34.5024L102.232 38.503Z" fill="#FF4440"/>
<path d="M63.0572 9.58601C64.6764 9.58601 65.989 8.27342 65.989 6.65427C65.989 5.03512 64.6764 3.72253 63.0572 3.72253C61.4381 3.72253 60.1255 5.03512 60.1255 6.65427C60.1255 8.27342 61.4381 9.58601 63.0572 9.58601Z" fill="#6699CE"/>
<path d="M46.9317 43.3007C48.5509 43.3007 49.8635 41.9881 49.8635 40.369C49.8635 38.7498 48.5509 37.4373 46.9317 37.4373C45.3126 37.4373 44 38.7498 44 40.369C44 41.9881 45.3126 43.3007 46.9317 43.3007Z" fill="#FAA6B2"/>
<path d="M52.7937 11.0519C52.4861 11.0518 52.1862 10.955 51.9367 10.775C51.6872 10.5951 51.5006 10.3413 51.4033 10.0494L51.3278 9.82421C51.021 8.9007 50.4309 8.09736 49.6415 7.52831C48.8521 6.95925 47.9034 6.65343 46.9302 6.65427C46.5415 6.65427 46.1686 6.49983 45.8937 6.22493C45.6188 5.95003 45.4644 5.57718 45.4644 5.18841C45.4644 4.79963 45.6188 4.42678 45.8937 4.15188C46.1686 3.87698 46.5415 3.72254 46.9302 3.72254C48.5188 3.72106 50.0675 4.22022 51.3562 5.14909C52.6449 6.07797 53.6082 7.38932 54.1091 8.89687L54.1843 9.12224C54.2575 9.3426 54.2774 9.57719 54.2423 9.80672C54.2071 10.0363 54.118 10.2542 53.9823 10.4426C53.8465 10.6309 53.668 10.7844 53.4614 10.8903C53.2547 10.9963 53.0259 11.0516 52.7937 11.0519Z" fill="#A6DEFF"/>
<path d="M60.1235 36.9224C59.8412 36.9225 59.5649 36.8406 59.3281 36.6868L59.0377 36.4988C58.5277 36.166 57.9346 35.9827 57.3258 35.9698C56.7169 35.9568 56.1166 36.1147 55.5929 36.4255C55.4271 36.5232 55.2436 36.5873 55.053 36.6142C54.8623 36.641 54.6683 36.63 54.4819 36.5818C54.2955 36.5337 54.1205 36.4493 53.9667 36.3334C53.8129 36.2176 53.6835 36.0726 53.5858 35.9068C53.488 35.7409 53.4239 35.5574 53.3971 35.3668C53.3703 35.1762 53.3813 34.9822 53.4294 34.7958C53.4776 34.6094 53.562 34.4343 53.6778 34.2806C53.7937 34.1268 53.9387 33.9974 54.1045 33.8996C55.0967 33.3103 56.2342 33.0109 57.3879 33.0352C58.5417 33.0595 59.6655 33.4067 60.632 34.0372L60.9224 34.2252C61.1882 34.3971 61.3911 34.6504 61.501 34.9473C61.6108 35.2441 61.6217 35.5685 61.5318 35.872C61.442 36.1754 61.2564 36.4417 61.0027 36.631C60.7491 36.8202 60.4409 36.9223 60.1245 36.9219L60.1235 36.9224Z" fill="#A6DEFF"/>
<path d="M67.8619 40.2773L66.355 46.2066L70.3851 50.8092L64.2803 51.2083L61.1483 56.4634L58.8822 50.7808L52.9165 49.426L57.6207 45.5149L57.0658 39.4224L62.2391 42.6878L67.8619 40.2773Z" fill="#B39ADB"/>
<path d="M102.234 38.503L93.6597 30.5028L101.66 21.9275C103.612 22.504 105.403 23.527 106.891 24.9156C108.379 26.3042 109.524 28.0203 110.234 29.9278L102.234 38.503Z" fill="#F72D2F"/>
<path d="M49.8957 13.4614L54.4223 17.617L60.4117 16.2438L57.8583 21.833L61.0149 27.1048L54.9105 26.4036L50.872 31.0348L49.6526 25.0125L44 22.6028L49.3508 19.582L49.8957 13.4614Z" fill="#7372C2"/>
</svg>
