<svg width="35" height="34" viewBox="0 0 35 34" fill="none" xmlns="http://www.w3.org/2000/svg">
<path d="M21.8496 23.1517C16.2239 23.1517 11.6635 18.6279 11.6635 13.0474C11.6635 8.31006 14.9533 4.33513 19.3911 3.24168C18.1776 2.9432 16.9112 2.78336 15.6064 2.78336C6.98752 2.78336 0 9.7133 0 18.2615C0 26.8111 6.98752 33.7439 15.6064 33.7439C24.2253 33.7439 31.2115 26.8126 31.2115 18.2615C31.2115 17.8782 31.1943 17.5033 31.1658 17.1284C29.5843 20.6762 26.0093 23.1517 21.8496 23.1517Z" fill="#FDB73B"/>
<path d="M31.1688 17.1305C30.0765 19.5848 28.0273 21.5255 25.4889 22.4903C22.8879 26.5501 18.3132 29.2915 13.1866 29.2915C7.71496 29.2915 2.86646 26.1667 0.382324 21.6472C1.93954 28.5672 8.16271 33.7446 15.6108 33.7446C24.2297 33.7446 31.2159 26.8132 31.2159 18.2621C31.2144 17.8802 31.1973 17.5054 31.1688 17.1305Z" fill="#FDB73B"/>
<path d="M20.8978 10.3057L22.0386 12.6002L24.5897 12.9665L22.7445 14.7531L23.1794 17.2739L20.8978 16.0856L18.6147 17.2739L19.0525 14.7531L17.2058 12.9665L19.7584 12.6002L20.8978 10.3057Z" fill="#FDB73B"/>
<path d="M22.7768 14.7184C22.6641 14.7297 22.5501 14.7396 22.4274 14.7396C20.8103 14.7396 19.9704 13.5485 19.9005 12.3094L19.7579 12.5979L17.2053 12.9643L19.052 14.7509L18.6156 17.2716L20.8987 16.0834L23.1804 17.2716L22.7454 14.7509L22.7768 14.7184Z" fill="#FDB73B"/>
<path d="M25.8673 0L27.0081 2.2916L29.5592 2.65938L27.7125 4.44598L28.1489 6.96532L25.8673 5.77708L23.5871 6.96532L24.022 4.44598L22.1753 2.65938L24.7265 2.2916L25.8673 0Z" fill="#FDB73B"/>
<path d="M27.7485 4.41323C27.6344 4.42313 27.5174 4.43444 27.3977 4.43444C25.7805 4.43444 24.9406 3.24197 24.8722 2.00281L24.7267 2.29138L22.1755 2.65917L24.0222 4.44576L23.5873 6.96652L25.869 5.77828L28.1506 6.96652L27.7142 4.44576L27.7485 4.41323Z" fill="#FDB73B"/>
<path d="M30.9295 7.61768L32.0704 9.91068L34.6215 10.2756L32.7762 12.0622L33.2126 14.5844L30.9295 13.3919L28.6479 14.5844L29.0842 12.0622L27.2375 10.2756L29.7887 9.91068L30.9295 7.61768Z" fill="#FDB73B"/>
<path d="M32.8091 12.0295C32.695 12.0422 32.5809 12.0507 32.4583 12.0507C30.8426 12.0507 30.0012 10.8596 29.9313 9.62048L29.7887 9.91047L27.2375 10.2768L29.0843 12.0634L28.6479 14.5856L30.931 13.3945L33.2141 14.5856L32.7777 12.0634L32.8091 12.0295Z" fill="#FDB73B"/>
</svg>
