<svg width="39" height="25" viewBox="0 0 39 25" fill="none" xmlns="http://www.w3.org/2000/svg">
<path d="M34.6834 14.8367C34.6818 14.7196 34.6755 14.5978 34.6723 14.4791C34.5909 12.5583 34.1363 10.6422 33.3308 8.88589C32.5301 7.1296 31.3848 5.53312 29.986 4.20245C28.5871 2.87336 26.9282 1.80693 25.1242 1.08859C23.3202 0.367082 21.3678 0 19.4362 0C17.5062 0 15.557 0.367082 13.753 1.08859C11.9458 1.80851 10.2885 2.87336 8.88962 4.20245C7.48915 5.53153 6.34709 7.1296 5.54317 8.88589C4.73926 10.6422 4.28307 12.5599 4.20331 14.4791C4.20012 14.5978 4.19375 14.7196 4.19216 14.8367L4.18896 15.1769V21.9758H5.94354V15.1769C5.94354 14.9902 5.94672 14.7608 5.95629 14.5519C6.02807 12.8542 6.43163 11.158 7.14303 9.60581C7.85124 8.05046 8.8641 6.63594 10.1051 5.45717C11.3444 4.27998 12.8135 3.33854 14.4101 2.7009C16.0052 2.06167 17.7295 1.74047 19.4394 1.74047C21.1525 1.74047 22.8767 2.06325 24.4734 2.7009C26.0701 3.33854 27.5375 4.27998 28.7769 5.45717C30.0162 6.63594 31.0275 8.05046 31.7389 9.60581C32.4519 11.158 32.8555 12.8542 32.9256 14.5519C32.9368 14.7608 32.9384 14.9902 32.9384 15.1769V21.9758H34.693V15.1769L34.6834 14.8367Z" fill="#F389B8"/>
<path d="M32.9177 14.5516C32.8476 12.8538 32.444 11.1577 31.731 9.60548C31.0212 8.05014 30.0099 6.63561 28.769 5.45684C27.5296 4.27965 26.0621 3.33821 24.4655 2.70057C22.8704 2.06134 21.1445 1.74014 19.4314 1.74014C17.7215 1.74014 15.9972 2.06292 14.4022 2.70057C12.8055 3.33821 11.3365 4.27965 10.0971 5.45684C8.85613 6.63561 7.84485 8.05014 7.13504 9.60548C6.42364 11.1577 6.02169 12.8538 5.94832 14.5516C5.93715 14.7604 5.93555 14.9899 5.93555 15.1766V21.9755H7.69012V15.1766C7.69172 15.0009 7.69332 14.8111 7.70289 14.6244C7.76351 13.145 8.11601 11.6751 8.73171 10.3238C9.349 8.97101 10.2295 7.74161 11.3109 6.71631C12.3908 5.68943 13.6669 4.86824 15.0562 4.31604C16.4439 3.76225 17.9416 3.47903 19.4314 3.47903C20.926 3.47903 22.4238 3.76225 23.8099 4.31604C25.1992 4.86824 26.4768 5.69101 27.5535 6.71631C28.6334 7.74161 29.5138 8.97101 30.1311 10.3238C30.75 11.6735 31.101 13.145 31.1632 14.6244C31.1711 14.8111 31.1727 15.0009 31.1743 15.1766V21.9755H32.9273V15.1766C32.9305 14.9899 32.9289 14.7604 32.9177 14.5516Z" fill="#FFD87D"/>
<path d="M31.1673 14.6243C31.1051 13.1449 30.7542 11.675 30.1353 10.3238C29.518 8.97097 28.6375 7.74157 27.5577 6.71628C26.481 5.6894 25.2034 4.86821 23.8141 4.31601C22.4279 3.76222 20.9302 3.479 19.4356 3.479C17.9458 3.479 16.4481 3.76222 15.0603 4.31601C13.671 4.86821 12.3934 5.69098 11.3151 6.71628C10.2353 7.74157 9.3548 8.97097 8.73592 10.3238C8.11863 11.6734 7.76772 13.1449 7.70711 14.6243C7.69754 14.811 7.69593 15.0009 7.69434 15.1765V21.9754H9.4537L9.45849 14.6987C9.51272 13.4376 9.8094 12.1893 10.3342 11.0421C10.8574 9.89184 11.6086 8.84439 12.529 7.971C13.4477 7.09918 14.534 6.39983 15.7143 5.93148C16.8931 5.45839 18.1628 5.21947 19.4356 5.21947C20.7117 5.21947 21.9813 5.45839 23.1601 5.93148C24.3388 6.39824 25.4267 7.0976 26.347 7.971C27.2658 8.84281 28.017 9.89184 28.5402 11.0421C29.065 12.1893 29.3617 13.4376 29.4159 14.6987L29.4207 21.9754H31.1801V15.1765C31.1769 14.9993 31.1753 14.8095 31.1673 14.6243Z" fill="#83CFCC"/>
<path d="M29.4139 14.6991C29.3613 13.4381 29.063 12.1897 28.5382 11.0426C28.015 9.89228 27.2638 8.84484 26.345 7.97144C25.4246 7.09962 24.3384 6.40027 23.1581 5.93192C21.9793 5.45883 20.7097 5.21991 19.4336 5.21991C18.1607 5.21991 16.891 5.45883 15.7123 5.93192C14.5319 6.39868 13.4457 7.09804 12.527 7.97144C11.6066 8.84326 10.8553 9.89228 10.3321 11.0426C9.80736 12.1897 9.51068 13.4381 9.45645 14.6991L9.45166 21.9759H11.2046L11.2078 14.7703C11.2525 13.7292 11.4965 12.7039 11.9288 11.7578C12.3595 10.8132 12.9784 9.94608 13.7376 9.22932C15.2529 7.77682 17.3233 6.95089 19.4304 6.9588C21.5423 6.95089 23.6111 7.7784 25.128 9.22932C25.8872 9.94608 26.5061 10.8132 26.9368 11.7578C27.3707 12.7039 27.6147 13.7292 27.6578 14.7703L27.6625 21.9759H29.4155L29.4139 14.6991Z" fill="#78D2F7"/>
<path d="M27.6592 14.7699C27.6161 13.7288 27.3721 12.7035 26.9383 11.7574C26.5076 10.8128 25.8887 9.94568 25.1294 9.22892C23.6125 7.77642 21.5437 6.95049 19.4318 6.9584C17.3248 6.95049 15.2543 7.778 13.739 9.22892C12.9798 9.94568 12.3609 10.8128 11.9302 11.7574C11.498 12.7035 11.2539 13.7288 11.2092 14.7699L11.2061 21.9755H12.9606L12.9638 14.8475C13.026 13.2051 13.7502 11.626 14.9561 10.4852C16.1572 9.33968 17.7714 8.69571 19.4366 8.70045C21.1067 8.69571 22.7177 9.33968 23.9204 10.4852C25.1246 11.626 25.8488 13.2051 25.911 14.8475L25.9142 21.9755H27.6672L27.6592 14.7699Z" fill="#B57FB8"/>
<path d="M16.9146 21.221C16.7662 20.5058 16.3738 19.9014 15.8395 19.5644C15.3355 19.2464 14.7485 19.0723 14.1583 19.0613C14.1774 19.0391 14.1966 19.0185 14.2157 18.9964C14.5156 18.6261 14.6496 18.1625 14.5969 17.6926C14.5443 17.2243 14.3114 16.7986 13.9366 16.5028C13.482 16.1436 12.9094 15.9759 12.3272 16.0408C11.8981 16.0898 11.5009 16.2544 11.1755 16.5249C11.1707 16.4775 11.1707 16.4331 11.1643 16.3873C11.0926 15.7892 10.7863 15.2512 10.3078 14.8778C9.82928 14.5076 9.23114 14.3414 8.62661 14.4126C7.50369 14.5455 6.59129 15.343 6.27706 16.3746C5.97241 15.8873 5.43169 15.5629 4.8128 15.5629C3.65479 15.5629 2.71369 16.498 2.71369 17.6483C2.71369 18.0075 2.78866 18.3556 2.93062 18.6799C2.44731 18.5882 1.94488 18.6451 1.4855 18.8461C0.888945 19.1103 0.434344 19.5881 0.201464 20.1941C-0.0872426 20.9362 -0.0649093 21.7479 0.263674 22.4741C0.589068 23.2004 1.18402 23.7605 1.9353 24.0437C1.95604 24.0548 1.97518 24.0548 1.99751 24.0548L14.7389 24.0611C14.8091 24.0706 14.8777 24.0722 14.9494 24.0722C15.0914 24.0722 15.235 24.058 15.3769 24.0263C15.8889 23.9156 16.326 23.6118 16.6083 23.1735C16.9513 22.6434 17.0629 21.9314 16.9146 21.221Z" fill="#B39ADB"/>
<path opacity="0.61" d="M16.1346 19.7925C14.8873 21.8399 12.6191 23.2323 10.0702 23.2323C6.34255 23.2323 3.20986 20.2498 3.00251 16.5964C2.81907 16.9081 2.71539 17.2673 2.71539 17.6502C2.71539 18.0093 2.79035 18.3574 2.93231 18.6818C2.44901 18.59 1.94658 18.647 1.4872 18.8479C0.89065 19.1121 0.436051 19.59 0.203172 20.196C-0.0855332 20.9381 -0.0632 21.7497 0.265382 22.476C0.590774 23.2022 1.18573 23.7624 1.937 24.0456C1.95774 24.0567 1.97688 24.0567 1.99921 24.0567L14.7405 24.063C14.8107 24.0725 14.8793 24.0741 14.9511 24.0741C15.093 24.0741 15.2366 24.0598 15.3786 24.0282C15.8906 23.9174 16.3276 23.6136 16.61 23.1753C16.9497 22.6437 17.0613 21.9317 16.9146 21.2213C16.795 20.6453 16.519 20.1406 16.1346 19.7925Z" fill="#B39ADB"/>
<path d="M38.8042 21.221C38.6559 20.5058 38.2635 19.9014 37.7324 19.5644C37.2267 19.2464 36.6397 19.0723 36.048 19.0613C36.0671 19.0391 36.0879 19.0185 36.1054 18.9964C36.4053 18.6261 36.5408 18.1625 36.4882 17.6926C36.4356 17.2243 36.2011 16.7986 35.8263 16.5028C35.3717 16.1436 34.799 15.9759 34.2168 16.0408C33.7878 16.0898 33.3906 16.2544 33.0668 16.5249C33.0636 16.4775 33.062 16.4331 33.054 16.3873C32.9822 15.7892 32.6776 15.2512 32.1975 14.8778C31.719 14.5076 31.1208 14.3414 30.5179 14.4126C29.395 14.5455 28.4826 15.343 28.1683 16.3746C27.8637 15.8873 27.3213 15.5629 26.7056 15.5629C25.5444 15.5629 24.6034 16.498 24.6034 17.6483C24.6034 18.0075 24.6783 18.3556 24.8219 18.6799C24.3386 18.5882 23.8377 18.6451 23.3784 18.8461C22.7818 19.1103 22.3272 19.5881 22.0943 20.1941C21.8072 20.9362 21.8295 21.7479 22.1565 22.4741C22.4835 23.2004 23.0769 23.7605 23.8282 24.0437C23.8489 24.0548 23.8696 24.0548 23.8904 24.0548L36.6333 24.0611C36.7035 24.0706 36.7737 24.0722 36.8423 24.0722C36.9843 24.0722 37.1294 24.058 37.2698 24.0263C37.785 23.9156 38.2189 23.6118 38.5012 23.1735C38.8393 22.6434 38.9526 21.9314 38.8042 21.221Z" fill="#B39ADB"/>
<path opacity="0.61" d="M38.0239 19.7925C36.7766 21.8399 34.5068 23.2323 31.9579 23.2323C28.2302 23.2323 25.0975 20.2498 24.8901 16.5964C24.7067 16.9081 24.6014 17.2673 24.6014 17.6502C24.6014 18.0093 24.6764 18.3574 24.8199 18.6818C24.3366 18.59 23.8358 18.647 23.3764 18.8479C22.7798 19.1121 22.3252 19.59 22.0924 20.196C21.8052 20.9381 21.8276 21.7497 22.1546 22.476C22.4816 23.2022 23.0749 23.7624 23.8262 24.0456C23.8469 24.0567 23.8677 24.0567 23.8884 24.0567L36.6314 24.063C36.7016 24.0725 36.7717 24.0741 36.8403 24.0741C36.9823 24.0741 37.1275 24.0598 37.2678 24.0282C37.783 23.9174 38.2169 23.6136 38.4992 23.1753C38.8422 22.6437 38.9538 21.9317 38.8055 21.2213C38.6826 20.6453 38.4067 20.1406 38.0239 19.7925Z" fill="#B39ADB"/>
</svg>
