<svg width="39" height="25" viewBox="0 0 39 25" fill="none" xmlns="http://www.w3.org/2000/svg">
<path d="M34.6819 14.8367C34.6804 14.7196 34.674 14.5978 34.6708 14.4791C34.5895 12.5583 34.1348 10.6422 33.3293 8.88589C32.5286 7.1296 31.3834 5.53312 29.9845 4.20245C28.5856 2.87336 26.9268 1.80693 25.1227 1.08859C23.3187 0.367082 21.3664 0 19.4347 0C17.5047 0 15.5555 0.367082 13.7515 1.08859C11.9443 1.80851 10.287 2.87336 8.88815 4.20245C7.48769 5.53153 6.34562 7.1296 5.54171 8.88589C4.7378 10.6422 4.2816 12.5599 4.20185 14.4791C4.19866 14.5978 4.19229 14.7196 4.19069 14.8367L4.1875 15.1769V21.9758H5.94207V15.1769C5.94207 14.9902 5.94525 14.7608 5.95483 14.5519C6.0266 12.8542 6.43016 11.158 7.14156 9.60581C7.84977 8.05046 8.86263 6.63594 10.1036 5.45717C11.343 4.27998 12.812 3.33854 14.4087 2.7009C16.0037 2.06167 17.728 1.74047 19.4379 1.74047C21.151 1.74047 22.8753 2.06325 24.4719 2.7009C26.0686 3.33854 27.5361 4.27998 28.7754 5.45717C30.0148 6.63594 31.0261 8.05046 31.7375 9.60581C32.4505 11.158 32.854 12.8542 32.9242 14.5519C32.9353 14.7608 32.937 14.9902 32.937 15.1769V21.9758H34.6915V15.1769L34.6819 14.8367Z" fill="#F389B8"/>
<path d="M32.9163 14.5516C32.8461 12.8538 32.4425 11.1577 31.7295 9.60548C31.0197 8.05014 30.0085 6.63561 28.7675 5.45684C27.5281 4.27965 26.0607 3.33821 24.464 2.70057C22.8689 2.06134 21.1431 1.74014 19.43 1.74014C17.7201 1.74014 15.9958 2.06292 14.4007 2.70057C12.8041 3.33821 11.335 4.27965 10.0956 5.45684C8.85467 6.63561 7.84338 8.05014 7.13358 9.60548C6.42218 11.1577 6.02023 12.8538 5.94686 14.5516C5.93569 14.7604 5.93408 14.9899 5.93408 15.1766V21.9755H7.68866V15.1766C7.69025 15.0009 7.69186 14.8111 7.70143 14.6244C7.76204 13.145 8.11454 11.6751 8.73024 10.3238C9.34753 8.97101 10.228 7.74161 11.3095 6.71631C12.3893 5.68943 13.6654 4.86824 15.0547 4.31604C16.4424 3.76225 17.9402 3.47903 19.43 3.47903C20.9245 3.47903 22.4223 3.76225 23.8084 4.31604C25.1977 4.86824 26.4754 5.69101 27.552 6.71631C28.6319 7.74161 29.5124 8.97101 30.1297 10.3238C30.7485 11.6735 31.0995 13.145 31.1617 14.6244C31.1697 14.8111 31.1712 15.0009 31.1728 15.1766V21.9755H32.9258V15.1766C32.929 14.9899 32.9274 14.7604 32.9163 14.5516Z" fill="#FFD87D"/>
<path d="M31.1644 14.6238C31.1022 13.1444 30.7512 11.6745 30.1323 10.3233C29.5151 8.97048 28.6346 7.74108 27.5547 6.71579C26.4781 5.68891 25.2004 4.86772 23.8111 4.31552C22.425 3.76173 20.9273 3.47852 19.4327 3.47852C17.9429 3.47852 16.4451 3.76173 15.0574 4.31552C13.6681 4.86772 12.3905 5.6905 11.3122 6.71579C10.2324 7.74108 9.35187 8.97048 8.73299 10.3233C8.1157 11.673 7.76479 13.1444 7.70418 14.6238C7.69461 14.8105 7.693 15.0004 7.69141 15.176V21.9749H9.45077L9.45556 14.6982C9.50979 13.4372 9.80647 12.1888 10.3312 11.0416C10.8544 9.89135 11.6057 8.84391 12.5261 7.97051C13.4448 7.09869 14.531 6.39934 15.7114 5.93099C16.8901 5.4579 18.1598 5.21898 19.4327 5.21898C20.7087 5.21898 21.9784 5.4579 23.1571 5.93099C24.3359 6.39776 25.4237 7.09711 26.3441 7.97051C27.2628 8.84232 28.0141 9.89135 28.5373 11.0416C29.0621 12.1888 29.3587 13.4372 29.413 14.6982L29.4178 21.9749H31.1771V15.176C31.1739 14.9988 31.1724 14.809 31.1644 14.6238Z" fill="#83CFCC"/>
<path d="M29.4124 14.6991C29.3598 13.4381 29.0615 12.1897 28.5367 11.0426C28.0136 9.89228 27.2623 8.84484 26.3435 7.97144C25.4232 7.09962 24.3369 6.40027 23.1566 5.93192C21.9778 5.45883 20.7082 5.21991 19.4321 5.21991C18.1593 5.21991 16.8896 5.45883 15.7108 5.93192C14.5305 6.39868 13.4442 7.09804 12.5255 7.97144C11.6051 8.84326 10.8539 9.89228 10.3307 11.0426C9.8059 12.1897 9.50922 13.4381 9.45499 14.6991L9.4502 21.9759H11.2032L11.2064 14.7703C11.251 13.7292 11.4951 12.7039 11.9273 11.7578C12.358 10.8132 12.9769 9.94608 13.7361 9.22932C15.2515 7.77682 17.3219 6.95089 19.4289 6.9588C21.5408 6.95089 23.6096 7.7784 25.1265 9.22932C25.8858 9.94608 26.5047 10.8132 26.9353 11.7578C27.3692 12.7039 27.6132 13.7292 27.6563 14.7703L27.6611 21.9759H29.414L29.4124 14.6991Z" fill="#78D2F7"/>
<path d="M27.6563 14.7706C27.6132 13.7295 27.3692 12.7042 26.9353 11.758C26.5047 10.8134 25.8858 9.94632 25.1265 9.22956C23.6096 7.77706 21.5408 6.95113 19.4289 6.95904C17.3218 6.95113 15.2514 7.77864 13.7361 9.22956C12.9768 9.94632 12.358 10.8134 11.9273 11.758C11.495 12.7042 11.251 13.7295 11.2063 14.7706L11.2031 21.9761H12.9577L12.9609 14.8481C13.0231 13.2057 13.7473 11.6267 14.9531 10.4859C16.1542 9.34032 17.7685 8.69635 19.4337 8.70109C21.1037 8.69635 22.7147 9.34032 23.9174 10.4859C25.1217 11.6267 25.8459 13.2057 25.9081 14.8481L25.9113 21.9761H27.6642L27.6563 14.7706Z" fill="#B57FB8"/>
<path d="M16.9146 21.221C16.7662 20.5058 16.3738 19.9014 15.8395 19.5644C15.3355 19.2464 14.7485 19.0723 14.1583 19.0613C14.1774 19.0391 14.1966 19.0185 14.2157 18.9964C14.5156 18.6261 14.6496 18.1625 14.5969 17.6926C14.5443 17.2243 14.3114 16.7986 13.9366 16.5028C13.482 16.1436 12.9094 15.9759 12.3272 16.0408C11.8981 16.0898 11.5009 16.2544 11.1755 16.5249C11.1707 16.4775 11.1707 16.4331 11.1643 16.3873C11.0926 15.7892 10.7863 15.2512 10.3078 14.8778C9.82928 14.5076 9.23114 14.3414 8.62661 14.4126C7.50369 14.5455 6.59129 15.343 6.27706 16.3746C5.97241 15.8873 5.43169 15.5629 4.8128 15.5629C3.65479 15.5629 2.71369 16.498 2.71369 17.6483C2.71369 18.0075 2.78866 18.3556 2.93062 18.6799C2.44731 18.5882 1.94488 18.6451 1.4855 18.8461C0.888945 19.1103 0.434344 19.5881 0.201464 20.1941C-0.0872426 20.9362 -0.0649093 21.7479 0.263674 22.4741C0.589068 23.2004 1.18402 23.7605 1.9353 24.0437C1.95604 24.0548 1.97518 24.0548 1.99751 24.0548L14.7389 24.0611C14.8091 24.0706 14.8777 24.0722 14.9494 24.0722C15.0914 24.0722 15.235 24.058 15.3769 24.0263C15.8889 23.9156 16.326 23.6118 16.6083 23.1735C16.9513 22.6434 17.0629 21.9314 16.9146 21.221Z" fill="#51C6F3"/>
<path opacity="0.61" d="M16.1329 19.7918C14.8855 21.8393 12.6174 23.2316 10.0685 23.2316C6.34084 23.2316 3.20815 20.2491 3.0008 16.5957C2.81737 16.9074 2.71368 17.2666 2.71368 17.6495C2.71368 18.0087 2.78864 18.3567 2.9306 18.6811C2.4473 18.5893 1.94487 18.6463 1.48549 18.8472C0.888941 19.1115 0.434342 19.5893 0.201463 20.1953C-0.0872422 20.9374 -0.064909 21.7491 0.263673 22.4753C0.589065 23.2016 1.18402 23.7617 1.93529 24.0449C1.95603 24.056 1.97517 24.056 1.9975 24.056L14.7388 24.0623C14.809 24.0718 14.8776 24.0734 14.9494 24.0734C15.0913 24.0734 15.2349 24.0592 15.3768 24.0275C15.8889 23.9167 16.3259 23.613 16.6082 23.1747C16.948 22.643 17.0596 21.931 16.9129 21.2206C16.7933 20.6447 16.5173 20.1399 16.1329 19.7918Z" fill="#51C6F3"/>
<path d="M38.8047 21.221C38.6564 20.5058 38.264 19.9014 37.7328 19.5644C37.2272 19.2464 36.6402 19.0723 36.0484 19.0613C36.0676 19.0391 36.0883 19.0185 36.1059 18.9964C36.4058 18.6261 36.5413 18.1625 36.4887 17.6926C36.4361 17.2243 36.2016 16.7986 35.8268 16.5028C35.3722 16.1436 34.7995 15.9759 34.2173 16.0408C33.7882 16.0898 33.3911 16.2544 33.0673 16.5249C33.0641 16.4775 33.0625 16.4331 33.0545 16.3873C32.9827 15.7892 32.6781 15.2512 32.198 14.8778C31.7195 14.5076 31.1213 14.3414 30.5184 14.4126C29.3954 14.5455 28.4831 15.343 28.1688 16.3746C27.8642 15.8873 27.3218 15.5629 26.7061 15.5629C25.5449 15.5629 24.6038 16.498 24.6038 17.6483C24.6038 18.0075 24.6788 18.3556 24.8224 18.6799C24.3391 18.5882 23.8382 18.6451 23.3788 18.8461C22.7823 19.1103 22.3277 19.5881 22.0948 20.1941C21.8077 20.9362 21.83 21.7479 22.157 22.4741C22.484 23.2004 23.0774 23.7605 23.8287 24.0437C23.8494 24.0548 23.8701 24.0548 23.8909 24.0548L36.6338 24.0611C36.704 24.0706 36.7742 24.0722 36.8428 24.0722C36.9847 24.0722 37.1299 24.058 37.2703 24.0263C37.7855 23.9156 38.2194 23.6118 38.5017 23.1735C38.8398 22.6434 38.9531 21.9314 38.8047 21.221Z" fill="#51C6F3"/>
<path opacity="0.61" d="M38.0224 19.7925C36.7751 21.8399 34.5053 23.2323 31.9564 23.2323C28.2287 23.2323 25.096 20.2498 24.8886 16.5964C24.7052 16.9081 24.5999 17.2672 24.5999 17.6501C24.5999 18.0093 24.6749 18.3574 24.8185 18.6818C24.3352 18.59 23.8343 18.647 23.3749 18.8479C22.7784 19.1121 22.3238 19.59 22.0909 20.196C21.8038 20.938 21.8261 21.7497 22.1531 22.476C22.4801 23.2022 23.0735 23.7623 23.8247 24.0456C23.8455 24.0566 23.8662 24.0566 23.8869 24.0566L36.6299 24.063C36.7001 24.0725 36.7703 24.074 36.8389 24.074C36.9808 24.074 37.126 24.0598 37.2664 24.0282C37.7816 23.9174 38.2154 23.6136 38.4978 23.1753C38.8407 22.6437 38.9523 21.9317 38.804 21.2213C38.6812 20.6453 38.4053 20.1406 38.0224 19.7925Z" fill="#51C6F3"/>
</svg>
