<svg width="37" height="36" viewBox="0 0 37 36" fill="none" xmlns="http://www.w3.org/2000/svg">
<path d="M33.2994 25.3032L32.6221 27.1961L34.1884 27.9037L33.8618 26.797L34.6178 26.5248L33.2994 25.3032Z" fill="#453532"/>
<path d="M34.3805 21.731L34.187 23.4787L35.5961 23.89L34.9551 22.9042L36.0013 22.4023L34.3805 21.731Z" fill="#453532"/>
<path d="M4.94105 32.6654L6.28967 33.6814L5.35834 35.0119L5.11039 34.02L4.34839 34.2257L4.94105 32.6654Z" fill="#453532"/>
<path d="M1.29234 27.9432L1.96967 29.1225L0.983911 30.3562L1.17743 29.1528H0.37915L1.29234 27.9432Z" fill="#453532"/>
<path d="M24.947 21.7966C24.947 21.7966 31.4059 26.1146 32.6214 27.1971C33.0629 26.6891 33.2988 25.3042 33.2988 25.3042C33.2988 25.3042 28.7752 22.3349 27.4568 20.5811C25.7393 20.8532 24.947 21.7966 24.947 21.7966Z" fill="#9A7B64"/>
<path d="M10.5471 26.6619C10.5471 26.6619 6.70083 32.6006 6.29564 33.6832C5.41874 33.6953 4.94702 32.6732 4.94702 32.6732C4.94702 32.6732 7.28745 27.5993 7.83173 26.1176C9.70649 25.6398 10.5471 26.6619 10.5471 26.6619Z" fill="#9A7B64"/>
<path d="M26.3259 20.2437C28.4426 20.9936 31.3817 22.6083 34.1878 23.4731C34.3813 22.9409 34.3813 22.4026 34.3813 21.7253C31.3878 20.6912 27.3056 17.9093 27.3056 17.9093L26.3259 20.2437Z" fill="#9A7B64"/>
<path d="M1.96835 29.1205C1.96835 29.1205 6.70968 24.5606 7.03625 23.7865C6.1533 22.6072 4.5023 22.0689 4.5023 22.0689C4.5023 22.0689 2.23444 26.9978 1.29102 27.9412C1.56316 29.0177 1.96835 29.1205 1.96835 29.1205Z" fill="#9A7B64"/>
<path d="M30.4338 14.6279C30.6636 12.0334 29.194 9.69301 26.9624 8.72539C26.9866 8.59839 27.0048 8.46534 27.0169 8.33229C27.1801 6.49382 26.0009 4.88516 24.3862 4.74606C23.7512 4.69163 23.1464 4.87306 22.6323 5.21778C22.3239 4.28644 21.4349 3.57282 20.3282 3.47606C19.6267 3.41558 18.9735 3.61516 18.4655 3.98407C17.8124 3.08902 16.6331 2.44192 15.2482 2.31492C13.3553 2.15163 11.6862 3.02249 11.1298 4.34692C10.6399 4.13525 10.0956 3.99615 9.51508 3.94777C7.12023 3.73611 5.03985 5.10287 4.87656 7.00182C4.85237 7.24372 4.86447 7.48563 4.9068 7.71544C2.57242 7.51587 0.528329 9.01568 0.346901 11.0779C0.238044 12.2995 0.812568 13.4425 1.78623 14.2166C0.800472 14.894 0.12314 15.9341 0.0142828 17.1497C-0.13086 18.8309 0.842806 20.367 2.36076 21.1532C2.08861 21.6249 1.91323 22.145 1.86485 22.7014C1.65319 25.0963 3.78799 27.2432 6.63037 27.4911C7.60403 27.5758 8.53537 27.4246 9.34575 27.098C9.87189 28.1866 11.0088 28.997 12.3877 29.1179C13.9903 29.257 15.4236 28.4285 16.0284 27.1525C16.367 27.2795 16.7359 27.3641 17.1169 27.3944C18.9252 27.5516 20.5338 26.5356 21.0116 25.0418C21.441 25.3684 21.9732 25.5861 22.5598 25.6345C24.1745 25.7736 25.5957 24.6246 25.7348 23.0643C27.4039 23.2094 28.8735 22.0664 29.0065 20.5061C29.067 19.7986 28.8432 19.1273 28.426 18.589C29.5327 17.6214 30.2886 16.2244 30.4338 14.6279Z" fill="#E3E3E3"/>
<path d="M15.5138 9.82875C15.5138 11.9998 13.7903 13.7597 11.6676 13.7597C9.54486 13.7597 7.82129 11.9998 7.82129 9.82875C7.82129 7.65766 9.54486 5.89175 11.6676 5.89175C13.7903 5.8978 15.5138 7.65766 15.5138 9.82875Z" fill="#EFEFEF"/>
<path d="M11.6702 12.4287C11.6702 14.4789 10.0132 16.142 7.96304 16.142C5.91291 16.142 4.25586 14.4789 4.25586 12.4287C4.25586 10.3786 5.91895 8.71552 7.96304 8.71552C10.0071 8.71552 11.6702 10.3786 11.6702 12.4287Z" fill="#EFEFEF"/>
<path d="M13.6554 16.8031C13.6554 19.2161 11.581 21.1755 9.02895 21.1755C6.47081 21.1755 4.39648 19.2161 4.39648 16.8031C4.39648 14.3901 6.47081 12.4306 9.02895 12.4306C11.5871 12.4306 13.6554 14.3901 13.6554 16.8031Z" fill="#EFEFEF"/>
<path d="M16.2955 21.1683C16.2955 23.8957 14.2212 26.1092 11.6691 26.1092C9.11095 26.1092 7.03662 23.8957 7.03662 21.1683C7.03662 18.4408 9.11095 16.2274 11.6691 16.2274C14.2212 16.2274 16.2955 18.4408 16.2955 21.1683Z" fill="#EFEFEF"/>
<path d="M21.618 19.9089C21.618 22.0497 19.9429 23.7854 17.8746 23.7854C15.8063 23.7854 14.1311 22.0497 14.1311 19.9089C14.1311 17.768 15.8063 16.0323 17.8746 16.0323C19.9368 16.0323 21.618 17.768 21.618 19.9089Z" fill="#EFEFEF"/>
<path d="M26.3265 15.877C26.3265 18.1085 24.5183 19.9107 22.2928 19.9107C20.0673 19.9107 18.259 18.1025 18.259 15.877C18.259 13.6514 20.0673 11.8432 22.2928 11.8432C24.5183 11.8372 26.3265 13.6454 26.3265 15.877Z" fill="#EFEFEF"/>
<path d="M20.1997 8.42027C20.1997 10.6337 18.6333 12.4298 16.6981 12.4298C14.7629 12.4298 13.1965 10.6337 13.1965 8.42027C13.1965 6.20685 14.7629 4.41071 16.6981 4.41071C18.6333 4.41071 20.1997 6.20685 20.1997 8.42027Z" fill="#EFEFEF"/>
<path d="M24.6752 10.7587C24.6752 12.7 22.6734 14.2784 20.206 14.2784C17.7386 14.2784 15.7368 12.7 15.7368 10.7587C15.7368 8.81136 17.7386 7.23898 20.206 7.23898C22.6734 7.23898 24.6752 8.81741 24.6752 10.7587Z" fill="#EFEFEF"/>
<path d="M20.9509 14.2831C20.9509 17.2585 18.5197 19.6776 15.5201 19.6776C12.5205 19.6776 10.0894 17.2646 10.0894 14.2831C10.0894 11.3077 12.5205 8.89468 15.5201 8.89468C18.5197 8.89468 20.9509 11.3077 20.9509 14.2831Z" fill="#EFEFEF"/>
<path d="M24.7782 3.18304C24.6814 2.41499 26.907 3.1528 27.7657 3.45518C28.6245 3.75756 29.5861 4.20508 30.463 3.70313C31.3399 3.19513 32.4103 0.624894 33.39 0.721656C34.3697 0.824465 34.539 2.00375 34.2669 3.28585C33.9948 4.56794 33.1662 5.40251 32.0414 5.61418C30.2513 5.95285 28.4793 5.16665 26.5985 4.2958C25.4011 3.74546 24.8084 3.44913 24.7782 3.18304Z" fill="#663929"/>
<path d="M22.0906 4.91339C22.012 4.14534 20.0103 5.36696 19.2422 5.85681C18.4742 6.34667 17.6396 6.99981 16.672 6.70953C15.7044 6.41319 14.0776 4.15139 13.1462 4.47191C12.2149 4.79244 12.3177 5.98381 12.8741 7.16914C13.4305 8.35448 14.4283 8.97738 15.5774 8.929C17.3977 8.85038 18.9459 7.68319 20.5787 6.40715C21.6068 5.60886 22.1148 5.18553 22.0906 4.91339Z" fill="#663929"/>
<path d="M29.8422 8.58765C31.6988 12.6033 32.6785 16.0806 28.0158 17.7014C22.8391 19.5036 21.5691 15.9113 20.9462 11.3454C20.3535 7.00319 20.801 3.09643 23.4801 2.28C26.1532 1.46357 28.0037 4.60833 29.8422 8.58765Z" fill="#9F7862"/>
<path d="M27.4304 15.4275L27.763 17.786L26.8438 15.5907L27.4304 15.4275Z" fill="#724A3F"/>
<path d="M24.6095 15.6062C24.8816 16.4831 26.3331 16.1807 27.3128 16.1807C28.4255 15.4731 29.1754 15.0075 28.9698 14.3059C28.7944 13.6951 27.3128 14.2878 26.6354 14.4934C25.9581 14.693 24.422 15.0014 24.6095 15.6062Z" fill="#1D363D"/>
<path d="M28.7937 6.56411C28.7574 7.62849 27.8684 8.46306 26.804 8.42677C25.7396 8.39049 24.905 7.50149 24.9413 6.43711C24.9776 5.37273 25.8666 4.53816 26.931 4.57444C27.9954 4.60468 28.8299 5.49973 28.7937 6.56411Z" fill="white"/>
<path d="M28.8055 6.31908L24.9229 6.25861C24.808 6.25861 24.7415 6.1679 24.7777 6.05904C25.0801 5.164 25.9449 4.53505 26.9307 4.56528C27.8923 4.59552 28.6906 5.24867 28.9566 6.11952C28.9929 6.23443 28.9143 6.31908 28.8055 6.31908Z" fill="#724A3F"/>
<path d="M27.6245 7.36488C27.6004 7.8245 27.2738 8.17527 26.8928 8.15108C26.5178 8.13293 26.2275 7.73983 26.2578 7.28626C26.282 6.83268 26.6085 6.47587 26.9895 6.50006C27.3645 6.51821 27.6487 6.90526 27.6245 7.36488Z" fill="#1F2329"/>
<path d="M20.7954 8.21242C21.2852 9.15584 22.4524 9.5187 23.3959 9.02885C24.3393 8.53294 24.7021 7.3718 24.2123 6.42837C23.7164 5.48495 22.5552 5.12209 21.6118 5.61194C20.6684 6.10785 20.3055 7.26899 20.7954 8.21242Z" fill="white"/>
<path d="M20.6818 7.99924L24.1531 6.26357C24.2498 6.21519 24.2801 6.10029 24.2015 6.02167C23.5423 5.34434 22.49 5.15081 21.6131 5.61043C20.7604 6.05795 20.3189 6.98929 20.464 7.89038C20.4761 8.00529 20.585 8.04762 20.6818 7.99924Z" fill="#724A3F"/>
<path d="M22.1974 8.43356C22.4212 8.83271 22.8687 9.0081 23.1953 8.82667C23.5279 8.64524 23.6186 8.16747 23.3948 7.76833C23.1711 7.36918 22.7236 7.1938 22.391 7.37523C22.0644 7.55666 21.9737 8.02837 22.1974 8.43356Z" fill="#1F2329"/>
<path d="M22.7412 3.97808C22.7412 4.73403 22.1002 5.33879 21.3019 5.33879C20.5096 5.33879 19.8625 4.72798 19.8625 3.97808C19.8625 3.22818 20.5096 2.61737 21.3019 2.61737C22.0941 2.61737 22.7412 3.22818 22.7412 3.97808Z" fill="#E3E3E3"/>
<path d="M25.7637 3.97731C25.7637 4.84212 25.0259 5.54364 24.1127 5.54364C23.1995 5.54364 22.4617 4.84212 22.4617 3.97731C22.4617 3.1125 23.1995 2.41098 24.1127 2.41098C25.0259 2.41703 25.7637 3.1125 25.7637 3.97731Z" fill="#E3E3E3"/>
<path d="M27.4497 2.62098C27.4497 3.50998 26.6937 4.2236 25.7563 4.2236C24.8189 4.2236 24.063 3.50393 24.063 2.62098C24.063 1.73803 24.8189 1.01837 25.7563 1.01837C26.6937 1.01837 27.4497 1.73803 27.4497 2.62098Z" fill="#E3E3E3"/>
<path d="M24.8823 1.88081C24.8823 2.91495 23.9933 3.76162 22.8987 3.76162C21.804 3.76162 20.915 2.921 20.915 1.88081C20.915 0.840619 21.804 0 22.8987 0C23.9933 0 24.8823 0.840619 24.8823 1.88081Z" fill="#E3E3E3"/>
<path d="M25.7851 1.01532C25.7851 1.49309 25.3799 1.88013 24.8719 1.88013C24.37 1.88013 23.9587 1.49309 23.9587 1.01532C23.9587 0.537563 24.3639 0.156564 24.8719 0.156564C25.3799 0.150516 25.7851 0.537563 25.7851 1.01532Z" fill="#E3E3E3"/>
<path d="M22.2439 2.63615C22.2439 3.24091 21.7238 3.73682 21.0828 3.73682C20.4417 3.73682 19.9216 3.24696 19.9216 2.63615C19.9216 2.02534 20.4417 1.53549 21.0828 1.53549C21.7238 1.53549 22.2439 2.03139 22.2439 2.63615Z" fill="#E3E3E3"/>
</svg>
