<svg width="288" height="124" viewBox="0 0 288 124" fill="none" xmlns="http://www.w3.org/2000/svg">
<path d="M274.645 10.7373C274.294 10.6829 273.932 10.6556 273.562 10.6556C273.4 10.6556 273.229 10.6647 273.067 10.6738C272.345 10.7192 271.661 10.8826 271.014 11.1276C269.864 7.46984 266.309 4.81047 262.107 4.81047C260.225 4.81047 258.466 5.34597 257.002 6.27176C255.795 3.58516 253.438 1.48853 250.519 0.544587C249.426 0.190609 248.257 0 247.04 0C246.09 0 245.177 0.117995 244.303 0.335827C244.046 0.399362 243.799 0.471976 243.561 0.544587C240.652 1.47945 238.295 3.567 237.088 6.23545C236.413 6.08115 235.7 5.9904 234.977 5.9904C233.932 5.9904 232.934 6.16284 232.002 6.48051C229.683 7.27016 227.81 8.95836 226.85 11.1095C226.089 10.8281 225.253 10.6647 224.397 10.6647C224.026 10.6647 223.665 10.6919 223.314 10.7464C222.201 10.9188 221.45 11.4907 221.032 12.2349C220.044 13.9957 220.994 16.6823 223.523 16.9728C223.665 16.9909 223.817 17 223.969 17H273.999C277.982 17 278.581 11.3454 274.645 10.7373Z" fill="white" fill-opacity="0.2"/>
<path d="M55.2933 35.3689C54.9351 35.3113 54.5672 35.2824 54.1896 35.2824C54.025 35.2824 53.8507 35.2921 53.6861 35.3017C52.9503 35.3497 52.2532 35.5227 51.5948 35.7822C50.4233 31.9092 46.8023 29.0934 42.5229 29.0934C40.6058 29.0934 38.8147 29.6604 37.3237 30.6407C36.0941 27.7961 33.6929 25.5761 30.7206 24.5766C29.6071 24.2018 28.4163 24 27.177 24C26.2088 24 25.2793 24.1249 24.3886 24.3556C24.1272 24.4229 23.8754 24.4997 23.6334 24.5766C20.6707 25.5665 18.2696 27.7768 17.04 30.6022C16.3526 30.4389 15.6264 30.3428 14.8906 30.3428C13.8256 30.3428 12.809 30.5254 11.8602 30.8617C9.49776 31.6978 7.59043 33.4853 6.61256 35.763C5.838 35.465 4.98598 35.292 4.1146 35.292C3.73701 35.292 3.36911 35.3209 3.01088 35.3785C1.87809 35.5611 1.11322 36.1666 0.68722 36.9546C-0.319701 38.819 0.648487 41.6636 3.22388 41.9712C3.36911 41.9904 3.52402 42 3.67893 42H54.635C58.6917 42 59.3016 36.0128 55.2933 35.3689Z" fill="white" fill-opacity="0.2"/>
<path d="M285.533 83.4741C285.233 83.4261 284.926 83.402 284.61 83.402C284.472 83.402 284.326 83.41 284.189 83.4181C283.573 83.4581 282.99 83.6023 282.44 83.8185C281.46 80.591 278.431 78.2445 274.852 78.2445C273.249 78.2445 271.751 78.717 270.504 79.5339C269.475 77.1634 267.467 75.3134 264.981 74.4805C264.05 74.1682 263.054 74 262.018 74C261.208 74 260.43 74.1041 259.685 74.2963C259.467 74.3524 259.256 74.4164 259.054 74.4805C256.576 75.3054 254.568 77.1474 253.539 79.5019C252.964 79.3657 252.357 79.2856 251.742 79.2856C250.851 79.2856 250.001 79.4378 249.207 79.7181C247.231 80.4148 245.636 81.9044 244.818 83.8025C244.17 83.5542 243.458 83.41 242.729 83.41C242.413 83.41 242.105 83.4341 241.806 83.4821C240.858 83.6343 240.219 84.1388 239.862 84.7955C239.02 86.3492 239.83 88.7197 241.984 88.976C242.105 88.992 242.235 89 242.365 89H284.982C288.375 89 288.885 84.0107 285.533 83.4741Z" fill="white" fill-opacity="0.1"/>
<path fill-rule="evenodd" clip-rule="evenodd" d="M36.2581 58.4413C36.2581 58.4413 40.5417 60.8921 45.1219 62.4547C47.412 63.236 49.9703 62.0789 50.7961 59.9163C51.6219 57.7536 50.3953 55.3364 48.1052 54.555C44.0068 53.2013 35.9299 48.9995 35.9299 48.9995C33.7271 47.8536 34.1279 57.2844 36.2581 58.4413Z" fill="#084FFF"/>
<path fill-rule="evenodd" clip-rule="evenodd" d="M234.911 61.8074C234.911 61.8074 243.429 57.1547 246.824 55.6611C249.043 54.6955 249.649 46.3783 247.43 47.344C244.035 48.8376 231.246 54.2014 231.246 54.2014C229.027 55.167 228.03 57.6368 229.053 59.7332C230.077 61.8295 232.692 62.773 234.911 61.8074Z" fill="#084FFF"/>
<path fill-rule="evenodd" clip-rule="evenodd" d="M46.6724 64.9488C44.8061 49.479 54.748 29.0036 81.2877 23.9675C107.827 18.9315 191.777 16.2517 212.457 27.2117C233.198 38.0922 238.145 66.5291 229.616 83.9099C221.038 101.439 183.873 105.256 165.309 94.049C149.225 84.2981 142.278 87.2386 122.686 92.4276C103.167 97.6058 75.2993 99.1849 63.4081 92.672C52.7331 86.7501 47.9117 75.3799 46.6724 64.9488Z" fill="#084FFF"/>
<path fill-rule="evenodd" clip-rule="evenodd" d="M202.805 91.4738C201.662 91.7671 200.578 91.9908 199.415 92.1652C198.937 92.237 198.597 92.715 198.735 93.1211C198.815 93.597 199.286 93.8924 199.755 93.7611C200.907 93.5272 202.128 93.2831 203.281 93.0492C203.749 92.9179 204.031 92.5096 203.951 92.0337C203.744 91.6378 203.273 91.3425 202.805 91.4738ZM194.198 92.8259C193.025 92.9408 191.842 92.9963 190.728 93.0414C190.239 93.0538 189.889 93.4723 189.891 93.899C189.903 94.3852 190.305 94.6908 190.794 94.6785C191.977 94.623 193.159 94.5676 194.4 94.4424C194.879 94.3706 195.239 94.0116 195.159 93.5357C195.157 93.109 194.686 92.8136 194.198 92.8259ZM211.044 88.7738C210 89.2354 208.946 89.6376 207.813 89.9905C207.345 90.1218 207.151 90.6387 207.29 91.0449C207.439 91.5105 207.958 91.6766 208.426 91.5453C209.549 91.133 210.671 90.7206 211.783 90.2487C212.242 90.0579 212.435 89.541 212.228 89.1451C212.031 88.8087 211.434 88.5933 211.044 88.7738ZM185.489 93.1565C184.296 93.1525 183.162 93.0787 182.017 92.9454C181.518 92.8982 181.09 93.2675 181.023 93.7044C180.957 94.1414 181.311 94.5762 181.809 94.6234C183.022 94.7464 184.225 94.8099 185.418 94.814C185.906 94.8017 186.345 94.4919 186.333 94.0057C186.39 93.5093 185.977 93.1442 185.489 93.1565ZM176.852 92.2563C175.698 92.0635 174.533 91.8113 173.437 91.5487C172.997 91.4318 172.48 91.6923 172.345 92.1395C172.21 92.5867 172.495 93.0319 173.004 93.1385C174.169 93.3908 175.333 93.6431 176.488 93.8359C176.997 93.9425 177.435 93.6327 177.502 93.1958C177.647 92.8081 177.361 92.363 176.852 92.2563ZM218.328 84.5703C217.461 85.2494 216.515 85.8792 215.56 86.4495C215.18 86.6895 215.055 87.1962 215.262 87.5921C215.537 87.9777 216.046 88.0844 216.495 87.8341C217.509 87.1941 218.512 86.4945 219.448 85.8053C219.818 85.5057 219.875 85.0093 219.531 84.6339C219.265 84.3077 218.698 84.2708 218.328 84.5703ZM168.494 90.0945C167.378 89.713 166.32 89.2617 165.32 88.7407C164.86 88.5048 164.333 88.7058 164.119 89.1038C163.906 89.5018 164.065 90.0269 164.515 90.2033C165.583 90.7141 166.641 91.1653 167.836 91.5961C168.286 91.7725 168.813 91.5714 168.948 91.1242C169.171 90.7857 168.944 90.2709 168.494 90.0945ZM223.59 78.3524C223.483 78.5514 223.435 78.6807 223.328 78.8797C222.901 79.6756 222.386 80.3628 221.881 81.1095C221.589 81.4583 221.68 81.9937 222.082 82.2993C222.474 82.5455 223.031 82.5229 223.313 82.1146C223.955 81.3474 224.45 80.5412 224.935 79.6755C225.041 79.4766 225.148 79.2776 225.196 79.1484C225.41 78.7504 225.251 78.2252 224.8 78.0488C224.33 77.7535 223.803 77.9545 223.59 78.3524ZM160.715 86.3818C159.569 85.8218 158.511 85.3705 157.453 84.9193C157.003 84.7429 156.476 84.944 156.262 85.3419C156.049 85.7399 156.276 86.2548 156.727 86.4312C157.706 86.8332 158.764 87.2845 159.842 87.8547C160.302 88.0906 160.829 87.8895 161.043 87.4915C161.256 87.0936 161.166 86.5582 160.715 86.3818ZM226.361 70.6782C226.122 71.7511 225.814 72.8342 225.496 73.8578C225.361 74.305 225.646 74.7502 226.097 74.9266C226.537 75.0435 227.064 74.8425 227.199 74.3953C227.575 73.3019 227.884 72.2188 228.113 71.0864C228.248 70.6392 227.894 70.2043 227.454 70.0874C226.866 69.9315 226.428 70.2412 226.361 70.6782ZM108.643 89.8628C107.48 90.0372 106.308 90.1522 105.145 90.3266C104.666 90.3984 104.316 90.8169 104.387 91.2333C104.467 91.7092 104.869 92.0149 105.348 91.9431C106.52 91.8282 107.683 91.6537 108.846 91.4793C109.324 91.4075 109.674 90.989 109.594 90.5131C109.524 90.0967 109.122 89.791 108.643 89.8628ZM117.288 88.322C116.136 88.5559 114.983 88.7898 113.82 88.9642C113.342 89.036 113.002 89.514 113.14 89.9201C113.221 90.3961 113.691 90.6914 114.16 90.5601C115.312 90.3262 116.475 90.1518 117.627 89.9179C118.106 89.8461 118.378 89.3784 118.298 88.9025C118.237 88.5455 117.767 88.2502 117.288 88.322ZM152.264 83.2579C151.022 82.9564 149.867 82.7636 148.664 82.7001C148.166 82.6529 147.727 82.9627 147.671 83.4591C147.604 83.8961 147.958 84.3309 148.457 84.3781C149.601 84.5114 150.677 84.6549 151.842 84.9072C152.35 85.0138 152.799 84.7636 152.934 84.3164C153.059 83.8097 152.773 83.3645 152.264 83.2579ZM99.8974 90.8089C98.7248 90.9238 97.5421 90.9792 96.3594 91.0346C95.8707 91.047 95.5206 91.4655 95.5225 91.8922C95.5344 92.3783 95.9366 92.684 96.4253 92.6717C97.608 92.6162 98.7806 92.5013 99.9633 92.4459C100.452 92.4335 100.802 92.015 100.79 91.5289C100.788 91.1022 100.386 90.7965 99.8974 90.8089ZM125.784 86.3154C124.974 86.498 124.105 86.7504 123.226 86.9432C122.952 86.9843 122.62 87.095 122.347 87.1361C121.878 87.2674 121.607 87.7351 121.745 88.1413C121.894 88.6069 122.354 88.8428 122.823 88.7115C123.097 88.6705 123.429 88.5597 123.702 88.5186C124.581 88.3258 125.45 88.0735 126.261 87.8909C126.729 87.7596 127.001 87.2918 126.862 86.8857C126.792 86.4692 126.263 86.2436 125.784 86.3154ZM91.14 91.2687C89.9473 91.2646 88.7646 91.3201 87.6302 91.2463C87.1415 91.2586 86.713 91.6279 86.7148 92.0545C86.7268 92.5407 87.0706 92.9161 87.5593 92.9038C88.7521 92.9078 89.9448 92.9119 91.1375 92.916C91.6262 92.9036 91.9864 92.5446 91.9744 92.0584C92.041 91.6215 91.6287 91.2563 91.14 91.2687ZM134.398 84.1693C133.313 84.393 132.171 84.6864 130.96 84.99C130.491 85.1213 130.22 85.589 130.358 85.9952C130.507 86.4608 130.968 86.6968 131.436 86.5655C132.647 86.2618 133.721 85.9787 134.874 85.7448C135.343 85.6135 135.624 85.2053 135.544 84.7294C135.337 84.3334 134.876 84.0975 134.398 84.1693ZM143.19 82.6674C142.017 82.7824 140.844 82.8973 139.623 83.1415C139.145 83.2133 138.795 83.6317 138.875 84.1076C138.955 84.5835 139.426 84.8789 139.904 84.8071C141.067 84.6327 142.23 84.4583 143.334 84.3536C143.823 84.3413 144.173 83.9228 144.161 83.4367C144.149 82.9505 143.678 82.6551 143.19 82.6674ZM82.3405 91.0639C81.1378 91.0003 79.9933 90.8671 78.8489 90.7338C78.3501 90.6866 77.9116 90.9963 77.8451 91.4333C77.7786 91.8702 78.1325 92.3051 78.6313 92.3523C79.7757 92.4856 80.9885 92.6086 82.1912 92.6722C82.69 92.7193 83.1185 92.3501 83.1166 91.9234C83.1832 91.4865 82.8393 91.111 82.3405 91.0639ZM73.7907 89.8457C72.6262 89.5934 71.5201 89.2714 70.4723 88.8796C70.0218 88.7032 69.5049 88.9637 69.36 89.3515C69.2251 89.7987 69.4422 90.2541 69.8926 90.4305C70.9404 90.8222 72.1149 91.134 73.3578 91.4355C73.8666 91.5422 74.3153 91.2919 74.4502 90.8447C74.5167 90.4078 74.2312 89.9626 73.7907 89.8457ZM227.166 62.5671C227.142 63.6687 227.117 64.7703 227.015 65.8226C226.948 66.2596 227.37 66.6842 227.801 66.7416C228.299 66.7887 228.728 66.4195 228.726 65.9928C228.819 64.881 228.833 63.7199 228.848 62.5588C228.836 62.0727 228.424 61.7075 227.935 61.7199C227.583 61.7117 227.154 62.0809 227.166 62.5671ZM65.9656 86.6889C65.0245 86.0982 64.0733 85.4479 63.2489 84.7177C62.8467 84.412 62.2896 84.4346 61.9979 84.7834C61.7061 85.1321 61.7281 85.6778 62.0619 85.9937C62.9547 86.7137 63.9159 87.4234 64.9455 88.1229C65.3376 88.369 65.8847 88.287 66.1664 87.8787C66.4481 87.4705 66.3578 86.9351 65.9656 86.6889ZM226.28 54.4048C226.529 55.4653 226.71 56.5361 226.822 57.6172C226.902 58.0931 227.304 58.3988 227.783 58.3269C228.262 58.2551 228.612 57.8366 228.542 57.4202C228.419 56.2796 228.229 55.1494 227.969 54.0293C227.889 53.5534 227.419 53.258 226.95 53.3893C226.481 53.5206 226.199 53.9288 226.28 54.4048ZM59.7141 81.2223C59.0063 80.3525 58.367 79.4725 57.786 78.5228C57.5106 78.1371 56.9917 77.971 56.5431 78.2213C56.0945 78.4716 55.9697 78.9782 56.2451 79.3639C56.8361 80.3731 57.5539 81.3024 58.2716 82.2316C58.5471 82.6173 59.1143 82.6542 59.4945 82.4142C59.933 82.1044 60.0479 81.5382 59.7141 81.2223ZM223.635 46.6281C224.079 47.5984 224.534 48.6282 224.92 49.6682C225.068 50.1339 225.597 50.3595 226.056 50.1687C226.524 50.0374 226.796 49.5697 226.579 49.1143C226.183 48.0148 225.729 46.985 225.275 45.9552C225.068 45.5593 224.539 45.3337 224.08 45.5245C223.69 45.705 223.497 46.222 223.635 46.6281ZM55.5668 74.0981C55.1126 73.0683 54.7951 72.018 54.4877 71.0272C54.339 70.5616 53.8785 70.3257 53.4098 70.457C52.9411 70.5883 52.6695 71.056 52.8081 71.4622C53.1356 72.572 53.5215 73.612 53.9858 74.7012C54.1928 75.0971 54.6533 75.333 55.122 75.2017C55.5123 75.0212 55.7155 74.5637 55.5668 74.0981ZM219.293 39.5942C220.001 40.4639 220.64 41.344 221.221 42.2937C221.496 42.6794 222.005 42.786 222.454 42.5357C222.834 42.2957 223.027 41.7788 222.752 41.3931C222.102 40.4536 221.443 39.4546 220.667 38.5951C220.392 38.2094 219.824 38.1725 219.444 38.4126C219.074 38.7121 219.027 39.268 219.293 39.5942ZM51.3901 64.7215C51.2778 63.6404 51.2439 62.6085 51.2684 61.5069C51.2565 61.0208 51.685 60.6515 52.1838 60.6987C52.6725 60.6864 53.0948 61.111 53.0283 61.5479C53.0038 62.6495 53.0478 63.7408 53.15 64.7624C53.2303 65.2383 53.2523 65.784 53.3326 66.2599C53.4129 66.7358 53.0628 67.1543 52.5841 67.2261C52.1054 67.298 51.6348 67.0026 51.5545 66.5266C51.4642 65.9912 51.3738 65.4559 51.3619 64.9697L51.3901 64.7215ZM213.206 33.8588C214.158 34.509 214.982 35.2393 215.806 35.9695C216.14 36.2854 216.697 36.2629 217.067 35.9633C217.428 35.6043 217.416 35.1182 217.013 34.8125C216.111 34.033 215.218 33.3131 214.257 32.6033C213.854 32.2977 213.307 32.3797 213.016 32.7285C212.792 33.067 212.814 33.6126 213.206 33.8588ZM53.5346 56.6533C53.7743 55.5804 54.024 54.5671 54.4004 53.4737C54.5353 53.0265 54.3183 52.5711 53.7994 52.405C53.3589 52.2881 52.8319 52.4891 52.697 52.9363C52.3206 54.0297 52.0225 55.1723 51.7829 56.2452C51.7164 56.6821 52.0018 57.1273 52.5107 57.2339C53.0296 57.4001 53.4781 57.1498 53.5346 56.6533ZM205.808 29.9061C206.699 30.1994 207.531 30.5625 208.286 30.8763C208.511 30.9645 208.746 31.1122 208.903 31.2106C209.363 31.4465 209.89 31.2455 210.104 30.8475C210.317 30.4496 210.158 29.9244 209.776 29.7377C209.551 29.6495 209.316 29.5019 209.09 29.4137C208.326 29.0404 207.425 28.6875 206.456 28.345C206.005 28.1686 205.489 28.4291 205.344 28.8169C205.072 29.2846 205.289 29.74 205.808 29.9061ZM197.391 27.814C198.614 27.9966 199.71 28.2591 200.806 28.5216C201.315 28.6283 201.764 28.378 201.888 27.8713C202.023 27.4241 201.738 26.9789 201.229 26.8723C200.133 26.6097 198.968 26.3575 197.746 26.1749C197.237 26.0683 196.798 26.3781 196.732 26.815C196.538 27.332 196.892 27.7669 197.391 27.814ZM56.3065 48.9791C56.7815 48.0539 57.3831 47.0487 58.0049 46.1625C58.2866 45.7543 58.1279 45.2291 57.7357 44.983C57.3436 44.7368 56.8066 44.8784 56.5148 45.2271C55.8347 46.1831 55.233 47.1883 54.7781 48.2324C54.5648 48.6304 54.7235 49.1556 55.174 49.332C55.5662 49.5781 56.1032 49.4366 56.3065 48.9791ZM188.705 26.6163C189.917 26.7394 191.062 26.8727 192.206 27.006C192.705 27.0531 193.144 26.7434 193.21 26.3065C193.277 25.8695 192.923 25.4346 192.492 25.3772C191.348 25.2439 190.203 25.1106 188.981 24.9281C188.482 24.8809 188.043 25.1907 187.987 25.6871C187.852 26.1343 188.206 26.5692 188.705 26.6163ZM179.883 25.8659C181.086 25.9295 182.23 26.0627 183.365 26.1365C183.863 26.1837 184.292 25.8144 184.29 25.3877C184.357 24.9508 184.003 24.5159 183.504 24.4688C182.37 24.395 181.157 24.2719 179.954 24.2084C179.455 24.1612 179.027 24.5305 179.029 24.9571C179.04 25.4433 179.384 25.8187 179.883 25.8659ZM171.112 25.4129C172.315 25.4764 173.439 25.4907 174.642 25.5543C175.141 25.6014 175.569 25.2322 175.557 24.746C175.545 24.2598 175.201 23.8845 174.713 23.8968C173.51 23.8332 172.375 23.7594 171.183 23.7553C170.684 23.7082 170.255 24.0775 170.267 24.5637C170.201 25.0006 170.613 25.3657 171.112 25.4129ZM61.0573 42.2279C61.7675 41.4504 62.6145 40.6524 63.4615 39.8544C63.8317 39.5548 63.8097 39.0092 63.4759 38.6933C63.1422 38.3774 62.575 38.3405 62.2048 38.64C61.2894 39.4483 60.5108 40.2361 59.6839 41.1531C59.3921 41.5018 59.4141 42.0475 59.8162 42.3531C60.2084 42.5992 60.7655 42.5766 61.0573 42.2279ZM162.302 25.1486C163.495 25.1526 164.698 25.2162 165.822 25.2305C166.311 25.2182 166.739 24.8489 166.738 24.4222C166.726 23.936 166.382 23.5606 165.893 23.573C164.7 23.5689 163.566 23.4951 162.373 23.491C161.885 23.5034 161.456 23.8726 161.458 24.2993C161.391 24.7362 161.804 25.1014 162.302 25.1486ZM153.455 25.073C154.647 25.077 155.84 25.0811 156.964 25.0954C157.453 25.0831 157.882 24.7139 157.88 24.2872C157.868 23.801 157.456 23.4358 156.967 23.4481C155.774 23.4441 154.581 23.4401 153.389 23.436C152.9 23.4484 152.471 23.8176 152.483 24.3038C152.554 24.7202 152.966 25.0853 153.455 25.073ZM144.637 25.1759C145.83 25.1799 147.012 25.1245 148.205 25.1286C148.694 25.1163 149.054 24.7572 149.042 24.2711C149.03 23.7849 148.618 23.4198 148.129 23.4321C146.936 23.428 145.754 23.4834 144.561 23.4794C144.072 23.4917 143.712 23.8508 143.724 24.3369C143.726 24.7636 144.138 25.1287 144.637 25.1759ZM67.4268 36.7587C68.3723 36.1289 69.3278 35.5586 70.3518 34.978C70.8004 34.7278 70.9252 34.2211 70.6498 33.8354C70.3743 33.4498 69.8555 33.2836 69.4069 33.5339C68.3829 34.1144 67.369 34.7545 66.3551 35.3946C65.9749 35.6346 65.8601 36.2008 66.1355 36.5865C66.4693 36.9024 67.0465 36.9987 67.4268 36.7587ZM135.761 25.3485C136.944 25.2931 138.136 25.2972 139.319 25.2418C139.808 25.2294 140.168 24.8704 140.156 24.3842C140.144 23.898 139.732 23.5329 139.243 23.5453C138.06 23.6007 136.868 23.5967 135.685 23.6521C135.196 23.6644 134.836 24.0234 134.848 24.5096C134.86 24.9957 135.272 25.3608 135.761 25.3485ZM126.983 25.6894C128.166 25.634 129.349 25.5785 130.531 25.5231C131.02 25.5108 131.37 25.0923 131.368 24.6656C131.356 24.1794 130.954 23.8738 130.465 23.8861C129.283 23.9416 128.1 23.997 126.917 24.0524C126.429 24.0648 126.079 24.4832 126.08 24.9099C126.024 25.4063 126.505 25.7612 126.983 25.6894ZM118.158 26.1595C119.34 26.104 120.513 25.9891 121.696 25.9337C122.184 25.9214 122.534 25.5029 122.532 25.0762C122.521 24.59 122.118 24.2844 121.63 24.2967C120.447 24.3522 119.264 24.4076 118.092 24.5225C117.603 24.5348 117.253 24.9533 117.265 25.4395C117.198 25.8764 117.679 26.2313 118.158 26.1595ZM74.9463 32.7029C75.9903 32.2413 77.0544 31.8987 78.1769 31.4863C78.6456 31.355 78.9072 30.8278 78.7001 30.4319C78.4931 30.036 78.0225 29.7406 77.5639 29.9314C76.4414 30.3438 75.319 30.7561 74.1965 31.1685C73.7379 31.3593 73.5447 31.8762 73.7517 32.2721C73.9688 32.7275 74.4877 32.8937 74.9463 32.7029ZM109.362 26.808C110.534 26.6931 111.717 26.6377 112.89 26.5228C113.379 26.5105 113.729 26.0919 113.717 25.6058C113.705 25.1196 113.234 24.8242 112.745 24.8365C111.563 24.892 110.39 25.0069 109.218 25.1218C108.729 25.1341 108.379 25.5526 108.391 26.0388C108.402 26.525 108.873 26.8204 109.362 26.808ZM100.518 27.5858C101.69 27.4709 102.863 27.356 104.036 27.2411C104.514 27.1693 104.875 26.8102 104.863 26.3241C104.782 25.8482 104.38 25.5425 103.891 25.5548C102.719 25.6698 101.478 25.795 100.374 25.8996C99.8948 25.9715 99.5447 26.3899 99.6149 26.8063C99.6268 27.2925 100.039 27.6576 100.518 27.5858ZM83.2056 30.122C83.9478 29.9496 84.7584 29.7671 85.5107 29.6542C85.8526 29.6029 86.263 29.5413 86.5949 29.4305C87.0736 29.3587 87.4136 28.8808 87.275 28.4746C87.1947 27.9987 86.7241 27.7033 86.2454 27.7751C85.8351 27.8367 85.4931 27.8879 85.1612 27.9987C84.3506 28.1813 83.5299 28.3044 82.7877 28.4768C82.319 28.6081 82.0373 29.0163 82.1176 29.4922C82.2663 29.9579 82.7269 30.1938 83.2056 30.122ZM91.7923 28.6508C92.8866 28.4866 94.0592 28.3718 95.2902 28.1871C95.7689 28.1153 96.119 27.6968 96.0487 27.2803C95.9684 26.8044 95.5662 26.4988 95.0875 26.5706C93.8465 26.6958 92.6839 26.8702 91.5897 27.0344C91.111 27.1062 90.7609 27.5247 90.8412 28.0006C90.833 28.3678 91.3036 28.6631 91.7923 28.6508Z" fill="#FDCD00"/>
<path d="M75.0637 50.389C73.0838 58.8724 78.9749 67.7738 87.4433 70.7035C96.8863 73.9824 107.195 70.9665 114.404 64.7005C118.502 61.1379 121.591 56.6258 123.818 51.8375C124.977 49.3538 120.953 47.5355 119.794 50.0192C116.508 57.0703 111.093 63.7059 103.242 66.4906C95.9413 69.0878 87.0158 68.0801 82.1234 61.8667C79.6827 58.7609 78.5547 54.9485 79.4499 51.1447C80.0706 48.4831 75.6804 47.7484 75.0637 50.389Z" fill="#D6CBDE"/>
<path d="M75.3464 56.3643C72.2296 58.2561 69.1037 60.1356 65.9869 62.0274C65.0033 62.6277 64.7173 64.0707 65.4292 64.959C66.1774 65.8967 67.485 66.1188 68.532 65.4859C71.6488 63.5941 74.7747 61.7147 77.8915 59.8229C78.8751 59.2225 79.161 57.7795 78.4492 56.8912C77.6879 55.9621 76.3933 55.7315 75.3464 56.3643Z" fill="#D6CBDE"/>
<path d="M84.1403 68.3997C83.7877 70.6744 83.4259 72.9368 83.0622 75.2096C82.8903 76.2937 83.6441 77.5026 84.862 77.6554C86.0355 77.8006 87.2626 77.1227 87.4505 75.9549C87.8142 73.682 88.1648 71.4177 88.5286 69.1449C88.7005 68.0608 87.9466 66.852 86.7288 66.6992C85.5553 66.5539 84.3171 67.2299 84.1403 68.3997Z" fill="#D6CBDE"/>
<path d="M105.529 68.0341C106.477 70.5081 107.754 72.8758 109.293 75.0718C109.941 75.9926 111.453 76.2818 112.395 75.5987C113.375 74.9004 113.636 73.6477 112.953 72.6671C112.314 71.7587 111.736 70.8282 111.199 69.8616C111.284 70.0165 111.378 70.1838 111.463 70.3388C110.802 69.124 110.217 67.8682 109.718 66.5837C109.321 65.5435 107.969 64.8924 106.856 65.3303C105.732 65.7663 105.1 66.9236 105.529 68.0341Z" fill="#D6CBDE"/>
<path d="M116.781 59.1283C118.645 60.6338 120.761 61.901 123.006 62.8444C124.067 63.2838 125.497 62.9215 125.974 61.8568C126.432 60.8321 126.063 59.5264 124.929 59.0528C123.784 58.5774 122.69 58.0133 121.634 57.3693C121.798 57.4727 121.963 57.5656 122.115 57.6671C121.254 57.1426 120.438 56.5609 119.665 55.9324C118.783 55.2205 117.262 55.2758 116.521 56.1659C115.78 57.056 115.827 58.3718 116.781 59.1283Z" fill="#D6CBDE"/>
<path d="M157.679 53.6421C159.775 61.7732 166.465 68.4974 174.982 70.8423C183.547 73.1986 193.094 70.9358 199.451 65.0277C203.175 61.5642 205.708 56.9854 206.613 52.1239C207.057 49.7204 203.13 48.8503 202.691 51.2689C200.942 60.7186 192.428 67.8145 182.225 67.9519C172.372 68.0895 163.855 61.5271 161.543 52.5492C160.922 50.1746 157.068 51.2729 157.679 53.6421Z" fill="#D6CBDE"/>
<path d="M163.999 63.5652C162.272 65.531 160.556 67.5021 158.829 69.468C158.163 70.234 158.033 71.4509 158.894 72.1565C159.673 72.7946 161.03 72.9142 161.74 72.0945C163.467 70.1287 165.183 68.1575 166.91 66.1917C167.576 65.4257 167.706 64.2088 166.845 63.5032C166.076 62.8704 164.709 62.7454 163.999 63.5652Z" fill="#D6CBDE"/>
<path d="M177.085 70.6567C176.887 73.4776 176.689 76.2986 176.496 79.1346C176.426 80.1282 177.572 81.0422 178.58 80.9716C179.758 80.8859 180.452 80.0706 180.524 79.0021C180.722 76.1812 180.921 73.3602 181.114 70.5242C181.183 69.5306 180.038 68.6166 179.029 68.6872C177.851 68.7729 177.157 69.5882 177.085 70.6567Z" fill="#D6CBDE"/>
<path d="M192.87 67.3372C193.971 70.096 195.409 72.7346 197.237 75.1394C197.851 75.9478 199.061 76.3733 200.007 75.7756C200.856 75.23 201.33 74.0231 200.68 73.1586C199.838 72.0434 199.066 70.8752 198.375 69.6593C198.039 69.0691 197.721 68.4494 197.423 67.8404C197.308 67.6169 197.438 67.8608 197.467 67.9517C197.432 67.8707 197.392 67.7995 197.368 67.7237C197.294 67.5715 197.23 67.4245 197.171 67.2677C197.019 66.923 196.876 66.5837 196.739 66.2345C196.367 65.3081 195.305 64.6016 194.229 64.9555C193.244 65.2919 192.468 66.3449 192.87 67.3372Z" fill="#D6CBDE"/>
<path d="M201.634 59.8541C204.436 61.4468 207.238 63.0395 210.05 64.6375C210.955 65.1492 212.318 64.7637 212.776 63.8666C213.273 62.9005 212.927 61.8348 211.96 61.2912C209.158 59.6985 206.356 58.1058 203.543 56.5078C202.639 55.9961 201.276 56.3815 200.818 57.2787C200.331 58.2501 200.667 59.3105 201.634 59.8541Z" fill="#D6CBDE"/>
<path d="M59.2021 10.03C61.563 9.75 63.9134 9.48 66.2743 9.2C63.9659 8.94 61.6469 8.67 59.3385 8.41C60.1255 7.45 60.9229 6.48 61.7098 5.52C60.7025 6.27 59.7057 7.02 58.6984 7.78C58.4046 5.52 58.1108 3.26 57.817 1C57.5337 3.29 57.2399 5.58 56.9566 7.87C55.8758 7.06999 54.795 6.26001 53.7038 5.46001C54.5222 6.46001 55.3406 7.45 56.1696 8.45C53.9136 8.72 51.6471 8.98 49.3911 9.25C51.6996 9.51 53.9976 9.78001 56.306 10.04C55.4771 11.06 54.6376 12.08 53.8087 13.09C54.879 12.29 55.9492 11.49 57.0195 10.68C57.2923 12.82 57.5756 14.96 57.8484 17.1C58.1108 14.99 58.3836 12.87 58.6459 10.76C59.6427 11.5 60.6396 12.24 61.6364 12.98C60.8285 12 60.0205 11.02 59.2021 10.03Z" fill="#A273C5" fill-opacity="0.6"/>
<path d="M41.7011 19.0406C44.6706 18.6906 47.6506 18.3406 50.6201 17.9906C47.7031 17.6606 44.786 17.3206 41.8689 16.9906C42.8658 15.7706 43.8626 14.5606 44.8594 13.3406C43.5898 14.2906 42.3306 15.2406 41.061 16.1906C40.6937 13.3406 40.3265 10.4906 39.9487 7.64062C39.5815 10.5306 39.2247 13.4206 38.8575 16.3006C37.4934 15.2806 36.1293 14.2706 34.7652 13.2506C35.804 14.5106 36.8323 15.7606 37.8711 17.0206C35.017 17.3606 32.1734 17.6906 29.3193 18.0306C32.2259 18.3606 35.1324 18.6906 38.0495 19.0206C37.0002 20.3006 35.9509 21.5906 34.9016 22.8706C36.2552 21.8606 37.5983 20.8506 38.9519 19.8406C39.2982 22.5406 39.655 25.2406 40.0012 27.9406C40.337 25.2706 40.6727 22.6106 41.0085 19.9406C42.2677 20.8806 43.5269 21.8106 44.786 22.7506C43.7472 21.5206 42.7189 20.2806 41.7011 19.0406Z" fill="#A273C5" fill-opacity="0.6"/>
<path d="M23.4537 10.2401C25.2375 10.0301 27.0108 9.82017 28.7946 9.61017C27.0422 9.41017 25.3004 9.21015 23.5481 9.01015C24.1462 8.28015 24.7443 7.55016 25.3424 6.82016C24.5869 7.39016 23.8209 7.96015 23.0655 8.53015C22.8451 6.82015 22.6247 5.12016 22.4044 3.41016C22.184 5.14016 21.9742 6.87016 21.7538 8.60016C20.9354 7.99016 20.1169 7.38015 19.2985 6.78015C19.9175 7.53015 20.5366 8.28016 21.1557 9.04016C19.4454 9.24016 17.7455 9.44017 16.0352 9.64017C17.777 9.84017 19.5188 10.0401 21.2607 10.2401C20.6311 11.0101 20.0015 11.7801 19.3719 12.5501C20.1799 11.9401 20.9878 11.3402 21.7958 10.7302C22.0056 12.3502 22.2155 13.9701 22.4254 15.5801C22.6247 13.9801 22.8241 12.3902 23.0235 10.7902C23.779 11.3502 24.5344 11.9102 25.2794 12.4702C24.6814 11.7202 24.0728 10.9801 23.4537 10.2401Z" fill="#A273C5" fill-opacity="0.6"/>
<path d="M261.938 64.03C264.299 63.75 266.649 63.48 269.01 63.2C266.702 62.94 264.383 62.67 262.074 62.41C262.861 61.45 263.659 60.48 264.446 59.52C263.438 60.27 262.442 61.02 261.434 61.78C261.14 59.52 260.847 57.26 260.553 55C260.27 57.29 259.976 59.58 259.692 61.87C258.612 61.07 257.531 60.26 256.44 59.46C257.258 60.46 258.076 61.45 258.905 62.45C256.649 62.72 254.383 62.98 252.127 63.25C254.435 63.51 256.733 63.78 259.042 64.04C258.213 65.06 257.373 66.08 256.545 67.09C257.615 66.29 258.685 65.49 259.755 64.68C260.028 66.82 260.311 68.96 260.584 71.1C260.847 68.99 261.119 66.87 261.382 64.76C262.379 65.5 263.375 66.24 264.372 66.98C263.564 66 262.756 65.02 261.938 64.03Z" fill="#A273C5" fill-opacity="0.6"/>
<path d="M251.56 100.041C254.53 99.6906 257.51 99.3406 260.479 98.9906C257.562 98.6606 254.645 98.3206 251.728 97.9906C252.725 96.7706 253.722 95.5606 254.719 94.3406C253.449 95.2906 252.19 96.2406 250.92 97.1906C250.553 94.3406 250.186 91.4906 249.808 88.6406C249.441 91.5306 249.084 94.4206 248.717 97.3006C247.353 96.2806 245.989 95.2706 244.625 94.2506C245.663 95.5106 246.692 96.7606 247.73 98.0206C244.876 98.3606 242.033 98.6906 239.179 99.0306C242.085 99.3606 244.992 99.6906 247.909 100.021C246.86 101.301 245.81 102.591 244.761 103.871C246.115 102.861 247.458 101.851 248.811 100.841C249.158 103.541 249.514 106.241 249.861 108.941C250.196 106.271 250.532 103.611 250.868 100.941C252.127 101.881 253.386 102.811 254.645 103.751C253.607 102.521 252.578 101.281 251.56 100.041Z" fill="#A273C5" fill-opacity="0.6"/>
<path d="M233.313 91.2401C235.097 91.0301 236.87 90.8202 238.654 90.6102C236.902 90.4102 235.16 90.2101 233.407 90.0101C234.006 89.2801 234.604 88.5502 235.202 87.8202C234.446 88.3902 233.68 88.9602 232.925 89.5302C232.704 87.8202 232.484 86.1202 232.264 84.4102C232.043 86.1402 231.834 87.8702 231.613 89.6002C230.795 88.9902 229.976 88.3802 229.158 87.7802C229.777 88.5302 230.396 89.2802 231.015 90.0402C229.305 90.2402 227.605 90.4402 225.895 90.6402C227.636 90.8402 229.378 91.0401 231.12 91.2401C230.49 92.0101 229.861 92.7801 229.231 93.5501C230.039 92.9401 230.847 92.3402 231.655 91.7302C231.865 93.3502 232.075 94.9701 232.285 96.5801C232.484 94.9801 232.683 93.3902 232.883 91.7902C233.638 92.3502 234.394 92.9102 235.139 93.4702C234.541 92.7202 233.932 91.9801 233.313 91.2401Z" fill="#A273C5" fill-opacity="0.6"/>
</svg>
