<svg width="44" height="29" viewBox="0 0 44 29" fill="none" xmlns="http://www.w3.org/2000/svg">
<path d="M43.4863 12.2567C43.9097 10.9999 42.9314 9.66392 41.7133 9.37777C42.1174 9.1999 42.5138 8.99108 42.856 8.7262C43.3413 8.35305 43.7202 7.76528 43.4708 7.14078C43.2195 6.50855 42.5312 6.21273 41.8951 6.13926C42.1348 5.63463 42.0285 5.05073 41.5625 4.66018C41.2126 4.3663 40.795 4.22709 40.3715 4.21162C40.6113 3.60065 40.5803 2.94135 40.0177 2.42899C39.5228 1.9785 38.7842 1.80836 38.1481 2.02877C38.0823 2.05197 38.0185 2.07904 37.9547 2.10997C37.9489 1.89343 37.9238 1.67882 37.8658 1.46614C37.6879 0.818437 37.162 0.184269 36.4389 0.184269C35.7332 0.184269 35.2112 0.88804 34.838 1.4004C34.8322 1.40813 34.8264 1.4178 34.8206 1.42554C34.7974 1.34433 34.7704 1.26506 34.7375 1.18579C34.4591 0.511021 33.881 0.0411944 33.1405 0.00252559C32.4406 -0.0342098 31.7774 0.333144 31.3694 0.886107C31.3172 0.955711 31.2708 1.02918 31.2283 1.10265C30.7256 0.584491 29.9735 0.267406 29.2446 0.288674C28.5543 0.309942 27.9047 0.648294 27.6978 1.3424C27.6186 1.61115 27.5915 1.9089 27.5876 2.19891C27.1449 1.76969 26.4836 1.58021 25.9307 1.9669C25.3603 2.36519 25.0258 3.08636 24.8189 3.72826C24.7493 3.94481 24.6933 4.16522 24.6449 4.38757C24.5889 4.31989 24.5289 4.25416 24.4613 4.19422C24.0688 3.8462 23.4926 3.65673 22.9783 3.82687C22.3828 4.02214 22.1663 4.60798 21.9845 5.15127C21.9381 5.29241 21.8956 5.43549 21.855 5.57856C21.766 5.44322 21.6694 5.31562 21.563 5.19187C21.1299 4.68531 20.4668 4.18262 19.7611 4.33343C19.0921 4.4765 18.688 5.13387 18.4173 5.70617C18.3651 5.81638 18.3187 5.92658 18.2743 6.03872C18.195 5.90145 18.106 5.76804 18.0016 5.6443C17.5589 5.12227 16.8358 4.78779 16.1475 4.86126C15.1537 4.96566 14.6375 5.7023 14.3648 6.55108C14.1831 6.2398 13.984 5.93625 13.7655 5.64623C13.5489 5.35815 13.315 5.06427 12.9882 4.89413C12.6325 4.71045 12.2361 4.70852 11.8765 4.87673C11.2249 5.18027 10.8905 5.93045 10.7203 6.58395C10.67 6.77343 10.6352 6.96484 10.6101 7.15818C10.1596 6.73283 9.50224 6.30554 8.85648 6.43508C8.21844 6.56268 7.80275 7.30706 7.5456 7.84649C7.42186 8.1075 7.32132 8.37818 7.24399 8.65273C7.06611 8.50579 6.86503 8.38592 6.65235 8.29698C6.3082 8.15584 5.94085 8.09204 5.56963 8.0727C5.21194 8.05337 4.80205 8.04563 4.48497 8.23704C3.90107 8.59086 3.81406 9.46284 3.816 10.0777C3.816 10.2072 3.82567 10.3368 3.83727 10.4644C3.787 10.445 3.73866 10.4257 3.68839 10.4083C3.03102 10.2033 2.17451 10.2556 1.66408 10.7679C1.13045 11.3054 1.15559 12.2199 1.32766 12.9044C1.4166 13.2562 1.56354 13.5965 1.76075 13.9039C1.22906 14.0335 0.7979 14.3718 0.496284 14.8223C0.161799 15.3212 -0.0141431 15.9244 0.107664 16.518C0.198535 16.9588 0.47115 17.3764 0.838503 17.6432C0.337743 18.0164 0.0148579 18.5829 0.00132383 19.2248C-0.0122102 19.9421 0.370611 20.671 1.01638 21.0055C1.10338 21.0499 1.19426 21.0886 1.28513 21.1195C0.975777 21.5623 0.821102 22.1056 0.913907 22.6798C1.09565 23.7954 2.23445 24.6229 3.33651 24.1918C3.34617 24.1879 3.35584 24.1821 3.36551 24.1782C3.35197 24.4373 3.35004 24.6964 3.36551 24.9536C3.40031 25.5471 3.50278 26.2296 3.97067 26.6492C4.5333 27.1519 5.25061 26.9315 5.75137 26.4636C5.95438 26.2741 6.14772 26.0691 6.3372 25.8642C6.46094 26.4017 6.79349 26.887 7.31746 27.1345C7.99996 27.4574 8.783 27.2659 9.33017 26.8019C9.60085 27.5424 10.1306 28.1766 10.8866 28.4917C12.0408 28.9712 13.3943 28.5749 13.9511 27.4554C14.4499 27.8672 15.1111 28.0645 15.8246 27.875C16.3292 27.7416 16.7681 27.4052 17.0079 26.9489C17.3713 27.177 17.7928 27.3162 18.2298 27.3278C19.125 27.3491 19.8229 26.7845 20.1574 26.0266C20.575 26.3379 21.0777 26.5332 21.6307 26.5506C22.872 26.5892 23.9837 25.7559 24.2621 24.5823C24.4883 24.7157 24.7397 24.8066 25.02 24.8356C25.6697 24.9014 26.2458 24.5321 26.7273 24.1415C27.1371 23.809 27.4929 23.3817 27.6978 22.8906C28.0903 23.1729 28.5621 23.3488 29.057 23.3623C30.3544 23.401 31.5299 22.4227 31.8257 21.1814C32.2666 21.512 32.7944 21.7305 33.3454 21.7904C34.6389 21.9277 35.7525 20.9939 36.1296 19.8067C36.5066 20.176 36.9783 20.4312 37.5622 20.4757C38.9737 20.582 40.1608 19.3311 40.1473 17.9584C40.1473 17.881 40.1395 17.8037 40.1318 17.7264C40.8916 17.8269 41.6379 17.5137 42.2257 17.04C43.3858 16.11 43.9871 14.308 42.9101 13.088C42.9063 13.0842 42.9024 13.0784 42.8966 13.0745C43.1673 12.8638 43.378 12.5815 43.4863 12.2567Z" fill="#F1E0FF"/>
<path d="M1.38776 13.1301C1.5057 13.076 1.62751 13.0315 1.75705 12.9986C1.55984 12.6912 1.4129 12.3509 1.32396 11.999C1.29496 11.8811 1.26982 11.7574 1.25049 11.6298C1.17509 12.059 1.22535 12.5249 1.32396 12.9174C1.34329 12.989 1.36456 13.0586 1.38776 13.1301Z" fill="#F1E0FF"/>
<path d="M41.8948 5.22269C41.9141 5.22463 41.9354 5.22849 41.9547 5.23043C41.945 5.20143 41.9354 5.17242 41.9238 5.14536C41.9141 5.17242 41.9064 5.19756 41.8948 5.22269Z" fill="#F1E0FF"/>
<path d="M42.8548 7.81044C42.5107 8.07532 42.1162 8.28413 41.7122 8.46201C42.0389 8.53934 42.3463 8.69209 42.6151 8.89703C42.6963 8.84289 42.7775 8.78682 42.8548 8.72689C43.3401 8.35373 43.7191 7.76597 43.4697 7.14147C43.4619 7.12407 43.4542 7.10666 43.4465 7.08926C43.3246 7.36961 43.1042 7.61903 42.8548 7.81044Z" fill="#F1E0FF"/>
<path d="M40.3723 3.29725C40.4149 3.29918 40.4555 3.30304 40.498 3.30691C40.4864 3.22957 40.469 3.15417 40.4458 3.07877C40.4265 3.1503 40.4013 3.22377 40.3723 3.29725Z" fill="#F1E0FF"/>
<path d="M0.387999 17.1896C0.513672 17.0194 0.662547 16.8667 0.834623 16.7391C0.486604 16.4839 0.223656 16.0953 0.121183 15.6796C0.0573799 15.956 0.04578 16.2441 0.103783 16.5303C0.152119 16.7642 0.252658 16.9885 0.387999 17.1896Z" fill="#F1E0FF"/>
<path d="M43.485 11.3401C43.3767 11.6629 43.166 11.9472 42.9011 12.1676C42.905 12.1714 42.9089 12.1772 42.9147 12.1811C43.0597 12.3455 43.1718 12.5195 43.2588 12.6993C43.3555 12.562 43.4328 12.4151 43.487 12.2565C43.6088 11.895 43.6107 11.5295 43.5295 11.1815C43.514 11.2337 43.5024 11.2859 43.485 11.3401Z" fill="#F1E0FF"/>
<path d="M1.28418 20.2143C1.19137 20.1815 1.10243 20.1447 1.01543 20.1002C0.520468 19.8431 0.182115 19.3559 0.0564412 18.8203C0.0235728 18.9557 0.00423967 19.0949 0.000372788 19.2379C-0.0131613 19.9282 0.342591 20.6223 0.941957 20.9742C1.00769 20.6996 1.1237 20.4425 1.28418 20.2143Z" fill="#F1E0FF"/>
<path d="M42.2315 16.1333C41.6418 16.607 40.8974 16.9203 40.1376 16.8197C40.1453 16.8971 40.1511 16.9744 40.153 17.0517C40.1666 18.4245 38.9794 19.6754 37.568 19.5691C36.9841 19.5246 36.5104 19.2694 36.1354 18.9001C35.7564 20.0872 34.6447 21.0211 33.3512 20.8838C32.7982 20.8258 32.2723 20.6054 31.8315 20.2748C31.5357 21.516 30.3602 22.4944 29.0628 22.4557C28.5659 22.4402 28.0961 22.2662 27.7036 21.9839C27.4987 22.475 27.1429 22.9023 26.733 23.2349C26.2516 23.6254 25.6735 23.9966 25.0258 23.929C24.7455 23.9 24.4941 23.8091 24.2679 23.6757C23.9914 24.8512 22.8778 25.6826 21.6365 25.6439C21.0855 25.6265 20.5808 25.4332 20.1632 25.12C19.8287 25.8779 19.1288 26.4424 18.2356 26.4212C17.7986 26.4096 17.3771 26.2704 17.0136 26.0422C16.7739 26.4985 16.335 26.8349 15.8304 26.9683C15.1169 27.1578 14.4557 26.9606 13.9569 26.5488C13.4 27.6682 12.0466 28.0627 10.8924 27.5851C10.1364 27.2719 9.60664 26.6358 9.33596 25.8953C8.79073 26.3612 8.00575 26.5526 7.32325 26.2278C6.79929 25.9784 6.46674 25.4931 6.343 24.9576C6.15352 25.1644 5.96017 25.3674 5.75716 25.5569C5.2564 26.0268 4.54103 26.2472 3.97647 25.7425C3.50857 25.323 3.4061 24.6405 3.3713 24.0469C3.35583 23.7878 3.35776 23.5288 3.3713 23.2716C3.36163 23.2755 3.35196 23.2813 3.3423 23.2851C2.28277 23.6989 1.19038 22.9487 0.946767 21.8969C0.888764 22.1502 0.87523 22.4151 0.919699 22.6896C1.10144 23.8052 2.24024 24.6327 3.3423 24.2016C3.35196 24.1977 3.36163 24.1919 3.3713 24.1881C3.35776 24.4471 3.35583 24.7062 3.3713 24.9634C3.4061 25.5569 3.50857 26.2394 3.97647 26.659C4.5391 27.1617 5.2564 26.9413 5.75716 26.4734C5.96017 26.2839 6.15352 26.079 6.343 25.874C6.46674 26.4115 6.79929 26.8968 7.32325 27.1443C8.00575 27.4672 8.7888 27.2758 9.33596 26.8117C9.60664 27.5522 10.1364 28.1864 10.8924 28.5016C12.0466 28.981 13.4 28.5847 13.9569 27.4652C14.4557 27.8771 15.1169 28.0743 15.8304 27.8848C16.335 27.7514 16.7739 27.415 17.0136 26.9587C17.3771 27.1868 17.7986 27.326 18.2356 27.3376C19.1308 27.3589 19.8287 26.7943 20.1632 26.0364C20.5808 26.3477 21.0835 26.543 21.6365 26.5604C22.8778 26.5991 23.9895 25.7657 24.2679 24.5921C24.4941 24.7255 24.7455 24.8164 25.0258 24.8454C25.6755 24.9112 26.2516 24.5419 26.733 24.1513C27.1429 23.8188 27.4987 23.3915 27.7036 22.9004C28.0961 23.1827 28.5679 23.3586 29.0628 23.3721C30.3602 23.4108 31.5357 22.4325 31.8315 21.1912C32.2723 21.5218 32.8002 21.7403 33.3512 21.8003C34.6447 21.9375 35.7583 21.0037 36.1354 19.8165C36.5124 20.1858 36.9841 20.441 37.568 20.4855C38.9794 20.5919 40.1666 19.3409 40.153 17.9682C40.153 17.8908 40.1453 17.8135 40.1376 17.7362C40.8974 17.8367 41.6437 17.5235 42.2315 17.0498C43.088 16.3634 43.639 15.2014 43.4341 14.1477C43.2968 14.9114 42.8425 15.6423 42.2315 16.1333Z" fill="#F1E0FF"/>
<path d="M41.076 7.51617C40.4341 5.63493 39.3204 3.95671 37.6654 2.82371C35.8112 1.55344 33.6361 1.46644 31.4822 1.80093C31.1149 1.85893 30.7301 1.92467 30.3396 2.00587C28.2863 2.11028 26.2194 3.27034 24.4793 4.37627C23.0157 5.30432 21.612 6.46051 19.9435 7.00574C18.1144 7.60318 16.2158 7.44657 14.323 7.47943C10.7132 7.54324 7.22531 8.92951 4.47016 11.2477C3.01622 12.4716 2.0785 13.9507 1.84069 15.8532C1.60867 17.7131 1.78075 19.78 2.53479 21.5046C4.08347 25.0467 7.93875 26.3227 11.5214 26.5393C15.4115 26.7752 19.3364 25.878 22.8011 24.1186C24.371 23.322 25.8617 22.3824 27.4162 21.5607C29.0867 20.6771 30.763 20.0855 32.621 19.7374C34.4636 19.3913 36.2772 18.9892 37.9013 18.0051C39.4731 17.0519 41.134 15.6753 41.6173 13.823C42.122 11.8993 41.7082 9.36261 41.076 7.51617Z" fill="#7372C2"/>
<path d="M37.7529 15.7985C36.9215 16.0248 36.0689 16.1601 35.2066 16.1814C34.0078 16.2104 32.8014 16.077 31.6046 16.0286C30.3169 15.9764 29.0215 15.9648 27.7415 16.1485C26.6317 16.307 25.5432 16.5971 24.4972 16.9934C22.5174 17.7436 20.7077 18.8476 18.8825 19.9013C17.1231 20.9183 15.3192 21.8637 13.4109 22.5733C11.7423 23.1959 9.83403 23.6773 8.0804 23.1127C6.39831 22.5733 5.29432 21.0401 4.60214 19.4914C3.87324 17.8615 3.51555 16.0538 3.51168 14.2711C3.50975 13.5132 3.57162 12.7089 3.73983 11.9317C2.70351 13.0144 2.0384 14.2905 1.84313 15.8508C1.61111 17.7107 1.78319 19.7776 2.53723 21.5022C4.08592 25.0443 7.94119 26.3203 11.5239 26.5369C15.4139 26.7727 19.3388 25.8756 22.8035 24.1162C24.3735 23.3196 25.8642 22.38 27.4187 21.5583C29.0891 20.6747 30.7654 20.083 32.6235 19.735C34.466 19.3889 36.2796 18.9868 37.9037 18.0027C39.3963 17.0978 40.9663 15.8102 41.5347 14.0991C40.3688 14.8531 39.0908 15.4331 37.7529 15.7985Z" fill="#7372C2"/>
<path d="M9.71333 15.2247C9.65146 16.8024 10.9333 18.2158 12.4588 18.4826C14.1602 18.7823 15.8056 17.9296 16.8226 16.5897C17.4007 15.828 17.7777 14.927 18.0001 14.0028C18.1161 13.5233 17.3775 13.3203 17.2615 13.7998C16.9328 15.1609 16.231 16.5124 14.9936 17.249C13.8432 17.9354 12.3022 18.0263 11.2756 17.0634C10.7632 16.582 10.45 15.9343 10.479 15.2267C10.4983 14.7317 9.73267 14.7336 9.71333 15.2247Z" fill="white"/>
<path d="M9.95484 16.2822C9.48888 16.7153 9.02098 17.1465 8.55502 17.5796C8.40808 17.7168 8.40615 17.9837 8.55502 18.1209C8.71163 18.2659 8.93978 18.2659 9.09639 18.1209C9.56235 17.6878 10.0302 17.2567 10.4962 16.8236C10.6431 16.6863 10.6451 16.4195 10.4962 16.2822C10.3377 16.1392 10.1114 16.1372 9.95484 16.2822Z" fill="white"/>
<path d="M11.8262 18.1666C11.8397 18.5842 11.8513 18.9999 11.8629 19.4175C11.8687 19.6167 12.035 19.81 12.2457 19.8003C12.4487 19.7907 12.6343 19.6321 12.6285 19.4175C12.6169 18.9999 12.6034 18.5842 12.5918 18.1666C12.586 17.9674 12.4197 17.7741 12.209 17.7838C12.006 17.7934 11.8184 17.952 11.8262 18.1666Z" fill="white"/>
<path d="M15.4313 17.4551C15.671 17.8689 15.963 18.2536 16.2936 18.5997C16.4328 18.7447 16.6977 18.7505 16.835 18.5997C16.978 18.445 16.9819 18.213 16.835 18.0584C16.6977 17.9153 16.5701 17.7664 16.4483 17.6098C16.4676 17.6349 16.4889 17.662 16.5082 17.6871C16.3574 17.4899 16.2182 17.2831 16.0925 17.0684C15.992 16.8944 15.7426 16.819 15.5686 16.9312C15.3926 17.0433 15.323 17.2695 15.4313 17.4551Z" fill="white"/>
<path d="M17.0487 15.5147C17.4121 15.7274 17.8104 15.8898 18.2203 15.9903C18.4137 16.0367 18.6437 15.9285 18.6901 15.7235C18.7346 15.5263 18.6302 15.3039 18.4233 15.2537C18.2145 15.2034 18.0115 15.1357 17.8124 15.0526C17.8433 15.0661 17.8742 15.0777 17.9032 15.0913C17.7408 15.0236 17.5842 14.9443 17.4334 14.8554C17.2613 14.7549 17.0061 14.8109 16.9094 14.9927C16.8128 15.1744 16.863 15.4084 17.0487 15.5147Z" fill="white"/>
<path d="M28.9137 10.9127C29.8824 11.9876 31.3963 12.4923 32.8135 12.1887C34.2384 11.8832 35.4256 10.7986 35.8548 9.40651C36.1061 8.5906 36.0945 7.69735 35.8258 6.88724C35.6924 6.48702 35.0563 6.65909 35.1916 7.06125C35.7156 8.63507 35.0737 10.3752 33.6178 11.1872C32.2122 11.9722 30.4489 11.6338 29.3797 10.4467C29.0955 10.1335 28.6315 10.5994 28.9137 10.9127Z" fill="white"/>
<path d="M30.6432 11.9324C30.5562 12.3655 30.4711 12.7985 30.3841 13.2316C30.3512 13.3998 30.4324 13.5951 30.6142 13.6357C30.7785 13.6725 30.9835 13.5855 31.0183 13.4056C31.1053 12.9726 31.1903 12.5395 31.2773 12.1064C31.3102 11.9382 31.229 11.7429 31.0473 11.7023C30.8849 11.6655 30.678 11.7526 30.6432 11.9324Z" fill="white"/>
<path d="M33.1005 11.9988C33.3035 12.4435 33.5065 12.8882 33.7114 13.3348C33.783 13.4914 34.0227 13.5417 34.1619 13.4528C34.3243 13.3484 34.3572 13.1705 34.2799 13.0023C34.0768 12.5576 33.8738 12.1129 33.6689 11.6663C33.5973 11.5097 33.3576 11.4594 33.2184 11.5483C33.056 11.6527 33.0231 11.8306 33.1005 11.9988Z" fill="white"/>
<path d="M35.0969 10.2684C35.4817 10.6029 35.9051 10.8929 36.3653 11.1172C36.5199 11.1926 36.7287 11.1636 36.8158 10.9992C36.8931 10.8504 36.8622 10.6299 36.6978 10.5487C36.4851 10.4443 36.2783 10.3264 36.0791 10.1949C35.9824 10.1311 35.8858 10.0615 35.793 9.9919C35.7582 9.96677 35.7968 9.99384 35.8084 10.0054C35.7968 9.99577 35.7852 9.98804 35.7756 9.97837C35.7524 9.96097 35.7311 9.94357 35.7098 9.92423C35.6596 9.88363 35.6112 9.84303 35.5629 9.80049C35.4333 9.68835 35.2226 9.66322 35.0969 9.80049C34.9828 9.9281 34.9577 10.1485 35.0969 10.2684Z" fill="white"/>
<path d="M35.7454 8.44898C36.2791 8.47412 36.8127 8.49925 37.3483 8.52439C37.5203 8.53212 37.6847 8.36778 37.677 8.1957C37.6692 8.01009 37.5319 7.87475 37.3483 7.86702C36.8146 7.84188 36.281 7.81675 35.7454 7.79161C35.5734 7.78388 35.409 7.94822 35.4168 8.1203C35.4264 8.30591 35.5618 8.44125 35.7454 8.44898Z" fill="white"/>
</svg>
