<svg width="43" height="35" viewBox="0 0 43 35" fill="none" xmlns="http://www.w3.org/2000/svg">
<path fill-rule="evenodd" clip-rule="evenodd" d="M1.41178 18.8018C1.41178 18.8018 21.5215 1.79272 30.5325 8.19831C39.5497 14.5863 37.3489 26.1423 37.3489 26.1423L31.1326 22.2603C31.1326 22.2603 31.0102 27.2831 29.0571 33.0094C29.0809 32.998 19.1118 23.7432 1.41178 18.8018Z" fill="#83B6FC"/>
<path fill-rule="evenodd" clip-rule="evenodd" d="M31.0869 17.4375C33.7219 19.9644 35.7836 22.8839 37.3556 26.1263L31.1393 22.2445C31.5174 20.7743 31.5369 19.1981 31.0869 17.4375Z" fill="#6AA7FB"/>
<path d="M9.66361 17.6115C9.66361 18.2821 9.11953 18.8258 8.44838 18.8258C7.77723 18.8258 7.23315 18.2821 7.23315 17.6115C7.23315 16.9408 7.77723 16.3971 8.44838 16.3971C9.11953 16.3971 9.66361 16.9408 9.66361 17.6115Z" fill="#FDF7CE"/>
<path d="M18.3394 20.0219C18.3394 20.6926 17.7953 21.2363 17.1242 21.2363C16.453 21.2363 15.9089 20.6926 15.9089 20.0219C15.9089 19.3512 16.453 18.8075 17.1242 18.8075C17.7953 18.8075 18.3394 19.3512 18.3394 20.0219Z" fill="#FDF7CE"/>
<path d="M27.0253 12.3079C27.0253 13.2449 26.2651 14.0045 25.3275 14.0045C24.3898 14.0045 23.6296 13.2449 23.6296 12.3079C23.6296 11.3709 24.3898 10.6113 25.3275 10.6113C26.2651 10.6113 27.0253 11.3709 27.0253 12.3079Z" fill="#FDF7CE"/>
<path d="M26.0599 20.9881C26.0599 21.9251 25.2998 22.6847 24.3621 22.6847C23.4244 22.6847 22.6643 21.9251 22.6643 20.9881C22.6643 20.0511 23.4244 19.2914 24.3621 19.2914C25.2998 19.2914 26.0599 20.0511 26.0599 20.9881Z" fill="#FDF7CE"/>
<path d="M28.9535 27.7393C28.9535 28.6764 28.1934 29.436 27.2557 29.436C26.318 29.436 25.5579 28.6764 25.5579 27.7393C25.5579 26.8023 26.318 26.0427 27.2557 26.0427C28.1934 26.0427 28.9535 26.8023 28.9535 27.7393Z" fill="#FDF7CE"/>
<path d="M33.295 15.2002C33.295 15.8708 32.7509 16.4145 32.0797 16.4145C31.4086 16.4145 30.8645 15.8708 30.8645 15.2002C30.8645 14.5295 31.4086 13.9858 32.0797 13.9858C32.7509 13.9858 33.295 14.5295 33.295 15.2002Z" fill="#FDF7CE"/>
<path d="M17.3817 12.3079C17.3817 13.2449 16.6216 14.0045 15.6839 14.0045C14.7462 14.0045 13.9861 13.2449 13.9861 12.3079C13.9861 11.3709 14.7462 10.6113 15.6839 10.6113C16.6216 10.6113 17.3817 11.3709 17.3817 12.3079Z" fill="#FDF7CE"/>
</svg>
