<svg width="45" height="139" viewBox="0 0 45 139" fill="none" xmlns="http://www.w3.org/2000/svg">
<path d="M10.3027 14.9831C12.5322 14.7034 14.7705 14.4326 17 14.1529C14.8055 13.8908 12.6109 13.6286 10.4251 13.3665C11.1771 12.4053 11.9202 11.444 12.6721 10.4915C11.7191 11.243 10.7661 11.9858 9.81311 12.7373C9.53333 10.4915 9.26231 8.24577 8.98252 6C8.71148 8.27198 8.44043 10.5527 8.16939 12.8247C7.14644 12.0208 6.11475 11.2256 5.0918 10.4216C5.86994 11.4091 6.6481 12.3965 7.42624 13.3927C5.28416 13.6548 3.14208 13.9257 1 14.1879C3.18579 14.45 5.37159 14.7122 7.55738 14.9743C6.7705 15.988 5.97487 17.0016 5.18799 18.0066C6.2022 17.2114 7.21639 16.4162 8.2306 15.6122C8.49289 17.7444 8.75518 19.8678 9.01748 22C9.27103 19.9028 9.5246 17.7968 9.7694 15.6996C10.7137 16.4337 11.6579 17.1764 12.6022 17.9104C11.8328 16.9405 11.0634 15.9618 10.3027 14.9831Z" fill="#A273C5" fill-opacity="0.5"/>
<path d="M38.308 14.9875C40.5416 14.7091 42.7751 14.4394 45 14.1609C42.8099 13.8999 40.6198 13.6389 38.4297 13.3779C39.1771 12.4209 39.9245 11.4551 40.6719 10.4981C39.7246 11.2463 38.7686 11.9946 37.8213 12.7428C37.5432 10.4981 37.2651 8.2447 36.987 6C36.7175 8.2795 36.4394 10.5503 36.17 12.8298C35.1445 12.0294 34.119 11.2289 33.0934 10.4285C33.8669 11.4203 34.6491 12.4122 35.4226 13.3953C33.2846 13.6563 31.138 13.926 29 14.187C31.1814 14.4481 33.3715 14.7091 35.553 14.9701C34.7621 15.9793 33.9712 16.9973 33.189 18.0065C34.2059 17.2061 35.214 16.4144 36.2308 15.6139C36.4916 17.7455 36.7523 19.8771 37.0217 22C37.2738 19.8945 37.5258 17.7977 37.7778 15.6922C38.7251 16.4318 39.6638 17.1713 40.6111 17.9021C39.8463 16.9364 39.0728 15.9619 38.308 14.9875Z" fill="#A273C5" fill-opacity="0.5"/>
<path d="M25.9735 6.75331C27.646 6.54947 29.3186 6.33677 31 6.13293C29.354 5.93796 27.7168 5.74298 26.0708 5.53914C26.6283 4.82127 27.1947 4.09453 27.7522 3.37666C27.0354 3.935 26.3274 4.50222 25.6106 5.06056C25.4071 3.37667 25.1947 1.6839 24.9823 0C24.7787 1.71049 24.5752 3.42097 24.3717 5.1226C23.6018 4.51994 22.8319 3.91728 22.0619 3.32348C22.646 4.06794 23.2301 4.8124 23.8142 5.548C22.2124 5.74298 20.6018 5.94683 19 6.14181C20.6372 6.33678 22.2743 6.53175 23.9115 6.72673C23.3186 7.48891 22.7256 8.24224 22.1327 9.00443C22.8938 8.40177 23.6549 7.80798 24.4159 7.20532C24.6106 8.80059 24.8141 10.4047 25.0088 12C25.1947 10.4225 25.3894 8.8449 25.5752 7.26735C26.2832 7.81683 26.9911 8.37519 27.6991 8.92467C27.1239 8.21566 26.5487 7.48005 25.9735 6.75331Z" fill="#A273C5" fill-opacity="0.5"/>
<path d="M23.0977 127.168C26.3661 126.761 29.6439 126.363 32.9123 125.956C29.7008 125.567 26.4892 125.188 23.2777 124.8C24.3766 123.398 25.4661 121.986 26.565 120.584C25.1724 121.683 23.7798 122.772 22.3872 123.871C21.9798 120.584 21.5725 117.287 21.1651 114C20.7672 117.335 20.3693 120.669 19.9715 124.004C18.4652 122.829 16.9683 121.664 15.4621 120.489C16.5989 121.939 17.7452 123.388 18.882 124.838C15.7463 125.226 12.6105 125.615 9.46533 126.003C12.6674 126.382 15.8694 126.77 19.0715 127.149C17.9157 128.627 16.7599 130.114 15.6041 131.592C17.0915 130.427 18.5788 129.252 20.0567 128.087C20.4451 131.204 20.8241 134.321 21.2125 137.447C21.5819 134.368 21.9514 131.289 22.3209 128.22C23.704 129.3 25.0871 130.38 26.4703 131.46C25.3429 130.02 24.225 128.599 23.0977 127.168Z" fill="#A273C5"/>
<path d="M6.60304 133.989C8.19459 133.79 9.77666 133.601 11.3682 133.402C9.80508 133.213 8.25142 133.033 6.6883 132.843C7.21881 132.161 7.74933 131.479 8.28932 130.797C7.6167 131.327 6.93462 131.858 6.262 132.398C6.06306 130.797 5.86412 129.205 5.67465 127.604C5.48518 129.224 5.28622 130.844 5.09675 132.464C4.36729 131.896 3.63783 131.327 2.90837 130.759C3.45784 131.46 4.01678 132.17 4.56624 132.872C3.041 133.061 1.51576 133.25 0 133.44C1.55366 133.629 3.10732 133.809 4.66098 133.999C4.10204 134.719 3.53363 135.439 2.9747 136.159C3.69468 135.59 4.41467 135.022 5.13465 134.454C5.32413 135.969 5.50412 137.485 5.69359 139.001C5.87359 137.504 6.05359 136.017 6.23359 134.52C6.9062 135.041 7.57883 135.571 8.25145 136.093C7.70198 135.382 7.1525 134.681 6.60304 133.989Z" fill="#A273C5"/>
</svg>
