<svg width="39" height="33" viewBox="0 0 39 33" fill="none" xmlns="http://www.w3.org/2000/svg">
<path d="M27.5262 4.24043C25.6919 5.85748 23.9277 7.57737 22.1572 9.29095L19.5333 11.9048C19.0962 12.3384 18.664 12.7861 18.2333 13.226C17.7995 13.6674 17.3656 14.1073 16.9381 14.5567C15.2122 16.3335 13.5119 18.1468 11.8148 19.9679L9.285 22.7211L8.02808 24.1134L7.40121 24.808L7.08699 25.1545L7.00883 25.2416L6.96896 25.2859C6.95779 25.3033 6.94025 25.3112 6.93706 25.3397C6.92909 25.3634 6.94025 25.4109 6.95461 25.4678C6.96418 25.4963 6.97534 25.5343 6.98969 25.5707L7.04711 25.7083L7.07583 25.7764L7.12208 25.8681L7.16515 25.9599L7.18908 26.0074L7.22097 26.0675L7.35018 26.3128L7.41876 26.4393L7.50969 26.5991L7.4746 26.5469L7.31509 26.2859L7.19227 26.077L6.95938 25.6814L6.90196 25.5818L6.85889 25.5074L6.77756 25.3618L6.69621 25.2163L6.63879 25.1071L6.52712 24.8856L6.45216 24.7258C6.4394 24.6846 6.41387 24.6372 6.40749 24.6071C6.39633 24.577 6.38995 24.5486 6.38995 24.5312C6.38357 24.49 6.40271 24.4853 6.41228 24.4615L6.44737 24.4125L6.51596 24.308L6.78552 23.8967L7.32625 23.0739L8.40771 21.4236C9.13985 20.3429 9.8672 19.2512 10.6041 18.1753C11.3458 17.1088 12.078 16.025 12.834 14.9775L13.9601 13.3953L15.099 11.8336C15.477 11.3099 15.8615 10.7972 16.2459 10.2846C16.6319 9.77195 17.0131 9.25139 17.4087 8.75456L19.7582 5.73564C21.3613 3.77682 22.9547 1.80218 24.663 0L27.5262 4.24043Z" fill="#F389B8"/>
<path d="M30.3847 8.48442C28.426 9.91952 26.4896 11.3831 24.5532 12.8482C22.6232 14.3213 20.6931 15.7928 18.7726 17.2817C16.8506 18.7674 14.9365 20.2642 13.0241 21.7642L10.1593 24.0205L8.73175 25.155L8.01874 25.7183L7.65985 26.0015C7.56575 26.1328 7.32331 26.0426 7.5498 26.6518L7.51472 26.5996L7.42379 26.4397L7.35521 26.3132L7.226 26.0679L7.19411 26.0078L7.17018 25.9603L7.12711 25.8686L7.08085 25.7768L7.05215 25.7087L6.99473 25.5711C6.98037 25.5363 6.96759 25.4967 6.95962 25.4682C6.94367 25.4097 6.9341 25.3638 6.94208 25.3401C6.94527 25.3116 6.96282 25.3037 6.97399 25.2863L7.01387 25.242L7.09202 25.155L7.40624 24.8085L8.03311 24.1138L9.29002 22.7215L11.8198 19.9684C13.5153 18.1472 15.2157 16.3339 16.9431 14.5571C17.3706 14.1077 17.8061 13.6679 18.2383 13.2264C18.6706 12.7865 19.1012 12.3388 19.5383 11.9052L22.1621 9.29136C23.9311 7.57779 25.6968 5.8579 27.5312 4.24084L30.3847 8.48442Z" fill="#FFD87D"/>
<path d="M33.2423 12.7292C31.1592 13.976 29.0537 15.1896 26.9482 16.4032C24.8395 17.6104 22.7276 18.8145 20.6078 20.0059C18.4895 21.1974 16.3633 22.3793 14.2339 23.5565L11.0358 25.3191L9.43432 26.1957L8.6336 26.6308L8.23325 26.8507C8.07534 26.8903 8.06576 27.1435 7.58724 26.7068L7.55216 26.6514C7.32566 26.0438 7.5681 26.1324 7.66221 26.0011L8.0211 25.7178L8.73409 25.1546L10.1617 24.0201L13.0264 21.7638C14.9389 20.2638 16.853 18.767 18.775 17.2813C20.6955 15.7924 22.6255 14.3209 24.5556 12.8478C26.492 11.3827 28.4284 9.91911 30.3871 8.48401L33.2423 12.7292Z" fill="#83CFCC"/>
<path d="M36.1025 16.9714C33.895 18.0331 31.6188 18.992 29.3458 19.9587L25.9085 21.3638C25.3375 21.5979 24.7552 21.8226 24.1794 22.0504C23.602 22.2799 23.0246 22.5077 22.444 22.7308C20.1263 23.6295 17.788 24.4966 15.4433 25.3526L11.9102 26.6184L10.1349 27.2355L9.24643 27.5456L8.80299 27.7006L8.69294 27.7386L8.6355 27.7608C8.61796 27.7655 8.60202 27.7782 8.57331 27.7734C8.54779 27.7655 8.50631 27.7386 8.46005 27.7038C8.43453 27.6832 8.40581 27.6563 8.3771 27.631L8.27025 27.5266L8.2176 27.4728L8.15062 27.3984L8.08042 27.3225L8.04693 27.2829L8.00067 27.2291L7.82362 27.0155L7.73111 26.9048L7.61785 26.7608L7.58276 26.7086C8.06128 27.1469 8.07246 26.8921 8.22877 26.8526L8.62914 26.6326L9.42986 26.1975L11.0313 25.3209L14.2294 23.5583C16.3588 22.3811 18.4851 21.1992 20.6033 20.0078C22.7247 18.8163 24.835 17.6123 26.9437 16.405C29.0492 15.1914 31.1547 13.9778 33.2378 12.731L36.1025 16.9714Z" fill="#78D2F7"/>
<path d="M38.9605 21.2174C36.6269 22.0924 34.1801 22.7981 31.7412 23.5164L28.0311 24.5164C27.4154 24.6888 26.7837 24.8392 26.1601 24.9958C25.5332 25.1524 24.9095 25.3091 24.2779 25.4578L22.3862 25.9024L20.4801 26.3296C19.2152 26.6192 17.9264 26.8771 16.6503 27.1492C15.3663 27.4135 14.0727 27.6635 12.7838 27.9214L10.8347 28.279L9.86009 28.4578L9.37358 28.5495L9.25236 28.5717L9.19017 28.5828C9.16783 28.5828 9.15506 28.6002 9.11997 28.5796C9.10243 28.5717 9.08169 28.5558 9.05457 28.5353C9.03064 28.5131 8.99237 28.4752 8.96366 28.4451L8.84084 28.3169L8.68133 28.1302L8.59998 28.0353L8.4963 27.9024L8.38944 27.7758L8.33519 27.7046L8.26502 27.6144L7.98429 27.2505L7.83753 27.0591L7.65569 26.8122L7.62061 26.76L7.73387 26.904L7.82638 27.0147L8.00343 27.2283L8.04969 27.2822L8.08318 27.3217L8.15337 27.3977L8.22035 27.472L8.273 27.5258L8.37986 27.6302C8.40857 27.6556 8.43728 27.6824 8.46281 27.703C8.50906 27.7378 8.55053 27.7647 8.57605 27.7726C8.60476 27.7774 8.61912 27.7647 8.63826 27.76L8.69568 27.7378L8.80575 27.6998L9.24918 27.5448L10.1376 27.2347L11.9129 26.6176L15.446 25.3518C17.7908 24.4958 20.1291 23.6287 22.4467 22.73C23.0274 22.5069 23.6048 22.2791 24.1822 22.0497C24.758 21.8234 25.3386 21.5987 25.9112 21.363L29.3486 19.9579C31.62 18.9912 33.8978 18.0323 36.1053 16.9706L38.9605 21.2174Z" fill="#B57FB8"/>
<path d="M6.78744 18.8953C7.09689 18.2751 7.60094 18.2751 7.91038 18.8953L9.24705 21.5819C9.5549 22.2038 10.3732 22.7939 11.0622 22.892L14.0562 23.324C14.7453 23.4221 14.9032 23.9015 14.4023 24.3841L12.2378 26.4758C11.7401 26.96 11.4259 27.9125 11.544 28.5944L12.056 31.5485C12.1724 32.232 11.7641 32.5279 11.1484 32.2035L8.47185 30.8096C7.85456 30.4868 6.84327 30.4868 6.22597 30.8096L3.54944 32.2035C2.93215 32.5279 2.52382 32.232 2.64185 31.5485L3.15386 28.5944C3.2703 27.9125 2.95927 26.96 2.46001 26.4758L0.292314 24.3841C-0.205348 23.9015 -0.0490422 23.4237 0.640029 23.324L3.63398 22.892C4.32465 22.7939 5.14133 22.2038 5.44917 21.5819L6.78744 18.8953Z" fill="#B39ADB"/>
<path d="M11.588 28.8503C10.7904 29.2174 9.90679 29.4247 8.98325 29.4247C5.53792 29.4247 2.66363 26.5735 2.66363 23.1574C2.66363 23.1147 2.66523 23.0736 2.66683 23.0324L0.639494 23.3252C-0.0495705 23.4233 -0.20747 23.9027 0.291783 24.3853L2.45946 26.477C2.95871 26.9611 3.26975 27.9137 3.15331 28.5956L2.6413 31.5497C2.52167 32.2332 2.92999 32.5291 3.54888 32.2047L6.22539 30.8107C6.84267 30.488 7.85395 30.488 8.47124 30.8107L11.1477 32.2047C11.765 32.5291 12.1734 32.2332 12.0553 31.5497L11.588 28.8503Z" fill="#B39ADB"/>
</svg>
