<svg width="26" height="25" viewBox="0 0 26 25" fill="none" xmlns="http://www.w3.org/2000/svg">
<path d="M11.9332 0.817512C12.4757 -0.272504 13.3637 -0.272504 13.9051 0.817512L16.2569 5.54479C16.7994 6.63799 18.2363 7.67283 19.4497 7.84689L24.7128 8.60681C25.9261 8.78088 26.2011 9.62041 25.3227 10.4684L21.5179 14.1482C20.6395 14.9973 20.0916 16.6731 20.2971 17.8725L21.1969 23.0689C21.4034 24.2682 20.6855 24.7862 19.5995 24.2194L14.8948 21.7655C13.8088 21.1998 12.0316 21.1998 10.9467 21.7655L6.24101 24.2205C5.15393 24.7872 4.43706 24.2672 4.64356 23.0678L5.5434 17.8704C5.75097 16.671 5.20208 14.9951 4.32364 14.1482L0.516723 10.4663C-0.360644 9.61723 -0.0856629 8.77876 1.1266 8.6047L6.38866 7.84476C7.60307 7.6707 9.03896 6.63587 9.5825 5.54267L11.9332 0.817512Z" fill="#FDB73B"/>
<path d="M20.3723 18.3248C18.9696 18.9701 17.4182 19.3342 15.7929 19.3342C9.73692 19.3342 4.68242 14.3192 4.68242 8.31087C4.68242 8.23764 4.68777 8.16546 4.68777 8.09222L1.12373 8.60592C-0.0896034 8.77998 -0.363515 9.61952 0.513853 10.4675L4.32077 14.1494C5.20028 14.9974 5.74917 16.6733 5.54053 17.8716L4.64069 23.0691C4.43312 24.2684 5.15106 24.7885 6.23814 24.2217L10.9438 21.7668C12.0288 21.2011 13.806 21.2011 14.892 21.7668L19.5966 24.2207C20.6815 24.7864 21.3995 24.2695 21.1941 23.0701L20.3723 18.3248Z" fill="#FAA83B"/>
</svg>
