<svg width="48" height="149" viewBox="0 0 48 149" fill="none" xmlns="http://www.w3.org/2000/svg">
<path d="M40.724 85.4224C42.816 85.1616 44.908 84.9071 47 84.6463C44.9462 84.3982 42.8923 84.1565 40.8385 83.9084C41.5379 83.0115 42.2437 82.1081 42.9432 81.2112C42.053 81.9109 41.1628 82.6171 40.2662 83.3168C40.0055 81.2112 39.7448 79.1056 39.4841 77C39.2298 79.131 38.9754 81.2684 38.7211 83.3995C37.7609 82.6489 36.8008 81.8982 35.8343 81.1476C36.5655 82.0763 37.2904 83.0051 38.0216 83.9338C36.0123 84.1819 34.0093 84.43 32 84.6781C34.0475 84.9262 36.0949 85.1679 38.1424 85.416C37.4048 86.3639 36.6609 87.3117 35.9233 88.2595C36.8707 87.5089 37.8245 86.7646 38.7719 86.014C39.0199 88.0114 39.2679 90.0089 39.5095 92C39.7448 90.028 39.9801 88.0623 40.2153 86.0903C41.0992 86.7837 41.9894 87.4707 42.8732 88.1641C42.1611 87.2545 41.4425 86.3384 40.724 85.4224Z" fill="#A273C5"/>
<path d="M41.1401 130.581C43.3901 130.301 45.6301 130.031 47.8801 129.751C45.6801 129.491 43.4701 129.221 41.2701 128.961C42.0201 128.001 42.78 127.031 43.53 126.071C42.57 126.821 41.62 127.571 40.66 128.331C40.38 126.071 40.1001 123.811 39.8201 121.551C39.5501 123.841 39.2701 126.131 39.0001 128.421C37.9701 127.621 36.9401 126.811 35.9001 126.011C36.6801 127.011 37.4601 128.001 38.2501 129.001C36.1001 129.271 33.94 129.531 31.79 129.801C33.99 130.061 36.1801 130.331 38.3801 130.591C37.5901 131.611 36.7901 132.631 36.0001 133.641C37.0201 132.841 38.0401 132.041 39.0601 131.231C39.3201 133.371 39.59 135.511 39.85 137.651C40.1 135.541 40.36 133.421 40.61 131.311C41.56 132.051 42.5101 132.791 43.4601 133.531C42.6901 132.551 41.9201 131.571 41.1401 130.581Z" fill="#A273C5" fill-opacity="0.6"/>
<path d="M24.4602 139.591C27.2902 139.241 30.1302 138.891 32.9602 138.541C30.1802 138.211 27.4002 137.871 24.6202 137.541C25.5702 136.321 26.5202 135.111 27.4702 133.891C26.2602 134.841 25.0602 135.791 23.8502 136.741C23.5002 133.891 23.1502 131.041 22.7902 128.191C22.4402 131.081 22.1002 133.971 21.7502 136.851C20.4502 135.831 19.1502 134.821 17.8502 133.801C18.8402 135.061 19.8202 136.311 20.8102 137.571C18.0902 137.911 15.3802 138.241 12.6602 138.581C15.4302 138.911 18.2002 139.241 20.9802 139.571C19.9802 140.851 18.9802 142.141 17.9802 143.421C19.2702 142.411 20.5502 141.401 21.8402 140.391C22.1702 143.091 22.5102 145.791 22.8402 148.491C23.1602 145.821 23.4802 143.161 23.8002 140.491C25.0002 141.431 26.2002 142.361 27.4002 143.301C26.4102 142.071 25.4302 140.831 24.4602 139.591Z" fill="#A273C5" fill-opacity="0.6"/>
<path d="M7.07001 130.791C8.77001 130.581 10.46 130.371 12.16 130.161C10.49 129.961 8.82997 129.761 7.15997 129.561C7.72997 128.831 8.3 128.101 8.87 127.371C8.14999 127.941 7.42001 128.511 6.70001 129.081C6.49001 127.371 6.28001 125.671 6.07001 123.961C5.86001 125.691 5.66001 127.421 5.45001 129.151C4.67001 128.541 3.88999 127.931 3.10999 127.331C3.69999 128.081 4.29 128.831 4.88 129.591C3.25 129.791 1.63 129.991 0 130.191C1.66 130.391 3.32001 130.591 4.98001 130.791C4.38001 131.561 3.77999 132.331 3.17999 133.101C3.94999 132.491 4.71999 131.891 5.48999 131.281C5.68999 132.901 5.89 134.521 6.09 136.131C6.28 134.531 6.47 132.941 6.66 131.341C7.38 131.901 8.1 132.461 8.81 133.021C8.24 132.271 7.66001 131.531 7.07001 130.791Z" fill="#A273C5" fill-opacity="0.6"/>
<path d="M9.56018 6.74325C11.3735 6.53379 13.1867 6.33108 15 6.12162C13.2233 5.92567 11.4393 5.72973 9.66255 5.53378C10.2694 4.81081 10.8763 4.0946 11.4831 3.37162C10.7081 3.93243 9.94037 4.49325 9.16535 5.05406C8.93869 3.37163 8.71204 1.68243 8.49269 0C8.27334 1.70946 8.05399 3.41892 7.82734 5.12162C6.99381 4.52027 6.16028 3.91892 5.32676 3.31757C5.95556 4.06081 6.59166 4.80406 7.22046 5.5473C5.4803 5.74324 3.74016 5.94594 2 6.14189C3.77672 6.33783 5.54612 6.53378 7.32283 6.72973C6.67941 7.48649 6.0433 8.25 5.39988 9.00675C6.22609 8.4054 7.04499 7.81081 7.8712 7.20945C8.08324 8.80405 8.29528 10.4054 8.51463 12C8.71935 10.4257 8.92407 8.8446 9.1288 7.27027C9.89651 7.82433 10.6642 8.37838 11.4319 8.93243C10.8031 8.20946 10.1817 7.47298 9.56018 6.74325Z" fill="#A273C5" fill-opacity="0.6"/>
<path d="M22.6532 12.0497C23.771 11.8981 24.8889 11.7388 26 11.5872C24.9024 11.4431 23.8114 11.2915 22.7138 11.1474C23.0909 10.6091 23.4613 10.0708 23.8384 9.52484C23.3603 9.94944 22.8889 10.3665 22.4108 10.7911C22.2694 9.52485 22.1347 8.26622 21.9933 7C21.8586 8.28138 21.7239 9.56276 21.5825 10.8441C21.0707 10.3968 20.5589 9.94187 20.0471 9.49452C20.4377 10.048 20.8283 10.6091 21.2121 11.1626C20.1414 11.3142 19.0707 11.4583 18 11.6099C19.0909 11.754 20.1818 11.9056 21.2795 12.0497C20.8822 12.6184 20.4916 13.187 20.0943 13.7557C20.5993 13.3083 21.1111 12.861 21.6162 12.4061C21.7508 13.604 21.8788 14.802 22.0135 16C22.1414 14.8172 22.2626 13.6344 22.3906 12.4516C22.862 12.8686 23.3333 13.278 23.8114 13.695C23.4209 13.1491 23.037 12.5956 22.6532 12.0497Z" fill="#A273C5" fill-opacity="0.6"/>
</svg>
