<svg width="375" height="376" viewBox="0 0 375 376" fill="none" xmlns="http://www.w3.org/2000/svg">
<path opacity="0.38" d="M99.8008 236.581L173.543 269.572L273.27 253.382L357.767 0.00047111L18 0.224609L99.8008 236.581Z" fill="url(#paint0_linear_458_59)"/>
<path d="M174.194 270.632L100.142 236.531L188.467 222.009L273.269 253.383L174.194 270.632Z" fill="url(#paint1_linear_458_59)"/>
<path d="M188.626 222.067L185.82 268.656L273.269 253.383L188.626 222.067Z" fill="url(#paint2_linear_458_59)"/>
<path d="M173.543 271.84L100.292 238.098L100.483 249.3L172.819 286.013L173.543 271.84Z" fill="url(#paint3_linear_458_59)"/>
<path d="M149.791 188.594L198.999 243.072L171.647 255.093L149.823 238.434L149.791 188.594Z" fill="url(#paint4_linear_458_59)"/>
<path d="M76.0812 192.179L260.727 220.451L276.032 168.132L76.0449 137.118L76.0812 192.179Z" fill="url(#paint5_linear_458_59)"/>
<path d="M76.0453 137.119L298.677 101.655L280.598 159.664L76.0816 192.18L76.0453 137.119Z" fill="#00A0B1"/>
<path d="M298.677 101.655L76.0453 137.119L76.0816 192.18L298.677 101.655Z" fill="url(#paint6_linear_458_59)"/>
<path d="M149.825 238.433L260.727 220.451L276.033 168.133L149.792 188.594L167.248 210.687L149.825 238.433Z" fill="#00A0B1"/>
<path d="M276.032 168.133L149.791 188.594L149.505 210.698L149.824 238.433L276.032 168.133Z" fill="url(#paint7_linear_458_59)"/>
<path d="M198.999 243.072L159.86 253.049L186.728 280.582L198.999 243.072Z" fill="#00A0B1"/>
<path d="M179.567 248.023L159.859 253.049L186.728 280.583L179.567 248.023Z" fill="url(#paint8_linear_458_59)"/>
<path d="M198.999 243.072L159.86 253.049L186.728 280.582L198.999 243.072Z" fill="url(#paint9_linear_458_59)"/>
<path d="M76.0454 137.118L131.668 128.048L187.315 119.094L215.139 114.613L242.971 110.216L298.644 101.446L298.986 101.395L298.886 101.721L289.779 130.704L280.598 159.663L289.496 130.613L298.477 101.596L298.711 101.871L243.072 110.824L215.248 115.297L187.407 119.678L131.735 128.456L76.0454 137.118Z" fill="#32E2EA"/>
<path d="M104.804 157.553L100.077 158.319L99.2436 160.65L94.9793 161.341L100.408 147.86L104.53 147.192L109.976 158.911L105.64 159.614L104.804 157.553ZM103.647 154.68L102.436 151.708L101.23 155.072L103.647 154.68ZM115.973 154.77L114.836 154.955L114.838 158.123L110.645 158.802L110.637 146.202L116.624 145.232C117.773 145.046 118.774 145.075 119.628 145.321C120.481 145.567 121.138 146.012 121.601 146.658C122.063 147.303 122.295 148.105 122.296 149.065C122.296 149.965 122.095 150.784 121.693 151.521C121.291 152.258 120.711 152.887 119.953 153.405L122.567 156.87L118.09 157.596L115.973 154.77ZM118.067 149.751C118.066 149.283 117.924 148.946 117.64 148.74C117.355 148.522 116.929 148.459 116.36 148.551L114.832 148.799L114.834 151.751L116.362 151.503C116.931 151.411 117.357 151.216 117.641 150.918C117.925 150.608 118.067 150.219 118.067 149.751ZM130.405 155.888C129.067 156.105 127.864 156.018 126.798 155.626C125.731 155.235 124.896 154.59 124.291 153.692C123.686 152.782 123.383 151.697 123.382 150.437C123.382 149.177 123.683 148 124.286 146.906C124.89 145.8 125.724 144.879 126.79 144.142C127.856 143.406 129.058 142.929 130.397 142.712C131.735 142.495 132.938 142.582 134.004 142.973C135.071 143.364 135.906 144.015 136.511 144.925C137.116 145.823 137.418 146.902 137.419 148.162C137.42 149.422 137.119 150.605 136.515 151.711C135.912 152.805 135.077 153.72 134.012 154.457C132.946 155.194 131.744 155.671 130.405 155.888ZM130.403 152.45C130.924 152.365 131.392 152.163 131.806 151.844C132.233 151.511 132.57 151.09 132.818 150.582C133.067 150.062 133.191 149.484 133.191 148.848C133.19 148.212 133.065 147.68 132.816 147.252C132.567 146.812 132.229 146.501 131.803 146.318C131.388 146.121 130.92 146.065 130.399 146.15C129.878 146.234 129.404 146.443 128.978 146.776C128.563 147.095 128.232 147.515 127.983 148.035C127.735 148.544 127.611 149.116 127.611 149.752C127.612 150.388 127.736 150.926 127.986 151.365C128.235 151.793 128.567 152.105 128.981 152.302C129.408 152.485 129.882 152.534 130.403 152.45ZM150.051 152.416L150.011 146.679L147.313 151.725L145.466 152.025L142.762 148.052L142.766 153.596L138.945 154.216L138.937 141.616L142.384 141.057L146.44 147.114L150.38 139.761L153.827 139.202L153.871 151.797L150.051 152.416ZM164.372 147.898L159.646 148.664L158.812 150.996L154.548 151.687L159.976 138.206L164.099 137.537L169.544 149.256L165.209 149.959L164.372 147.898ZM163.215 145.025L162.005 142.053L160.799 145.417L163.215 145.025ZM172.283 139.505L168.641 140.096L168.639 136.802L180.117 134.941L180.119 138.235L176.476 138.826L176.483 148.132L172.289 148.811L172.283 139.505ZM181.206 134.765L185.399 134.085L185.407 146.685L181.214 147.365L181.206 134.765ZM193.858 145.603C192.543 145.817 191.359 145.733 190.304 145.351C189.25 144.958 188.42 144.313 187.815 143.415C187.222 142.503 186.925 141.411 186.924 140.139C186.924 138.867 187.219 137.685 187.811 136.593C188.414 135.487 189.243 134.572 190.297 133.849C191.35 133.115 192.535 132.641 193.85 132.427C195.058 132.232 196.136 132.273 197.084 132.551C198.032 132.83 198.814 133.327 199.43 134.043L196.785 136.866C196.014 136.007 195.108 135.662 194.065 135.831C193.189 135.973 192.484 136.375 191.951 137.038C191.419 137.688 191.153 138.493 191.153 139.453C191.154 140.413 191.421 141.138 191.954 141.628C192.488 142.105 193.193 142.273 194.069 142.131C195.112 141.962 196.018 141.323 196.787 140.214L199.436 142.179C198.82 143.095 198.039 143.846 197.092 144.431C196.144 145.017 195.067 145.408 193.858 145.603ZM210.613 142.888C209.582 143.055 208.575 143.104 207.592 143.036C206.62 142.953 205.821 142.765 205.193 142.47L206.541 139.155C207.133 139.407 207.797 139.582 208.532 139.679C209.266 139.764 209.971 139.752 210.646 139.642C211.227 139.548 211.641 139.427 211.89 139.279C212.138 139.118 212.263 138.924 212.263 138.696C212.262 138.432 212.096 138.261 211.765 138.183C211.445 138.103 210.912 138.045 210.165 138.01C209.206 137.961 208.406 137.875 207.766 137.751C207.126 137.614 206.569 137.321 206.095 136.869C205.621 136.406 205.384 135.719 205.383 134.807C205.382 134.015 205.601 133.259 206.039 132.54C206.477 131.821 207.128 131.205 207.992 130.693C208.869 130.179 209.929 129.821 211.173 129.62C212.025 129.482 212.861 129.442 213.678 129.502C214.507 129.547 215.236 129.699 215.864 129.958L214.605 133.24C213.384 132.814 212.229 132.689 211.139 132.866C210.061 133.04 209.522 133.392 209.523 133.92C209.523 134.172 209.683 134.338 210.003 134.418C210.323 134.486 210.85 134.533 211.585 134.558C212.532 134.584 213.332 134.664 213.984 134.799C214.635 134.921 215.198 135.208 215.672 135.659C216.158 136.109 216.402 136.789 216.402 137.701C216.403 138.493 216.184 139.249 215.746 139.968C215.308 140.675 214.651 141.291 213.775 141.817C212.911 142.33 211.856 142.686 210.613 142.888ZM217.644 128.859L221.838 128.179L221.844 137.485L227.459 136.575L227.461 139.869L217.653 141.459L217.644 128.859ZM238.958 134.801L238.96 138.005L228.619 139.682L228.611 127.082L238.721 125.443L238.723 128.647L232.735 129.617L232.736 131.093L237.995 130.241L237.997 133.301L232.738 134.153L232.739 135.809L238.958 134.801ZM250.913 132.864L250.915 136.068L240.574 137.744L240.566 125.144L250.676 123.505L250.678 126.709L244.69 127.68L244.691 129.156L249.951 128.303L249.953 131.363L244.693 132.216L244.694 133.872L250.913 132.864ZM258.509 122.236C259.658 122.049 260.659 122.079 261.512 122.325C262.366 122.571 263.023 123.016 263.486 123.661C263.948 124.306 264.18 125.109 264.18 126.069C264.181 127.029 263.951 127.906 263.489 128.701C263.028 129.496 262.371 130.155 261.518 130.677C260.665 131.199 259.664 131.553 258.515 131.74L256.721 132.031L256.723 135.127L252.53 135.806L252.521 123.206L258.509 122.236ZM258.247 128.507C258.815 128.415 259.242 128.22 259.526 127.922C259.81 127.611 259.952 127.222 259.952 126.754C259.951 126.286 259.809 125.949 259.524 125.744C259.24 125.526 258.813 125.463 258.245 125.555L256.717 125.803L256.719 128.755L258.247 128.507ZM107.449 181.323L107.41 175.586L104.712 180.632L102.864 180.932L100.161 176.959L100.164 182.503L96.3442 183.123L96.3359 170.523L99.7829 169.964L103.838 176.021L107.779 168.668L111.226 168.109L111.269 180.704L107.449 181.323ZM121.771 176.805L117.044 177.571L116.211 179.903L111.946 180.594L117.375 167.113L121.497 166.444L126.943 178.163L122.607 178.866L121.771 176.805ZM120.614 173.932L119.403 170.96L118.197 174.324L120.614 173.932ZM132.25 177.591C131.219 177.758 130.212 177.807 129.229 177.739C128.257 177.656 127.458 177.468 126.829 177.174L128.178 173.859C128.77 174.111 129.434 174.285 130.168 174.382C130.903 174.467 131.608 174.455 132.283 174.345C132.863 174.251 133.278 174.13 133.527 173.982C133.775 173.822 133.9 173.627 133.899 173.399C133.899 173.135 133.733 172.964 133.402 172.886C133.082 172.806 132.549 172.748 131.802 172.713C130.843 172.665 130.043 172.578 129.403 172.454C128.763 172.318 128.206 172.024 127.732 171.573C127.258 171.109 127.02 170.422 127.02 169.51C127.019 168.718 127.238 167.962 127.676 167.243C128.114 166.524 128.765 165.909 129.629 165.397C130.506 164.882 131.566 164.525 132.809 164.323C133.662 164.185 134.498 164.145 135.315 164.205C136.144 164.251 136.873 164.403 137.501 164.661L136.242 167.943C135.021 167.517 133.866 167.392 132.776 167.569C131.698 167.743 131.159 168.095 131.16 168.623C131.16 168.875 131.32 169.041 131.64 169.121C131.96 169.189 132.487 169.236 133.221 169.261C134.169 169.287 134.969 169.368 135.621 169.502C136.272 169.624 136.835 169.911 137.309 170.362C137.795 170.812 138.039 171.492 138.039 172.404C138.04 173.196 137.821 173.952 137.383 174.671C136.945 175.378 136.288 175.994 135.412 176.521C134.547 177.033 133.493 177.39 132.25 177.591ZM144.351 171.165L143.41 172.38L143.412 175.494L139.29 176.162L139.281 163.562L143.404 162.894L143.407 167.466L147.49 162.232L152.057 161.492L147.085 167.842L152.314 174.051L147.463 174.837L144.351 171.165ZM168.542 168.217L168.544 171.421L158.203 173.097L158.195 160.497L168.305 158.858L168.307 162.062L162.319 163.033L162.32 164.509L167.579 163.656L167.581 166.716L162.322 167.569L162.323 169.225L168.542 168.217ZM182.41 156.572L182.418 169.172L178.971 169.731L174.241 164.773L174.245 170.497L170.158 171.159L170.15 158.559L173.597 158L178.327 162.958L178.323 157.234L182.41 156.572ZM192.661 160.869L196.303 160.279L196.307 165.607C195.573 166.242 194.72 166.776 193.749 167.209C192.778 167.643 191.825 167.935 190.889 168.087C189.562 168.302 188.371 168.219 187.317 167.838C186.262 167.445 185.433 166.799 184.828 165.901C184.235 164.989 183.938 163.897 183.937 162.625C183.936 161.353 184.232 160.171 184.823 159.079C185.427 157.973 186.261 157.058 187.327 156.333C188.405 155.594 189.619 155.116 190.969 154.897C192.189 154.699 193.279 154.732 194.239 154.997C195.21 155.247 196.016 155.717 196.656 156.405L193.975 159.234C193.193 158.437 192.262 158.125 191.184 158.3C190.26 158.45 189.526 158.851 188.982 159.503C188.437 160.156 188.165 160.968 188.166 161.94C188.167 162.888 188.434 163.607 188.967 164.096C189.512 164.584 190.235 164.755 191.135 164.609C191.668 164.522 192.178 164.338 192.663 164.055L192.661 160.869ZM203.423 162.599L202.286 162.784L202.288 165.952L198.095 166.631L198.086 154.031L204.074 153.061C205.223 152.874 206.224 152.904 207.077 153.15C207.93 153.396 208.588 153.841 209.051 154.486C209.513 155.131 209.745 155.934 209.745 156.894C209.746 157.794 209.545 158.613 209.143 159.35C208.74 160.087 208.16 160.715 207.402 161.234L210.017 164.699L205.539 165.425L203.423 162.599ZM205.516 157.579C205.516 157.111 205.374 156.774 205.089 156.569C204.805 156.351 204.378 156.288 203.81 156.38L202.282 156.628L202.284 159.58L203.812 159.332C204.38 159.24 204.807 159.045 205.091 158.747C205.375 158.436 205.517 158.047 205.516 157.579ZM219.808 160.916L215.082 161.682L214.248 164.013L209.983 164.704L215.412 151.223L219.534 150.555L224.98 162.274L220.644 162.976L219.808 160.916ZM218.651 158.043L217.441 155.071L216.234 158.435L218.651 158.043ZM238.22 147.526L232.969 160.979L228.847 161.647L223.579 149.899L228.092 149.168L231.064 156.049L234.098 148.195L238.22 147.526ZM248.984 155.179L248.987 158.383L238.645 160.059L238.637 147.459L248.747 145.82L248.749 149.024L242.761 149.995L242.762 151.471L248.022 150.618L248.024 153.678L242.764 154.531L242.766 156.187L248.984 155.179ZM250.592 145.521L256.722 144.528C258.108 144.303 259.329 144.363 260.383 144.708C261.45 145.04 262.273 145.632 262.854 146.486C263.447 147.338 263.744 148.406 263.745 149.69C263.746 150.974 263.45 152.138 262.859 153.182C262.279 154.224 261.456 155.09 260.391 155.778C259.337 156.453 258.117 156.903 256.731 157.128L250.601 158.121L250.592 145.521ZM256.551 153.844C257.451 153.699 258.168 153.324 258.7 152.722C259.245 152.106 259.517 151.323 259.516 150.375C259.516 149.427 259.243 148.74 258.697 148.312C258.164 147.87 257.447 147.723 256.547 147.868L254.788 148.154L254.792 154.13L256.551 153.844Z" fill="white"/>
<path d="M179.134 193.51L175.603 205.283L171.608 205.931L169.819 200.236L167.943 206.525L163.947 207.173L160.402 196.546L164.24 195.924L166.171 201.98L168.204 195.281L171.632 194.726L173.563 200.862L175.596 194.083L179.134 193.51ZM179.962 193.376L183.689 192.772L183.696 203.972L179.969 204.576L179.962 193.376ZM187.886 195.02L184.648 195.545L184.646 192.617L194.849 190.963L194.851 193.891L191.613 194.416L191.619 202.688L187.891 203.292L187.886 195.02ZM206.715 189.04L206.722 200.24L202.995 200.844L202.992 196.716L199.549 197.274L199.552 201.402L195.825 202.006L195.817 190.806L199.544 190.202L199.547 194.17L202.99 193.612L202.988 189.644L206.715 189.04ZM219.821 194.052L219.824 198.116L216.096 198.721L216.094 194.609L211.919 188.196L215.852 187.559L218.113 191.065L220.385 186.824L223.986 186.241L219.821 194.052ZM229.785 196.758C228.595 196.951 227.526 196.873 226.578 196.526C225.63 196.178 224.887 195.605 224.35 194.807C223.812 193.998 223.543 193.033 223.542 191.913C223.542 190.793 223.809 189.747 224.346 188.775C224.882 187.792 225.624 186.973 226.571 186.318C227.519 185.663 228.587 185.239 229.777 185.046C230.967 184.853 232.036 184.931 232.984 185.278C233.932 185.626 234.674 186.204 235.212 187.013C235.75 187.812 236.019 188.771 236.019 189.891C236.02 191.011 235.752 192.062 235.216 193.045C234.68 194.018 233.938 194.831 232.99 195.486C232.043 196.141 230.975 196.565 229.785 196.758ZM229.783 193.702C230.246 193.627 230.662 193.447 231.03 193.164C231.409 192.868 231.709 192.494 231.93 192.042C232.151 191.579 232.261 191.065 232.261 190.5C232.26 189.935 232.149 189.462 231.928 189.082C231.707 188.691 231.406 188.414 231.027 188.252C230.658 188.077 230.242 188.027 229.779 188.102C229.316 188.177 228.895 188.363 228.516 188.659C228.147 188.942 227.853 189.316 227.632 189.778C227.411 190.23 227.301 190.739 227.301 191.304C227.302 191.869 227.413 192.347 227.634 192.738C227.855 193.118 228.15 193.396 228.519 193.571C228.898 193.733 229.319 193.777 229.783 193.702ZM242.667 194.67C240.972 194.945 239.65 194.695 238.702 193.921C237.754 193.146 237.279 191.922 237.278 190.247L237.274 184.087L241.001 183.483L241.005 189.531C241.006 190.352 241.148 190.926 241.433 191.254C241.728 191.579 242.149 191.698 242.697 191.609C243.244 191.52 243.66 191.266 243.944 190.847C244.239 190.426 244.386 189.804 244.385 188.983L244.381 182.935L248.045 182.341L248.049 188.501C248.05 190.176 247.578 191.554 246.631 192.635C245.683 193.717 244.362 194.395 242.667 194.67ZM254.498 189.68L253.487 189.844L253.489 192.66L249.761 193.264L249.754 182.064L255.076 181.202C256.098 181.036 256.988 181.062 257.746 181.281C258.504 181.499 259.089 181.895 259.5 182.469C259.911 183.042 260.117 183.756 260.117 184.609C260.118 185.409 259.939 186.137 259.582 186.792C259.224 187.447 258.709 188.006 258.035 188.467L260.359 191.547L256.379 192.192L254.498 189.68ZM256.359 185.218C256.358 184.802 256.232 184.503 255.979 184.32C255.726 184.126 255.347 184.07 254.841 184.152L253.483 184.372L253.485 186.996L254.843 186.776C255.349 186.694 255.728 186.521 255.98 186.256C256.233 185.98 256.359 185.634 256.359 185.218ZM199.055 210.283L199.062 221.483L195.998 221.98L191.794 217.573L191.797 222.661L188.164 223.25L188.157 212.05L191.221 211.553L195.426 215.96L195.422 210.872L199.055 210.283ZM208.391 218.019L204.189 218.7L203.448 220.773L199.658 221.387L204.483 209.404L208.148 208.81L212.988 219.226L209.134 219.851L208.391 218.019ZM207.362 215.466L206.286 212.824L205.214 215.814L207.362 215.466ZM223.454 217.53L223.419 212.431L221.021 216.916L219.378 217.183L216.975 213.652L216.978 218.58L213.583 219.13L213.575 207.93L216.639 207.433L220.244 212.818L223.747 206.282L226.811 205.785L226.85 216.98L223.454 217.53ZM237.842 212.35L237.844 215.198L228.652 216.688L228.644 205.488L237.631 204.031L237.633 206.879L232.31 207.742L232.311 209.054L236.986 208.296L236.988 211.016L232.313 211.774L232.314 213.246L237.842 212.35Z" fill="white"/>
<path d="M168.668 364.976L173.543 269.573L99.8003 236.581L103.733 330.61L168.668 364.976Z" fill="url(#paint10_linear_458_59)"/>
<path d="M273.27 253.384L258.468 347.659L168.668 364.976L173.543 269.573L273.27 253.384Z" fill="url(#paint11_linear_458_59)"/>
<path d="M227.656 260.477L222.822 355.012L206.375 358.426L211.35 263.44L227.656 260.477Z" fill="#ECC230"/>
<path d="M272.262 254.883L270.085 267.805L170.588 329.78L173.545 271.84L272.262 254.883Z" fill="url(#paint12_linear_458_59)"/>
<path d="M137.719 348.278L142.521 255.853L126.392 248.532L121.614 339.681L137.719 348.278Z" fill="#ECC230"/>
<path opacity="0.5" d="M198.917 117.486L180.76 132.896L107.931 132.11L198.917 117.486Z" fill="url(#paint13_linear_458_59)"/>
<path d="M165.418 105.22L76.6434 109.049L155.03 50.9749L254.109 38.7812L165.418 105.22Z" fill="url(#paint14_linear_458_59)"/>
<path d="M254.018 38.5883L263.934 60.5612L175.41 127.384L164.985 104.268L254.018 38.5883Z" fill="url(#paint15_linear_458_59)"/>
<path d="M175.409 127.384L164.984 104.269L76.6442 109.048L86.4513 130.796L175.409 127.384Z" fill="url(#paint16_linear_458_59)"/>
<path d="M254.109 38.7811C246.806 44.433 239.461 50.0349 232.133 55.6534L210.073 72.4174L187.946 89.0812C180.567 94.6331 173.197 100.193 165.785 105.703L165.635 105.812L165.452 105.82L143.256 106.728C135.858 107.041 128.459 107.313 121.06 107.576L98.8647 108.367L76.6605 109.049L98.8393 107.816L121.026 106.692C128.425 106.312 135.815 105.948 143.214 105.627L165.401 104.619L165.067 104.736C172.437 99.1678 179.841 93.6576 187.253 88.1391L209.471 71.5836L231.757 55.1282C239.185 49.668 246.631 44.1996 254.109 38.7811Z" fill="#F95A66"/>
<path d="M197.992 80.399L108.735 85.0206L124.058 73.6746L215.984 66.9242L197.992 80.399Z" fill="#ECC230"/>
<path d="M197.992 80.3988L208.384 103.439L226.116 89.4056L215.983 66.924L197.992 80.3988Z" fill="#ECC230"/>
<path d="M205.133 44.8104L128.817 106.228L108.357 108.377L183.163 47.5108L205.133 44.8104Z" fill="#CA8720"/>
<path d="M128.817 106.229L138.791 128.352L117.922 129.592L108.357 108.378L128.817 106.229Z" fill="#ECC230"/>
<path d="M184.905 69.8201L159.988 80.5297L163.247 75.4026L196.621 60.4043L184.905 69.8201Z" fill="#CA8720"/>
<path d="M124.518 105.29L145.398 85.6074L153.424 82.8281L137.779 100.162L124.518 105.29Z" fill="#CA8720"/>
<path d="M159.843 75.8451L182.831 71.4727L187.946 86.1953L180.172 84.5422L180.675 93.2273L173.08 79.5348L159.843 75.8451Z" fill="#ECC230"/>
<path d="M173.082 79.5348L182.833 71.4727L159.078 75.9769L173.082 79.5348Z" fill="#CA8720"/>
<path d="M151.972 81.918L141.479 98.749L152.823 105.949L151.026 101.912L156.704 104.319L151.877 94.9037L151.972 81.918Z" fill="#ECC230"/>
<path d="M141.479 98.7491L151.877 94.9037L151.865 81.0195L141.479 98.7491Z" fill="#CA8720"/>
<path d="M146.774 64.9184C142.689 60.6058 137.334 57.3114 131.453 56.4848C129.021 56.1374 126.505 56.2213 124.169 57.0119C121.833 57.8026 119.725 59.312 118.467 61.4203C117.736 62.6303 117.353 64.2834 118.227 65.3855C119.198 66.6194 121.09 66.4637 122.624 66.1522C126.757 65.3137 130.985 64.1876 135.118 65.0142C138.532 65.697 141.539 67.6616 144.45 69.5783C147.038 71.2914 149.745 73.1362 151.123 75.9154C151.53 76.73 151.806 77.6046 152.249 78.3952C152.716 79.2457 154.585 81.2343 155.411 79.7608C156.118 78.515 154.249 75.9035 153.71 74.8732C151.829 71.2914 149.577 67.8773 146.774 64.9184Z" fill="#CA8720"/>
<path d="M130.615 84.2778C123.104 81.5465 116.683 75.1615 115.245 67.303C114.766 64.6795 114.898 61.7805 116.467 59.6361C117.833 57.7554 120.121 56.7251 122.421 56.3657C124.721 56.0183 127.608 56.0663 129.92 56.3179C127.955 57.9111 126.159 60.5825 126.063 63.1102C125.955 65.6378 126.985 68.2014 128.818 69.9504C131.094 72.1307 134.316 72.9453 137.383 73.688C143.744 75.2094 150.105 76.7427 156.466 78.2761C156.73 78.336 155.748 81.7382 155.64 82.0377C155.185 83.3075 154.885 84.0023 153.687 84.5054C151.459 85.4398 148.428 85.6554 146.032 85.919C140.857 86.4581 135.538 86.0747 130.615 84.2778Z" fill="#ECC230"/>
<path d="M149.289 62.7394C148.571 56.8455 149.433 50.6162 152.548 45.5489C153.83 43.4525 155.507 41.5718 157.591 40.278C159.676 38.9842 162.203 38.3134 164.623 38.6848C166.013 38.9004 167.534 39.6431 167.834 41.0207C168.169 42.5541 166.839 43.9198 165.617 44.9021C162.335 47.5495 158.777 50.1011 156.777 53.8147C155.123 56.8815 154.728 60.4514 154.357 63.9134C154.021 67.0041 153.722 70.2625 154.992 73.1016C155.363 73.9282 155.866 74.7069 156.19 75.5574C156.537 76.4559 156.896 79.1632 155.219 78.8637C153.806 78.6121 152.991 75.5215 152.536 74.4313C150.991 70.6938 149.793 66.7765 149.289 62.7394Z" fill="#CA8720"/>
<path d="M174.517 62.6189C177.188 55.0838 176.374 46.0753 171.222 39.9538C169.509 37.9173 167.185 36.1683 164.538 36.0126C162.214 35.8688 159.962 36.9709 158.225 38.5163C156.488 40.0616 154.691 42.3257 153.409 44.2664C155.889 43.7633 159.087 44.0867 161.1 45.6201C163.112 47.1534 164.43 49.5733 164.61 52.1009C164.837 55.2515 163.412 58.2464 162.034 61.0855C159.159 66.9674 156.284 72.8373 153.409 78.7192C153.289 78.9588 156.536 80.3604 156.835 80.4682C158.105 80.9234 158.824 81.1391 159.986 80.5281C162.118 79.414 164.226 77.2098 165.951 75.5327C169.665 71.9029 172.756 67.5424 174.517 62.6189Z" fill="#ECC230"/>
<path d="M162.454 69.8181C164.227 66.7274 165.198 63.0736 164.658 59.5517C164.431 58.0902 163.952 56.6647 163.101 55.4547C162.251 54.2568 161.005 53.2984 159.579 52.9391C158.753 52.7354 157.746 52.7953 157.255 53.4901C156.716 54.2568 157.123 55.323 157.579 56.1495C158.777 58.3777 160.154 60.6178 160.394 63.1335C160.585 65.2179 159.987 67.2784 159.376 69.291C158.837 71.0759 158.25 72.9567 156.884 74.2265C156.489 74.5978 156.033 74.9093 155.65 75.3046C155.243 75.7239 154.428 77.1375 155.41 77.3531C156.249 77.5448 157.423 76.0234 157.926 75.5322C159.663 73.8312 161.232 71.9384 162.454 69.8181Z" fill="#CA8720"/>
<path d="M148.523 63.8752C148.799 59.0834 151.35 54.2917 155.627 52.0994C157.053 51.3687 158.742 50.9494 160.251 51.4765C161.569 51.9437 162.563 53.0698 163.162 54.3276C163.761 55.5855 164.228 57.2626 164.48 58.6282C163.222 57.7777 161.377 57.2027 159.904 57.586C158.43 57.9694 157.136 58.9996 156.454 60.3533C155.591 62.0424 155.675 64.0309 155.783 65.9237C156.01 69.841 156.226 73.7702 156.454 77.6875C156.466 77.8432 154.345 77.8672 154.154 77.8552C153.339 77.8192 152.896 77.7594 152.393 77.1604C151.47 76.0463 150.823 74.3332 150.26 73.0035C149.038 70.1404 148.344 67.0138 148.523 63.8752Z" fill="#ECC230"/>
<path d="M141.059 78.8026C137.609 77.9041 134.327 76.0353 132.182 73.1842C131.296 72.0102 130.613 70.6566 130.35 69.2071C130.086 67.7575 130.278 66.2002 131.02 64.9304C131.452 64.1996 132.206 63.5168 133.033 63.6486C133.967 63.8044 134.434 64.8346 134.71 65.745C135.465 68.1649 136.1 70.7165 137.729 72.6451C139.083 74.2504 140.975 75.2567 142.832 76.227C144.485 77.0895 146.234 77.988 148.103 77.9041C148.654 77.8802 149.193 77.7723 149.732 77.7723C150.319 77.7723 151.9 78.1797 151.361 79.0422C150.906 79.7729 149.001 79.5453 148.295 79.5573C145.875 79.6172 143.419 79.4255 141.059 78.8026Z" fill="#CA8720"/>
<path d="M146.57 64.7045C142.952 61.542 137.741 60.0086 133.189 61.53C131.667 62.0331 130.182 62.9436 129.511 64.3931C128.924 65.6509 129.032 67.1603 129.511 68.4661C129.99 69.7718 130.853 71.2812 131.656 72.4193C131.931 70.9218 132.806 69.2088 134.111 68.4181C135.417 67.6275 137.058 67.4358 138.508 67.891C140.317 68.4541 141.682 69.9156 142.952 71.3172C145.6 74.2162 148.247 77.1272 150.882 80.0382C150.99 80.158 152.488 78.6606 152.619 78.5168C153.159 77.9059 153.434 77.5584 153.35 76.7678C153.195 75.3303 152.44 73.6651 151.877 72.3354C150.679 69.4604 148.93 66.765 146.57 64.7045Z" fill="#ECC230"/>
<path d="M158.227 77.2334C159.282 79.7491 158.096 82.6361 155.592 83.6903C153.076 84.7445 150.189 83.5586 149.135 81.0549C148.081 78.5392 149.267 75.6521 151.771 74.5979C154.286 73.5438 157.173 74.7297 158.227 77.2334Z" fill="#ECC230"/>
<path d="M159.477 78.0205C160.532 80.5362 159.346 83.4232 156.842 84.4774C154.326 85.5316 151.439 84.3457 150.385 81.842C149.331 79.3263 150.517 76.4392 153.021 75.385C155.536 74.3309 158.423 75.5168 159.477 78.0205Z" fill="#ECC230"/>
<path d="M159.477 78.0205C160.532 80.5362 159.358 83.4232 156.842 84.4774C154.793 85.3399 152.493 84.705 151.14 83.0998C152.218 83.7467 153.583 83.8785 154.829 83.3633C156.926 82.4888 157.908 80.081 157.022 77.9966C156.291 76.2595 154.506 75.2892 152.721 75.5168C152.817 75.4689 152.913 75.421 153.02 75.385C155.536 74.3309 158.423 75.5168 159.477 78.0205Z" fill="#CA8720"/>
<path d="M332.795 216L326 227.486L340.303 237.998L347.098 226.512L332.795 216Z" fill="#E6563E"/>
<path d="M337.229 42.5053L330.434 53.9915L344.737 64.503L351.532 53.0169L337.229 42.5053Z" fill="#E6563E"/>
<path d="M77.7557 57.7094L78.8526 65.1516C75.4473 65.7788 69.2756 70.4143 66.185 73.1892L61.9307 67.3204C62.8846 66.4593 71.4695 58.8576 77.7557 57.7094Z" fill="#F7BE39"/>
<path d="M367.023 166.212L364.161 165.656C364.812 161.51 365.486 157.22 364.891 153.105C364.728 151.96 364.42 150.716 363.948 149.509C363.763 149.709 363.567 149.897 363.365 150.078C361.569 151.679 359.437 152.386 357.361 152.073C355.308 151.76 353.322 150.084 352.418 147.908C351.689 146.145 351.762 144.275 352.615 142.78C354.275 139.885 357.917 139.679 360.498 140.948C361.732 141.555 362.86 142.455 363.847 143.581C363.92 143.256 363.971 142.924 363.993 142.586C364.251 139.16 362.338 135.376 359.241 133.175C356.604 131.299 353.164 130.342 348.738 130.248C346.74 130.211 344.687 130.336 342.7 130.455C340.838 130.567 338.891 130.686 337 130.674L337.017 127.434C338.846 127.459 340.726 127.334 342.543 127.222C344.58 127.097 346.684 126.965 348.794 127.009C353.77 127.109 357.703 128.235 360.806 130.442C364.852 133.319 367.242 138.19 366.888 142.855C366.793 144.15 366.445 145.438 365.889 146.626C366.793 148.39 367.438 150.416 367.747 152.592C368.426 157.245 367.679 162.01 367.023 166.212ZM357.316 143.431C356.374 143.431 355.498 143.756 355.066 144.519C354.657 145.232 354.836 146.013 355.055 146.545C355.549 147.739 356.66 148.696 357.754 148.859C359.039 149.053 360.38 148.59 361.547 147.545C361.861 147.264 362.153 146.951 362.411 146.62C361.597 145.482 360.576 144.513 359.325 143.9C358.713 143.6 357.995 143.431 357.316 143.431Z" fill="#F7BE39"/>
<path d="M41.4891 156.405C41.203 158.255 39.6195 159.488 37.9597 159.169C36.3 158.85 35.1935 157.086 35.4796 155.236C35.7658 153.386 37.3493 152.152 39.009 152.471C40.6688 152.801 41.7848 154.555 41.4891 156.405Z" fill="white"/>
<path d="M58.2206 43.1024C57.9344 44.9523 56.3509 46.1856 54.6912 45.8666C53.0314 45.5477 51.9249 43.7828 52.2111 41.9329C52.4972 40.0829 54.0807 38.8497 55.7405 39.1686C57.4002 39.4982 58.5067 41.2524 58.2206 43.1024Z" fill="white"/>
<path d="M346.39 185.598C346.133 187.257 344.711 188.363 343.223 188.075C341.735 187.788 340.743 186.204 341.001 184.556C341.258 182.908 342.679 181.792 344.168 182.079C345.656 182.366 346.648 183.94 346.39 185.598Z" fill="white"/>
<path d="M336.489 11.9082C336.232 13.5668 334.81 14.6725 333.322 14.3854C331.834 14.0984 330.842 12.5142 331.1 10.8663C331.357 9.21841 332.779 8.10208 334.267 8.38913C335.745 8.66556 336.747 10.2497 336.489 11.9082Z" fill="white"/>
<path d="M75.3807 120.469L71.1169 118.928L71.5938 123.893L69.562 119.438L66.748 123.34L68.1312 118.577L63.667 119.119L67.6638 116.844L64.1726 113.708L68.4364 115.249L67.9595 110.284L69.9913 114.739L72.8052 110.837L71.4221 115.6L75.8863 115.058L71.8895 117.333L75.3807 120.469Z" fill="white"/>
<path d="M22.9647 256.566L18.7008 255.024L19.1778 260L17.146 255.545L14.332 259.436L15.7152 254.684L11.251 255.216L15.2478 252.951L11.7565 249.815L16.0204 251.356L15.5435 246.381L17.5753 250.835L20.3892 246.944L19.0061 251.696L23.4703 251.165L19.4735 253.429L22.9647 256.566Z" fill="white"/>
<path d="M386.435 106.85L382.162 105.308L382.648 110.284L380.607 105.818L377.793 109.72L379.176 104.957L374.712 105.499L378.718 103.224L375.217 100.088L379.491 101.64L379.004 96.6643L381.046 101.119L383.86 97.2171L382.467 101.98L386.931 101.438L382.934 103.713L386.435 106.85Z" fill="white"/>
<path d="M275.889 23.1856L271.625 21.644L272.102 26.6196L270.07 22.1649L267.256 26.0561L268.639 21.3038L264.175 21.8353L268.172 19.5708L264.68 16.4344L268.944 17.976L268.467 13.0004L270.499 17.4551L273.313 13.5638L271.93 18.3162L276.394 17.7846L272.397 20.0492L275.889 23.1856Z" fill="white"/>
<path d="M302.714 77.1852L298.45 75.6436L298.927 80.6192L296.886 76.1539L294.072 80.0558L295.464 75.2928L291 75.835L294.997 73.5598L291.496 70.4234L295.769 71.9757L295.283 67L297.324 71.4547L300.138 67.5529L298.755 72.3159L303.219 71.7737L299.213 74.0488L302.714 77.1852Z" fill="#F7BE39"/>
<path d="M208.133 125.427L203.869 123.886L204.346 128.861L202.304 124.396L199.49 128.298L200.883 123.535L196.419 124.077L200.416 121.802L196.915 118.666L201.188 120.218L200.702 115.242L202.743 119.697L205.557 115.795L204.174 120.558L208.638 120.016L204.632 122.291L208.133 125.427Z" fill="#F7BE39"/>
<path d="M114.462 34.5869L110.198 33.0453L110.675 38.021L108.634 33.5556L105.82 37.4575L107.212 32.6945L102.748 33.2367L106.745 30.9615L103.244 27.8251L107.517 29.3774L107.031 24.4017L109.072 28.8564L111.886 24.9546L110.503 29.7176L114.967 29.1754L110.961 31.4506L114.462 34.5869Z" fill="#E6563E"/>
<path d="M292.005 363.84C289.43 352.581 293.57 340.004 302.069 333.274L308.002 342.588C302.956 346.585 300.409 354.336 301.935 361.012L292.005 363.84Z" fill="#F7BE39"/>
<path d="M-9.66867 320.11L-16 337.129L-4.99497 342.215L1.33636 325.196L-9.66867 320.11Z" fill="#200F3B"/>
<path d="M22.5067 109.001L17 118.399L28.5916 126.999L34.0984 117.601L22.5067 109.001Z" fill="#E6563E"/>
<path d="M168.229 271.506L161.434 282.992L175.737 293.504L182.532 282.018L168.229 271.506Z" fill="#E6563E"/>
<path d="M27.2999 365.749L24 359.277C26.9647 357.402 31.2571 350.75 33.2616 347L38.9977 350.807C38.3789 351.971 32.7653 362.287 27.2999 365.749Z" fill="#F7BE39"/>
<path d="M61.7557 228.709L62.8526 236.151C59.4473 236.779 53.2756 241.414 50.185 244.189L45.9307 238.32C46.8846 237.459 55.4695 229.857 61.7557 228.709Z" fill="#F7BE39"/>
<path d="M348.32 334.212L345.239 333.613C345.94 329.15 346.665 324.532 346.025 320.102C345.849 318.87 345.517 317.53 345.01 316.231C344.811 316.446 344.599 316.648 344.382 316.844C342.449 318.567 340.154 319.328 337.919 318.991C335.708 318.655 333.57 316.85 332.598 314.508C331.813 312.609 331.891 310.596 332.809 308.987C334.597 305.871 338.517 305.648 341.295 307.015C342.624 307.668 343.838 308.637 344.901 309.849C344.98 309.499 345.034 309.142 345.058 308.779C345.336 305.09 343.276 301.017 339.942 298.647C337.104 296.628 333.401 295.598 328.636 295.497C326.485 295.456 324.275 295.591 322.137 295.719C320.131 295.84 318.035 295.968 316 295.954L316.018 292.467C317.987 292.494 320.011 292.36 321.967 292.238C324.16 292.104 326.425 291.962 328.696 292.01C334.053 292.117 338.287 293.329 341.628 295.705C345.982 298.802 348.555 304.046 348.175 309.068C348.072 310.462 347.698 311.849 347.1 313.128C348.072 315.026 348.767 317.207 349.099 319.55C349.83 324.558 349.027 329.688 348.32 334.212ZM337.871 309.688C336.856 309.688 335.914 310.038 335.449 310.859C335.008 311.626 335.201 312.468 335.437 313.04C335.968 314.326 337.164 315.356 338.342 315.531C339.725 315.74 341.169 315.241 342.425 314.117C342.763 313.814 343.077 313.478 343.355 313.121C342.479 311.896 341.38 310.852 340.033 310.192C339.375 309.869 338.602 309.688 337.871 309.688Z" fill="#F7BE39"/>
<path d="M67.87 345.891C67.0932 343.986 66.191 342.081 65.3186 340.236C64.3387 338.172 63.3229 336.034 62.4505 333.823C60.3951 328.602 59.6422 324.033 60.156 319.851C60.8253 314.403 63.8786 309.828 67.9357 308.183C69.0591 307.723 70.284 307.53 71.5209 307.597C72.6083 305.899 74.0304 304.36 75.7154 303.095C79.3185 300.398 83.6326 299.126 87.4388 298L88.2036 301.217C84.4512 302.322 80.5733 303.475 77.3825 305.859C76.4922 306.525 75.584 307.377 74.7773 308.383C75.0223 308.489 75.2613 308.616 75.5003 308.742C77.6156 309.921 79.1273 311.833 79.7487 314.13C80.3701 316.401 79.8204 319.185 78.3864 321.063C77.2212 322.581 75.6258 323.307 74.0065 323.061C70.8696 322.581 69.1308 318.885 69.083 315.649C69.0591 314.104 69.328 312.545 69.8478 311.033C69.5431 311.1 69.2443 311.187 68.9575 311.306C65.9759 312.512 63.6276 316.128 63.1197 320.297C62.6835 323.853 63.3587 327.836 65.1872 332.478C66.0117 334.569 66.9976 336.653 67.9596 338.671C68.8559 340.556 69.7821 342.507 70.5947 344.505L67.87 345.891ZM73.0147 311.233C72.4112 312.572 72.0407 314.05 72.0646 315.609C72.0885 317.447 72.9967 319.558 74.4128 319.778C75.1717 319.898 75.7632 319.378 76.1158 318.919C76.9045 317.886 77.2272 316.321 76.8926 315.116C76.5101 313.704 75.5362 312.505 74.1619 311.739C73.7914 311.526 73.409 311.36 73.0147 311.233Z" fill="#E6563E"/>
<path d="M25.4891 327.405C25.203 329.255 23.6195 330.488 21.9597 330.169C20.3 329.85 19.1935 328.086 19.4796 326.236C19.7658 324.386 21.3493 323.152 23.009 323.471C24.6688 323.801 25.7848 325.555 25.4891 327.405Z" fill="white"/>
<path d="M42.2206 214.102C41.9344 215.952 40.3509 217.186 38.6912 216.867C37.0314 216.548 35.9249 214.783 36.2111 212.933C36.4972 211.083 38.0807 209.85 39.7405 210.169C41.4002 210.498 42.5067 212.252 42.2206 214.102Z" fill="white"/>
<path d="M330.39 356.598C330.133 358.257 328.711 359.363 327.223 359.075C325.735 358.788 324.743 357.204 325.001 355.556C325.258 353.908 326.679 352.792 328.168 353.079C329.656 353.366 330.648 354.94 330.39 356.598Z" fill="white"/>
<path d="M320.489 182.908C320.232 184.567 318.81 185.672 317.322 185.385C315.834 185.098 314.842 183.514 315.1 181.866C315.357 180.218 316.779 179.102 318.267 179.389C319.745 179.666 320.747 181.25 320.489 182.908Z" fill="white"/>
<path d="M59.3807 291.469L55.1169 289.928L55.5938 294.893L53.562 290.438L50.748 294.34L52.1312 289.577L47.667 290.119L51.6638 287.844L48.1726 284.708L52.4364 286.249L51.9595 281.284L53.9913 285.739L56.8052 281.837L55.4221 286.6L59.8863 286.058L55.8895 288.333L59.3807 291.469Z" fill="white"/>
<path d="M98.7138 372.185L94.4499 370.644L94.9268 375.619L92.895 371.165L90.0811 375.056L91.4642 370.303L87 370.835L90.9968 368.57L87.5056 365.434L91.7694 366.976L91.2925 362L93.3243 366.455L96.1383 362.563L94.7551 367.316L99.2193 366.784L95.2225 369.049L98.7138 372.185Z" fill="white"/>
<path d="M296.714 318.184L292.44 316.643L292.927 321.618L290.886 317.164L288.072 321.055L289.464 316.302L285 316.834L288.997 314.569L285.496 311.433L289.769 312.975L289.283 307.999L291.324 312.454L294.138 308.563L292.755 313.315L297.219 312.783L293.213 315.048L296.714 318.184Z" fill="white"/>
<path d="M370.435 277.85L366.162 276.308L366.648 281.284L364.607 276.818L361.793 280.72L363.176 275.957L358.712 276.499L362.718 274.224L359.217 271.088L363.491 272.64L363.004 267.664L365.046 272.119L367.86 268.217L366.467 272.98L370.931 272.438L366.934 274.713L370.435 277.85Z" fill="white"/>
<path d="M259.889 166.185L255.625 164.644L256.102 169.619L254.07 165.165L251.256 169.056L252.639 164.303L248.175 164.835L252.172 162.57L248.68 159.434L252.944 160.976L252.467 156L254.499 160.455L257.313 156.563L255.93 161.316L260.394 160.784L256.397 163.049L259.889 166.185Z" fill="white"/>
<path d="M306.133 257.427L301.869 255.885L302.346 260.861L300.304 256.396L297.49 260.297L298.883 255.534L294.419 256.077L298.416 253.801L294.915 250.665L299.188 252.217L298.702 247.242L300.743 251.696L303.557 247.795L302.174 252.558L306.638 252.015L302.632 254.291L306.133 257.427Z" fill="#F7BE39"/>
<path d="M98.4618 205.587L94.1979 204.045L94.6749 209.021L92.6335 204.556L89.8196 208.458L91.2122 203.695L86.748 204.237L90.7448 201.962L87.2441 198.825L91.5175 200.377L91.031 195.402L93.0723 199.857L95.8863 195.955L94.5032 200.718L98.9674 200.176L94.961 202.451L98.4618 205.587Z" fill="#E6563E"/>
<defs>
<linearGradient id="paint0_linear_458_59" x1="188.06" y1="269.559" x2="187.882" y2="0.112638" gradientUnits="userSpaceOnUse">
<stop offset="0.0227" stop-color="#FFEBCA"/>
<stop offset="1" stop-color="#F9B65B" stop-opacity="0"/>
</linearGradient>
<linearGradient id="paint1_linear_458_59" x1="186.719" y1="270.624" x2="186.687" y2="222.008" gradientUnits="userSpaceOnUse">
<stop offset="0.0208" stop-color="#702828"/>
<stop offset="0.4333" stop-color="#AA2E2E"/>
<stop offset="1" stop-color="#F12D35"/>
</linearGradient>
<linearGradient id="paint2_linear_458_59" x1="229.577" y1="313.656" x2="229.517" y2="222.039" gradientUnits="userSpaceOnUse">
<stop offset="0.084" stop-color="#832826"/>
<stop offset="1" stop-color="#F12D35"/>
</linearGradient>
<linearGradient id="paint3_linear_458_59" x1="135.431" y1="284.103" x2="137.684" y2="240.005" gradientUnits="userSpaceOnUse">
<stop stop-color="#9A5F8B" stop-opacity="0"/>
<stop offset="1" stop-color="#9A5F8B"/>
</linearGradient>
<linearGradient id="paint4_linear_458_59" x1="149.814" y1="221.852" x2="198.983" y2="221.82" gradientUnits="userSpaceOnUse">
<stop stop-color="#043F45"/>
<stop offset="1" stop-color="#126F79"/>
</linearGradient>
<linearGradient id="paint5_linear_458_59" x1="76.0813" y1="193.745" x2="276.045" y2="193.613" gradientUnits="userSpaceOnUse">
<stop stop-color="#043F45"/>
<stop offset="1" stop-color="#126F79"/>
</linearGradient>
<linearGradient id="paint6_linear_458_59" x1="76.0624" y1="164.65" x2="298.721" y2="164.503" gradientUnits="userSpaceOnUse">
<stop stop-color="#11C5CE"/>
<stop offset="1" stop-color="#11C5CE" stop-opacity="0"/>
</linearGradient>
<linearGradient id="paint7_linear_458_59" x1="149.509" y1="213.56" x2="276.058" y2="213.477" gradientUnits="userSpaceOnUse">
<stop stop-color="#11C5CE"/>
<stop offset="1" stop-color="#11C5CE" stop-opacity="0"/>
</linearGradient>
<linearGradient id="paint8_linear_458_59" x1="159.864" y1="264.32" x2="186.714" y2="264.303" gradientUnits="userSpaceOnUse">
<stop stop-color="#11C5CE"/>
<stop offset="1" stop-color="#11C5CE" stop-opacity="0"/>
</linearGradient>
<linearGradient id="paint9_linear_458_59" x1="179.448" y1="280.591" x2="179.424" y2="243.082" gradientUnits="userSpaceOnUse">
<stop offset="0.3468" stop-color="#21878D"/>
<stop offset="0.6235" stop-color="#18A9B0" stop-opacity="0.5751"/>
<stop offset="0.8512" stop-color="#13BDC6" stop-opacity="0.2255"/>
<stop offset="0.9981" stop-color="#11C5CE" stop-opacity="0"/>
</linearGradient>
<linearGradient id="paint10_linear_458_59" x1="104.089" y1="330.964" x2="169.469" y2="265.498" gradientUnits="userSpaceOnUse">
<stop stop-color="#AA2E2E"/>
<stop offset="1" stop-color="#F12D35"/>
</linearGradient>
<linearGradient id="paint11_linear_458_59" x1="164.187" y1="360.499" x2="272.214" y2="252.33" gradientUnits="userSpaceOnUse">
<stop stop-color="#AA2E2E"/>
<stop offset="1" stop-color="#F12D35"/>
</linearGradient>
<linearGradient id="paint12_linear_458_59" x1="219.382" y1="332.274" x2="223.464" y2="252.387" gradientUnits="userSpaceOnUse">
<stop stop-color="#9A626D" stop-opacity="0"/>
<stop offset="1" stop-color="#9A626D"/>
</linearGradient>
<linearGradient id="paint13_linear_458_59" x1="138.912" y1="149.969" x2="167.934" y2="99.6244" gradientUnits="userSpaceOnUse">
<stop stop-color="#043F45"/>
<stop offset="0.3169" stop-color="#054248" stop-opacity="0.6829"/>
<stop offset="0.5673" stop-color="#084B52" stop-opacity="0.4323"/>
<stop offset="0.7944" stop-color="#0C5A63" stop-opacity="0.2051"/>
<stop offset="0.9994" stop-color="#126F79" stop-opacity="0"/>
</linearGradient>
<linearGradient id="paint14_linear_458_59" x1="76.6227" y1="73.9723" x2="254.13" y2="73.8552" gradientUnits="userSpaceOnUse">
<stop stop-color="#AA2E2E"/>
<stop offset="1" stop-color="#F12D35"/>
</linearGradient>
<linearGradient id="paint15_linear_458_59" x1="164.975" y1="83.0189" x2="263.946" y2="82.9536" gradientUnits="userSpaceOnUse">
<stop stop-color="#AA2E2E"/>
<stop offset="1" stop-color="#F12D35"/>
</linearGradient>
<linearGradient id="paint16_linear_458_59" x1="76.6523" y1="117.563" x2="175.405" y2="117.498" gradientUnits="userSpaceOnUse">
<stop stop-color="#AA2E2E"/>
<stop offset="1" stop-color="#F12D35"/>
</linearGradient>
</defs>
</svg>
