<svg width="31" height="35" viewBox="0 0 31 35" fill="none" xmlns="http://www.w3.org/2000/svg">
<path opacity="0.7" d="M30.4122 8.35331C30.4992 8.22818 30.5972 8.11937 30.6625 7.98336C31.6744 5.84522 29.9062 2.891 26.718 1.3894C23.5353 -0.112189 20.135 0.399223 19.123 2.53736C19.0577 2.67337 19.036 2.82572 18.9925 2.96717L23.4156 5.0509L23.1599 5.43174C21 4.18041 18.4919 3.45682 15.8152 3.45682C13.0514 3.45682 10.4671 4.22394 8.25824 5.55143L7.95357 5.09987L12.4801 2.96717C12.4366 2.82027 12.4148 2.67337 12.3495 2.53736C11.343 0.399223 7.94268 -0.112189 4.75452 1.3894C1.56635 2.89644 -0.196386 5.84522 0.810117 7.98336C0.875403 8.11937 0.973345 8.22818 1.06039 8.35331L4.81437 6.58513L5.53796 7.66236C2.81768 10.3282 1.13111 14.0387 1.13111 18.1463C1.13111 22.3247 2.88298 26.095 5.68486 28.7717L3.7045 32.591C3.44879 33.0806 3.94388 33.8423 4.80893 34.2884C5.67397 34.7346 6.57711 34.7019 6.83281 34.2123L8.54659 30.9044C10.6902 32.1285 13.1711 32.8304 15.8152 32.8304C18.1492 32.8304 20.358 32.2809 22.3221 31.3125L23.8237 34.2123C24.0739 34.7019 24.9825 34.74 25.8476 34.2884C26.7126 33.8423 27.2077 33.0806 26.952 32.591L25.2817 29.3702C28.4699 26.6771 30.4992 22.6511 30.4992 18.1517C30.4992 13.9571 28.7365 10.1759 25.9183 7.49915L26.5603 6.54161L30.4122 8.35331Z" fill="#808080"/>
<path d="M6.30478 33.6784C6.04907 34.168 5.14594 34.2061 4.28089 33.7546C3.41585 33.3084 2.92076 32.5468 3.17646 32.0571L5.29285 27.9712C5.54311 27.4816 6.45168 27.4489 7.31673 27.8951C8.18178 28.3412 8.67687 29.1029 8.42116 29.5925L6.30478 33.6784Z" fill="#E8E8E8"/>
<path d="M23.2906 33.6784C23.5408 34.168 24.4494 34.2061 25.3145 33.7546C26.1795 33.3084 26.6746 32.5468 26.4189 32.0571L24.3025 27.9712C24.0468 27.4816 23.1437 27.4489 22.2786 27.8951C21.4136 28.3412 20.9185 29.1029 21.1796 29.5925L23.2906 33.6784Z" fill="#E8E8E8"/>
<path d="M8.1112 5.59462C8.31794 5.89929 7.85006 6.57392 7.06118 7.1071C6.27774 7.63483 5.47254 7.81436 5.26036 7.50969L3.54657 4.95263C3.33983 4.64252 3.81317 3.96789 4.59661 3.44016C5.38549 2.91243 6.18525 2.73289 6.39743 3.03756L8.1112 5.59462Z" fill="#E8E8E8"/>
<path d="M22.0893 5.72013C21.8771 6.0248 22.3504 6.69943 23.1393 7.2326C23.9282 7.76033 24.7334 7.93988 24.9401 7.6352L26.6539 5.07814C26.8607 4.77347 26.3873 4.0934 25.6039 3.56566C24.815 3.03249 24.0152 2.8584 23.8031 3.16307L22.0893 5.72013Z" fill="#E8E8E8"/>
<path d="M29.9662 17.6179C29.9662 25.7298 23.394 32.302 15.2876 32.302C7.1757 32.302 0.603516 25.7298 0.603516 17.6179C0.603516 9.50605 7.1757 2.93387 15.2876 2.93387C23.394 2.93387 29.9662 9.50605 29.9662 17.6179Z" fill="#2BB8ED"/>
<path d="M23.8558 10.4912C21.7993 8.05385 18.7254 6.49785 15.2815 6.49785C9.09017 6.49785 4.07397 11.514 4.07397 17.7C4.07397 22.1286 6.64735 25.9587 10.3796 27.7759C11.8594 28.4994 13.5242 28.9021 15.2815 28.9021C21.4674 28.9021 26.4836 23.8859 26.4836 17.7C26.4836 14.9579 25.4989 12.4444 23.8558 10.4912Z" fill="white"/>
<path d="M6.73036 20.3553C6.73036 14.1639 11.7466 9.15316 17.9379 9.15316C20.3589 9.15316 22.595 9.92028 24.423 11.226C24.2435 10.9757 24.0585 10.7309 23.8627 10.497C21.8061 8.05961 18.7322 6.50362 15.2884 6.50362C9.097 6.50362 4.08081 11.5198 4.08081 17.7057C4.08081 21.4706 5.94693 24.8002 8.79778 26.8295C7.49749 25.0015 6.73036 22.7709 6.73036 20.3553Z" fill="#CBCBCB"/>
<path d="M15.5107 10.9103C15.5107 10.9701 15.4073 11.0245 15.2876 11.0245C15.1625 11.0245 15.0591 10.9756 15.0591 10.9103V7.77108C15.0591 7.71123 15.1625 7.66226 15.2876 7.66226C15.4127 7.66226 15.5107 7.71123 15.5107 7.77108V10.9103Z" fill="#396EC5"/>
<path d="M15.5107 27.8463C15.5107 27.9061 15.4073 27.9605 15.2876 27.9605C15.1625 27.9605 15.0591 27.9115 15.0591 27.8463V24.7071C15.0591 24.6418 15.1625 24.5928 15.2876 24.5928C15.4127 24.5928 15.5107 24.6418 15.5107 24.7071V27.8463Z" fill="#396EC5"/>
<path d="M22.2831 18.0375C22.2233 18.0375 22.1743 17.9342 22.1743 17.809C22.1743 17.6839 22.2233 17.586 22.2831 17.586H25.4223C25.4822 17.586 25.5311 17.6839 25.5311 17.809C25.5311 17.9342 25.4822 18.0375 25.4223 18.0375H22.2831Z" fill="#396EC5"/>
<path d="M5.18987 18.0375C5.13003 18.0375 5.08105 17.9342 5.08105 17.809C5.08105 17.6839 5.13003 17.586 5.18987 17.586H8.32907C8.39435 17.586 8.44331 17.6839 8.44331 17.809C8.44331 17.9342 8.39435 18.0375 8.32907 18.0375H5.18987Z" fill="#396EC5"/>
<path d="M15.1795 17.5036L15.5114 18.015L8.98814 22.1716L8.29175 22.2696L8.66172 21.6548L15.1795 17.5036Z" fill="#FFE54F"/>
<path d="M15.3055 16.6649C15.8985 16.6268 16.4153 17.0783 16.4534 17.6768C16.4915 18.2753 16.0399 18.7867 15.4415 18.8248C14.843 18.8628 14.3316 18.4058 14.2935 17.8128C14.2554 17.2144 14.707 16.7029 15.3055 16.6649Z" fill="#396EC5"/>
<path d="M15.2179 16.7527L14.3583 17.6123L11.4204 14.6417L11.3606 13.657L12.2855 13.7821L15.2179 16.7527Z" fill="#396EC5"/>
<path d="M15.5493 18.3245L15.7887 17.4213L23.2749 19.418L23.7809 20.0165L23.0355 20.3211L15.5493 18.3245Z" fill="#396EC5"/>
<path d="M11.953 2.43966C11.9095 2.29276 11.8877 2.14586 11.8224 2.00985C10.8159 -0.128288 7.41558 -0.639701 4.22742 0.861892C1.03925 2.36893 -0.723486 5.31771 0.283017 7.45585C0.348304 7.59186 0.446246 7.70067 0.533294 7.8258L11.953 2.43966Z" fill="#FFE54F"/>
<path d="M18.4661 2.43905C18.5096 2.29215 18.5313 2.14525 18.5966 2.00924C19.6086 -0.128899 23.0035 -0.640311 26.1917 0.861282C29.3798 2.36832 31.148 5.3171 30.1361 7.45524C30.0708 7.59125 29.9728 7.70006 29.8858 7.82519L18.4661 2.43905Z" fill="#FFE54F"/>
</svg>
