<svg width="44" height="32" viewBox="0 0 44 32" fill="none" xmlns="http://www.w3.org/2000/svg">
<path d="M9.77467 25.7788L6.17253 30.1855C6.0274 30.3556 5.79861 30.4308 5.57825 30.3722C5.3579 30.3135 5.20428 30.1201 5.16866 29.9028L4.41484 23.936L2.38965 26.4255C2.19065 26.6684 1.83439 26.7042 1.5915 26.5052C1.3486 26.3062 1.31277 25.9499 1.51177 25.707L4.37177 22.1991C4.50825 22.024 4.74568 21.9538 4.96604 22.0125C5.1864 22.0711 5.34504 22.2559 5.37564 22.4819L6.13447 28.44L8.9018 25.0517C9.10081 24.8088 9.45707 24.773 9.69996 24.972C9.93783 25.1796 9.97367 25.5359 9.77467 25.7788Z" fill="#C5C5DE"/>
<path d="M17.9514 24.8051C17.7212 24.9027 17.4534 24.8858 17.2236 24.7638C16.9246 24.6016 16.7484 24.2679 16.7831 23.9295L17.626 14.8772L13.8071 17.8857C13.4304 18.1756 12.9012 18.1109 12.6063 17.7429C12.3113 17.3748 12.3809 16.837 12.749 16.542L18.1373 12.3059C18.4105 12.0946 18.7754 12.0638 19.0744 12.226C19.3733 12.3882 19.5495 12.7219 19.5148 13.0603L18.6719 22.1126L23.8718 18.0215C24.2399 17.7265 24.7777 17.7962 25.0727 18.1642C25.3677 18.5323 25.298 19.0701 24.9299 19.3651L18.1556 24.6925C18.0945 24.7379 18.0247 24.7784 17.9514 24.8051Z" fill="#C5C5DE"/>
<path d="M30.323 17.9658C30.0164 17.9958 29.7096 17.8869 29.4854 17.6756C29.1898 17.3882 29.1012 16.9435 29.2467 16.5538L33.2212 6.37214L27.8218 8.57763C27.293 8.79082 26.6858 8.54202 26.4726 8.01329C26.2594 7.48457 26.5082 6.87738 27.037 6.66419L34.6757 3.55104C35.0577 3.39135 35.4998 3.48637 35.7954 3.77383C36.091 4.06129 36.1795 4.50599 36.039 4.887L32.0646 15.0687L39.4322 12.0639C39.9609 11.8507 40.5681 12.0995 40.7813 12.6283C40.9945 13.157 40.7457 13.7642 40.217 13.9774L30.6137 17.9034C30.518 17.9288 30.4223 17.9541 30.323 17.9658Z" fill="#C5C5DE"/>
</svg>
