<svg width="375" height="135" viewBox="0 0 375 135" fill="none" xmlns="http://www.w3.org/2000/svg">
<path d="M369.849 39.1856C368.337 26.768 348.708 29.1704 341.91 33.5759C340.399 24.765 334.36 19.1553 325.68 21.5577C320.427 23.0464 315.506 29.0192 316.333 34.992C309.82 33.5638 295.095 35.7181 298.505 44.3899C301.146 51.6033 316.624 45.1887 321.152 42.7863C325.303 52.4021 336.629 51.9966 342.669 43.9905C348.326 46.7984 372.113 52.8075 369.849 39.1856Z" fill="#504098"/>
<path d="M344.874 124.05C343.614 113.774 327.257 115.762 321.592 119.408C320.332 112.116 315.3 107.473 308.066 109.462C303.689 110.694 299.588 115.637 300.277 120.58C294.85 119.398 282.579 121.181 285.421 128.357C287.622 134.327 300.52 129.018 304.293 127.03C307.753 134.988 317.191 134.652 322.224 128.027C326.938 130.35 346.761 135.323 344.874 124.05Z" fill="#504098"/>
<path d="M135.895 118.542C134.845 109.978 121.214 111.635 116.493 114.673C115.444 108.597 111.25 104.728 105.222 106.385C101.575 107.411 98.1568 111.53 98.7311 115.65C94.2084 114.665 83.9828 116.15 86.351 122.131C88.1847 127.106 98.933 122.682 102.078 121.025C104.961 127.657 112.826 127.377 117.02 121.856C120.949 123.792 137.467 127.936 135.895 118.542Z" fill="#504098"/>
<path d="M38.3105 91.4766C40.7305 72.0766 9.2105 74.5066 17.3005 93.0966C11.6405 92.2866 -11.7895 90.6766 -10.9795 100.367C-9.3595 111.677 10.8405 103.597 15.6905 99.5566C12.4605 115.717 33.4705 107.637 38.3205 98.7466C43.9705 103.597 64.1805 113.287 66.6005 99.5566C69.0205 84.2066 45.5805 87.4366 38.3105 91.4766Z" fill="#504098"/>
<path d="M68.5512 36.4922C70.8848 21.3884 40.4894 23.2802 48.2908 37.7535C42.8327 37.1228 20.2387 35.8694 21.0198 43.4135C22.582 52.2189 42.0613 45.9283 46.7382 42.7829C43.6235 55.3643 63.8838 49.0736 68.5608 42.1523C74.0092 45.9282 93.4982 53.4724 95.8318 42.7829C98.1655 30.8322 75.5618 33.3469 68.5512 36.4922Z" fill="#504098"/>
<path d="M53.6556 36.2921C50.1461 26.5913 54.854 15.9273 64.202 11.8933C60.29 10.6632 55.9575 10.6587 51.8059 12.1601C41.7298 15.8052 36.5199 26.9215 40.1605 36.9976C43.8011 47.0737 54.9218 52.2881 64.9979 48.643C65.3733 48.5073 65.7396 48.358 66.0969 48.2043C60.5207 46.4541 55.7992 42.2165 53.6556 36.2921Z" fill="#F7D011"/>
<path d="M345.938 12.0101L344.285 9.89729C344.227 9.82315 344.211 9.72784 344.237 9.63782L345.025 7.06434C345.093 6.83665 344.878 6.63014 344.657 6.70956L342.153 7.64152C342.064 7.67329 341.97 7.6627 341.891 7.60446L339.707 6.05296C339.513 5.91528 339.25 6.06355 339.261 6.29654L339.366 8.98651C339.371 9.08182 339.329 9.17184 339.25 9.22479L337.113 10.8398C336.924 10.9828 336.982 11.2793 337.208 11.3429L339.775 12.0736C339.864 12.1001 339.938 12.1689 339.964 12.259L340.825 14.806C340.899 15.0284 341.198 15.0707 341.329 14.8748L342.809 12.6349C342.862 12.5555 342.946 12.5078 343.04 12.5078L345.707 12.4708C345.954 12.4655 346.085 12.1954 345.938 12.0101Z" fill="white"/>
<path d="M49.9657 121.339L49.047 120.165C49.015 120.124 49.0062 120.071 49.0208 120.021L49.4583 118.591C49.4962 118.465 49.3766 118.35 49.2541 118.394L47.8629 118.912C47.8133 118.93 47.7608 118.924 47.7171 118.891L46.5038 118.029C46.3959 117.953 46.2501 118.035 46.2559 118.165L46.3142 119.659C46.3171 119.712 46.2938 119.762 46.2501 119.792L45.063 120.689C44.958 120.768 44.9901 120.933 45.1155 120.968L46.5417 121.374C46.5913 121.389 46.6321 121.427 46.6467 121.477L47.125 122.892C47.1659 123.016 47.3321 123.039 47.405 122.93L48.2275 121.686C48.2567 121.642 48.3033 121.615 48.3558 121.615L49.8374 121.595C49.9745 121.592 50.0474 121.442 49.9657 121.339Z" fill="white"/>
<path d="M22.952 8.67451L21.6659 7.03122C21.6209 6.97356 21.6087 6.89943 21.6291 6.82942L22.2416 4.82782C22.2947 4.65073 22.1272 4.49011 21.9558 4.55188L20.0081 5.27674C19.9387 5.30145 19.8652 5.29321 19.8039 5.24791L18.1053 4.04119C17.9543 3.93411 17.7501 4.04943 17.7583 4.23064L17.8399 6.32284C17.844 6.39697 17.8113 6.46699 17.7501 6.50817L16.0882 7.76432C15.9413 7.87552 15.9862 8.10615 16.1617 8.15557L18.1584 8.72393C18.2278 8.74452 18.285 8.79806 18.3054 8.86808L18.975 10.8491C19.0322 11.0221 19.2649 11.055 19.367 10.9026L20.5185 9.16049C20.5593 9.09871 20.6246 9.06165 20.6981 9.06165L22.7724 9.03282C22.9643 9.0287 23.0664 8.81865 22.952 8.67451Z" fill="white"/>
<path d="M367.938 75.0101L366.285 72.8973C366.227 72.8232 366.211 72.7278 366.237 72.6378L367.025 70.0643C367.093 69.8366 366.878 69.6301 366.657 69.7096L364.153 70.6415C364.064 70.6733 363.97 70.6627 363.891 70.6045L361.707 69.053C361.513 68.9153 361.25 69.0635 361.261 69.2965L361.366 71.9865C361.371 72.0818 361.329 72.1718 361.25 72.2248L359.113 73.8398C358.924 73.9828 358.982 74.2793 359.208 74.3429L361.775 75.0736C361.864 75.1001 361.938 75.1689 361.964 75.259L362.825 77.806C362.899 78.0284 363.198 78.0707 363.329 77.8748L364.809 75.6349C364.862 75.5555 364.946 75.5078 365.04 75.5078L367.707 75.4708C367.954 75.4655 368.085 75.1954 367.938 75.0101Z" fill="white"/>
<path d="M302.938 65.0101L301.285 62.8973C301.227 62.8232 301.211 62.7278 301.237 62.6378L302.025 60.0643C302.093 59.8366 301.878 59.6301 301.657 59.7096L299.153 60.6415C299.064 60.6733 298.97 60.6627 298.891 60.6045L296.707 59.053C296.513 58.9153 296.25 59.0635 296.261 59.2965L296.366 61.9865C296.371 62.0818 296.329 62.1718 296.25 62.2248L294.113 63.8398C293.924 63.9828 293.982 64.2793 294.208 64.3429L296.775 65.0736C296.864 65.1001 296.938 65.1689 296.964 65.259L297.825 67.806C297.899 68.0284 298.198 68.0707 298.329 67.8748L299.809 65.6349C299.862 65.5555 299.946 65.5078 300.04 65.5078L302.707 65.4708C302.954 65.4655 303.085 65.1954 302.938 65.0101Z" fill="white"/>
<path d="M102.952 91.6745L101.666 90.0312C101.621 89.9736 101.609 89.8994 101.629 89.8294L102.242 87.8278C102.295 87.6507 102.127 87.4901 101.956 87.5519L100.008 88.2767C99.9387 88.3015 99.8652 88.2932 99.8039 88.2479L98.1053 87.0412C97.9543 86.9341 97.7501 87.0494 97.7583 87.2306L97.8399 89.3228C97.844 89.397 97.8113 89.467 97.7501 89.5082L96.0882 90.7643C95.9413 90.8755 95.9862 91.1062 96.1617 91.1556L98.1584 91.7239C98.2278 91.7445 98.285 91.7981 98.3054 91.8681L98.975 93.8491C99.0322 94.0221 99.2649 94.055 99.367 93.9026L100.518 92.1605C100.559 92.0987 100.625 92.0616 100.698 92.0616L102.772 92.0328C102.964 92.0287 103.066 91.8187 102.952 91.6745Z" fill="white" fill-opacity="0.8"/>
<path d="M321.844 83.75C322.968 83.75 322.973 82 321.844 82C320.719 82 320.719 83.75 321.844 83.75Z" fill="#7372C2"/>
<path d="M73.8075 81.75C76.2175 81.75 76.2275 78 73.8075 78C71.3975 78 71.3975 81.75 73.8075 81.75Z" fill="#7372C2"/>
<path d="M152.808 3.75C155.218 3.75 155.228 0 152.808 0C150.398 0 150.398 3.75 152.808 3.75Z" fill="#7372C2"/>
<path d="M360.808 20.75C363.218 20.75 363.227 17 360.808 17C358.398 17 358.398 20.75 360.808 20.75Z" fill="#7372C2"/>
<path d="M300.808 18.75C303.218 18.75 303.227 15 300.808 15C298.398 15 298.398 18.75 300.808 18.75Z" fill="#7372C2"/>
<path d="M29.8075 134.75C32.2175 134.75 32.2275 131 29.8075 131C27.3975 131 27.3975 134.75 29.8075 134.75Z" fill="#7372C2"/>
<path d="M85.8075 20.75C88.2175 20.75 88.2275 17 85.8075 17C83.3975 17 83.3975 20.75 85.8075 20.75Z" fill="#7372C2"/>
<path d="M277.868 105.954L398.837 75.4246C398.954 75.3937 399.024 75.2778 398.993 75.1619C398.961 75.046 398.845 74.9764 398.736 75.0073L277.16 103.064C276.358 103.249 275.852 104.045 276.039 104.849C276.226 105.645 277.027 106.147 277.837 105.961C277.845 105.954 277.86 105.954 277.868 105.954Z" fill="url(#paint0_linear_402_62)"/>
</svg>
