<svg width="151" height="122" viewBox="0 0 151 122" fill="none" xmlns="http://www.w3.org/2000/svg">
<path d="M147.993 42.083C150.931 36.0211 152.288 27.9097 149.4 21.5884C146.883 16.0811 141.307 12.5369 135.524 11.0601C126.109 8.66129 116.291 11.5824 107.096 7.82926C103.73 6.45695 100.747 4.26341 97.4586 2.7038C90.8758 -0.422619 83.1087 -0.858443 76.2289 1.50438C66.535 4.83611 60.3624 13.0196 51.7856 18.0586C43.2301 23.0868 33.1579 24.8877 23.4251 25.5865C16.411 26.0907 8.45652 26.5338 3.94897 32.0266C-6.36715 44.6007 6.16209 58.7669 11.6666 69.7778C16.9555 80.3529 13.3706 90.4165 13.9045 101.46C14.1201 105.923 15.3221 110.461 18.0656 113.947C26.6458 124.854 44.8281 122.959 55.9962 118.313C61.2214 116.137 65.7502 113.112 69.7734 109.125C74.182 104.756 79.0855 100.376 85.3678 99.3743C100.531 96.9575 107.199 115.392 121.637 116.022C127.11 116.26 132.621 113.764 136.167 109.51C140.622 104.168 141.604 96.8314 139.321 90.3336C137.465 85.0533 133.933 80.4789 132.519 75.0221C131.087 69.5076 132.671 64.0004 135.584 59.2711C138.433 54.6463 142.29 50.7599 145.461 46.3584C146.405 45.033 147.257 43.5994 147.993 42.083Z" fill="#6456AB" fill-opacity="0.4"/>
<path d="M47.6168 81.0743C45.3086 80.8306 42.3624 80.6935 39.3224 80.6935C36.9954 80.6935 33.0171 80.7849 28.8886 81.2571C26.8995 81.4856 25.5859 80.6935 25.7736 79.3684C25.8862 78.5915 25.98 77.7842 26.0363 76.9465C26.3553 72.712 25.9987 68.9041 25.6046 64.4869C25.2669 60.8008 24.8728 56.6272 24.8728 51.6007C24.8728 46.559 25.2669 42.3855 25.6046 38.7146C26.0175 34.3126 26.374 30.5047 26.0363 26.255C25.9612 25.4172 25.8862 24.6099 25.7736 23.8331C25.5859 22.4927 26.9182 21.7159 28.8886 21.9291C32.9983 22.4013 36.9954 22.4775 39.3224 22.4775C42.3624 22.4775 45.3086 22.3404 47.6168 22.0967C54.7102 21.3503 68.4842 21 75.5589 21C82.6335 21 96.4075 21.3503 103.501 22.0967C105.809 22.3404 108.755 22.4775 111.795 22.4775C114.122 22.4775 118.101 22.4013 122.229 21.9291C124.218 21.7007 125.551 22.4927 125.363 23.8331C125.25 24.6099 125.157 25.4172 125.1 26.255C124.781 30.4894 125.138 34.2974 125.532 38.7146C125.87 42.4007 126.264 46.5742 126.264 51.6007C126.264 56.6425 125.87 60.8008 125.532 64.4869C125.119 68.9041 124.762 72.6968 125.1 76.9465C125.175 77.7842 125.25 78.5915 125.363 79.3684C125.551 80.7088 124.218 81.4856 122.229 81.2723C118.119 80.8002 114.122 80.7088 111.795 80.7088C108.755 80.7088 105.809 80.8458 103.501 81.0895C96.4075 81.8359 82.6335 82.1862 75.5589 82.1862C68.4655 82.171 54.6914 81.8207 47.6168 81.0743Z" fill="#83B6FC"/>
<path d="M143.015 99.6669H10.7659V121.519H143.015V99.6669Z" fill="#59B5E6"/>
<path opacity="0.3" d="M11.6462 97.6901V121.519H30.1037C30.1037 121.519 37.0775 108.59 43.2161 106.93C54.1152 103.992 140.369 108.018 140.369 108.018V97.6901H11.6462Z" fill="#2181B8"/>
<path d="M140.995 110.347L11.0171 104.582C9.90348 104.536 9 103.829 9 103.014V89.7944C9 88.9797 9.9035 88.3033 11.0381 88.3033H140.995C142.109 88.3033 143.012 88.9643 143.012 89.7944V108.948C143.012 109.763 142.109 110.393 140.995 110.347Z" fill="#83B6FC"/>
<path fill-rule="evenodd" clip-rule="evenodd" d="M112.693 88.2328C114.058 84.2808 114.798 80.0419 114.798 75.6315C114.798 54.1493 97.2324 36.7345 75.5642 36.7345C53.8959 36.7345 36.3303 54.1493 36.3303 75.6315C36.3303 80.0419 37.0707 84.2808 38.435 88.2328H112.693Z" fill="#F1C26A"/>
<path fill-rule="evenodd" clip-rule="evenodd" d="M38.2918 67.2052C38.2918 67.2052 39.8098 68.1165 41.4329 68.6976C42.2444 68.9881 43.151 68.5579 43.4436 67.7537C43.7363 66.9495 43.3016 66.0507 42.4901 65.7602C41.0377 65.2568 38.1755 63.6944 38.1755 63.6944C37.3949 63.2683 37.5369 66.7751 38.2918 67.2052Z" fill="#084FFF"/>
<path fill-rule="evenodd" clip-rule="evenodd" d="M108.687 68.4556C108.687 68.4556 111.706 66.7255 112.909 66.1702C113.695 65.8111 113.91 62.7184 113.124 63.0775C111.921 63.6329 107.389 65.6274 107.389 65.6274C106.602 65.9864 106.249 66.9048 106.612 67.6843C106.974 68.4638 107.901 68.8146 108.687 68.4556Z" fill="#084FFF"/>
<path fill-rule="evenodd" clip-rule="evenodd" d="M41.983 69.6248C41.3216 63.8725 44.8447 56.2589 54.2497 54.3863C63.6546 52.5137 93.4039 51.5173 100.732 55.5926C108.082 59.6384 109.836 70.2125 106.813 76.6753C103.773 83.1933 90.6029 84.6128 84.0246 80.4455C78.3247 76.8197 75.863 77.9131 68.9201 79.8426C62.003 81.768 52.1275 82.3552 47.9136 79.9335C44.1307 77.7315 42.4221 73.5035 41.983 69.6248Z" fill="#084FFF"/>
<path fill-rule="evenodd" clip-rule="evenodd" d="M97.3115 79.4879C96.9066 79.5969 96.5224 79.6801 96.1104 79.745C95.9408 79.7717 95.8202 79.9494 95.8694 80.1004C95.8978 80.2774 96.0646 80.3872 96.2307 80.3384C96.6391 80.2514 97.0718 80.1606 97.4802 80.0737C97.6463 80.0248 97.7461 79.873 97.7177 79.6961C97.6443 79.5489 97.4775 79.439 97.3115 79.4879ZM94.2614 79.9906C93.8459 80.0334 93.4268 80.054 93.0319 80.0708C92.8587 80.0754 92.7346 80.231 92.7353 80.3897C92.7395 80.5704 92.882 80.6841 93.0552 80.6795C93.4744 80.6589 93.8935 80.6383 94.3332 80.5917C94.5029 80.565 94.6305 80.4315 94.602 80.2546C94.6014 80.0959 94.4346 79.9861 94.2614 79.9906ZM100.231 78.4839C99.8612 78.6556 99.4877 78.8051 99.0864 78.9363C98.9203 78.9851 98.8518 79.1773 98.901 79.3284C98.9536 79.5015 99.1375 79.5633 99.3036 79.5145C99.7014 79.3611 100.099 79.2078 100.493 79.0323C100.656 78.9614 100.724 78.7692 100.651 78.622C100.581 78.4969 100.369 78.4168 100.231 78.4839ZM91.1752 80.1136C90.7525 80.1121 90.3505 80.0846 89.945 80.0351C89.7682 80.0175 89.6163 80.1548 89.5928 80.3173C89.5692 80.4798 89.6946 80.6415 89.8714 80.659C90.3012 80.7048 90.7274 80.7284 91.15 80.7299C91.3232 80.7253 91.4786 80.6101 91.4744 80.4294C91.4944 80.2448 91.3484 80.109 91.1752 80.1136ZM88.1147 79.7788C87.7056 79.7072 87.2929 79.6133 86.9045 79.5157C86.7484 79.4723 86.5652 79.5691 86.5174 79.7354C86.4696 79.9017 86.5708 80.0672 86.7511 80.1069C87.1637 80.2007 87.5764 80.2945 87.9855 80.3662C88.1658 80.4058 88.3212 80.2906 88.3448 80.1282C88.3962 79.984 88.295 79.8185 88.1147 79.7788ZM102.813 76.9209C102.505 77.1734 102.17 77.4076 101.832 77.6196C101.697 77.7089 101.653 77.8973 101.726 78.0445C101.824 78.1879 102.004 78.2276 102.163 78.1345C102.522 77.8965 102.878 77.6364 103.209 77.3801C103.341 77.2687 103.361 77.0841 103.239 76.9445C103.145 76.8232 102.944 76.8095 102.813 76.9209ZM85.1527 78.975C84.7572 78.8331 84.3823 78.6653 84.0281 78.4716C83.8649 78.3839 83.6781 78.4586 83.6025 78.6066C83.527 78.7546 83.5832 78.9499 83.7429 79.0155C84.1213 79.2054 84.4961 79.3732 84.9195 79.5333C85.0791 79.5989 85.2659 79.5242 85.3137 79.3579C85.3928 79.232 85.3123 79.0406 85.1527 78.975ZM104.677 74.6088C104.639 74.6828 104.622 74.7309 104.584 74.8049C104.433 75.1008 104.251 75.3564 104.072 75.634C103.968 75.7637 104 75.9628 104.143 76.0764C104.282 76.168 104.479 76.1596 104.579 76.0078C104.806 75.7225 104.982 75.4227 105.154 75.1008C105.192 75.0268 105.229 74.9528 105.246 74.9048C105.322 74.7568 105.266 74.5615 105.106 74.4959C104.939 74.3861 104.753 74.4608 104.677 74.6088ZM82.3962 77.5945C81.9899 77.3862 81.6151 77.2184 81.2402 77.0506C81.0806 76.985 80.8938 77.0598 80.8182 77.2078C80.7426 77.3558 80.8231 77.5472 80.9828 77.6128C81.3298 77.7623 81.7047 77.9301 82.0867 78.1421C82.2498 78.2299 82.4366 78.1551 82.5122 78.0071C82.5878 77.8591 82.5558 77.6601 82.3962 77.5945ZM105.659 71.7552C105.574 72.1541 105.465 72.5569 105.353 72.9375C105.305 73.1038 105.406 73.2693 105.566 73.3349C105.722 73.3784 105.908 73.3037 105.956 73.1374C106.09 72.7308 106.199 72.3281 106.28 71.907C106.328 71.7407 106.203 71.579 106.046 71.5355C105.838 71.4776 105.683 71.5927 105.659 71.7552ZM63.9432 78.8888C63.5312 78.9537 63.1157 78.9964 62.7037 79.0613C62.5341 79.088 62.41 79.2436 62.4349 79.3985C62.4634 79.5754 62.6059 79.6891 62.7755 79.6624C63.1911 79.6196 63.6031 79.5548 64.0151 79.4899C64.1847 79.4632 64.3088 79.3076 64.2803 79.1306C64.2554 78.9758 64.1129 78.8621 63.9432 78.8888ZM67.0068 78.3159C66.5984 78.4029 66.19 78.4898 65.778 78.5547C65.6083 78.5814 65.4878 78.7591 65.537 78.9102C65.5654 79.0871 65.7322 79.1969 65.8982 79.1481C66.3067 79.0611 66.7187 78.9963 67.1271 78.9093C67.2967 78.8826 67.393 78.7087 67.3646 78.5317C67.3432 78.399 67.1765 78.2892 67.0068 78.3159ZM79.4015 76.4329C78.961 76.3207 78.5519 76.2491 78.1257 76.2254C77.9489 76.2079 77.7935 76.3231 77.7735 76.5077C77.75 76.6702 77.8754 76.8319 78.0521 76.8494C78.4577 76.899 78.839 76.9523 79.2516 77.0461C79.4319 77.0858 79.5909 76.9927 79.6387 76.8264C79.683 76.638 79.5818 76.4725 79.4015 76.4329ZM60.8441 79.2406C60.4285 79.2833 60.0094 79.304 59.5903 79.3246C59.4171 79.3292 59.293 79.4848 59.2937 79.6434C59.2979 79.8242 59.4405 79.9379 59.6137 79.9333C60.0328 79.9127 60.4483 79.8699 60.8674 79.8493C61.0406 79.8447 61.1647 79.6891 61.1605 79.5083C61.1598 79.3497 61.0173 79.236 60.8441 79.2406ZM70.0177 77.5698C69.7305 77.6377 69.4225 77.7315 69.111 77.8032C69.0141 77.8185 68.8965 77.8597 68.7995 77.8749C68.6334 77.9237 68.5372 78.0977 68.5863 78.2487C68.639 78.4218 68.8022 78.5096 68.9683 78.4607C69.0652 78.4455 69.1828 78.4043 69.2798 78.389C69.5913 78.3173 69.8992 78.2235 70.1865 78.1556C70.3526 78.1068 70.4488 77.9328 70.3997 77.7818C70.3748 77.627 70.1874 77.5431 70.0177 77.5698ZM57.7407 79.4116C57.318 79.4101 56.8989 79.4307 56.4969 79.4033C56.3237 79.4079 56.1719 79.5452 56.1725 79.7038C56.1768 79.8846 56.2986 80.0242 56.4718 80.0196C56.8945 80.0211 57.3171 80.0226 57.7398 80.0241C57.913 80.0195 58.0406 79.886 58.0364 79.7053C58.06 79.5428 57.9139 79.407 57.7407 79.4116ZM73.07 76.7718C72.6858 76.8549 72.2809 76.964 71.8518 77.0769C71.6857 77.1258 71.5894 77.2997 71.6386 77.4507C71.6913 77.6239 71.8544 77.7116 72.0205 77.6628C72.4496 77.5498 72.8303 77.4446 73.2387 77.3576C73.4048 77.3088 73.5046 77.157 73.4762 76.98C73.4028 76.8328 73.2396 76.7451 73.07 76.7718ZM76.1856 76.2133C75.77 76.256 75.3545 76.2988 74.9218 76.3896C74.7522 76.4163 74.6281 76.5719 74.6566 76.7488C74.685 76.9258 74.8518 77.0356 75.0214 77.0089C75.4334 76.9441 75.8454 76.8792 76.2367 76.8403C76.4099 76.8357 76.534 76.6801 76.5298 76.4993C76.5255 76.3186 76.3588 76.2087 76.1856 76.2133ZM54.6224 79.3354C54.1962 79.3118 53.7906 79.2623 53.3851 79.2127C53.2083 79.1952 53.0529 79.3103 53.0293 79.4728C53.0058 79.6353 53.1312 79.797 53.3079 79.8145C53.7135 79.8641 54.1433 79.9098 54.5695 79.9335C54.7462 79.951 54.8981 79.8137 54.8974 79.6551C54.921 79.4926 54.7991 79.353 54.6224 79.3354ZM51.5926 78.8825C51.1799 78.7887 50.7879 78.6689 50.4166 78.5232C50.257 78.4576 50.0738 78.5545 50.0224 78.6987C49.9746 78.865 50.0516 79.0343 50.2112 79.0999C50.5825 79.2456 50.9987 79.3615 51.4392 79.4736C51.6195 79.5133 51.7785 79.4202 51.8263 79.2539C51.8498 79.0915 51.7487 78.9259 51.5926 78.8825ZM105.945 68.7392C105.936 69.1488 105.927 69.5584 105.891 69.9497C105.867 70.1122 106.017 70.2701 106.169 70.2914C106.346 70.309 106.498 70.1717 106.497 70.013C106.53 69.5996 106.535 69.1678 106.54 68.7361C106.536 68.5553 106.39 68.4196 106.217 68.4241C106.092 68.4211 105.94 68.5584 105.945 68.7392ZM48.8196 77.7087C48.4861 77.489 48.149 77.2472 47.8569 76.9757C47.7143 76.862 47.5169 76.8704 47.4135 77.0001C47.3101 77.1298 47.3179 77.3327 47.4362 77.4501C47.7526 77.7179 48.0932 77.9818 48.4581 78.2419C48.597 78.3334 48.7909 78.3029 48.8907 78.1511C48.9906 77.9993 48.9586 77.8002 48.8196 77.7087ZM105.63 65.7041C105.719 66.0984 105.783 66.4966 105.823 66.8986C105.851 67.0756 105.993 67.1892 106.163 67.1625C106.333 67.1358 106.457 66.9802 106.432 66.8253C106.389 66.4012 106.321 65.981 106.229 65.5645C106.201 65.3875 106.034 65.2777 105.868 65.3265C105.702 65.3753 105.602 65.5271 105.63 65.7041ZM46.6042 75.6759C46.3534 75.3525 46.1269 75.0253 45.921 74.6721C45.8234 74.5287 45.6395 74.467 45.4805 74.56C45.3215 74.6531 45.2773 74.8415 45.3749 74.9849C45.5844 75.3602 45.8387 75.7057 46.0931 76.0513C46.1907 76.1947 46.3917 76.2084 46.5264 76.1191C46.6818 76.0039 46.7225 75.7934 46.6042 75.6759ZM104.693 62.8124C104.851 63.1732 105.012 63.5561 105.148 63.9428C105.201 64.116 105.389 64.1999 105.551 64.1289C105.717 64.0801 105.813 63.9062 105.736 63.7369C105.596 63.328 105.435 62.9451 105.274 62.5622C105.201 62.415 105.013 62.3311 104.851 62.402C104.713 62.4692 104.644 62.6614 104.693 62.8124ZM45.1346 73.0269C44.9736 72.644 44.8611 72.2534 44.7521 71.885C44.6994 71.7118 44.5362 71.6241 44.3702 71.673C44.2041 71.7218 44.1078 71.8957 44.1569 72.0467C44.273 72.4594 44.4097 72.8461 44.5743 73.2511C44.6476 73.3984 44.8108 73.4861 44.9769 73.4372C45.1152 73.3701 45.1873 73.2 45.1346 73.0269ZM103.154 60.1969C103.405 60.5203 103.632 60.8475 103.838 61.2007C103.935 61.3441 104.116 61.3838 104.275 61.2907C104.409 61.2014 104.478 61.0092 104.38 60.8658C104.15 60.5165 103.916 60.145 103.641 59.8254C103.544 59.682 103.343 59.6683 103.208 59.7575C103.077 59.8689 103.06 60.0756 103.154 60.1969ZM43.6545 69.5403C43.6147 69.1383 43.6026 68.7546 43.6113 68.345C43.6071 68.1642 43.7589 68.0269 43.9357 68.0444C44.1089 68.0398 44.2585 68.1977 44.235 68.3602C44.2263 68.7698 44.2419 69.1756 44.2781 69.5555C44.3066 69.7324 44.3143 69.9353 44.3428 70.1123C44.3713 70.2893 44.2472 70.4449 44.0776 70.4716C43.9079 70.4983 43.7412 70.3885 43.7127 70.2115C43.6807 70.0124 43.6487 69.8133 43.6444 69.6326L43.6545 69.5403ZM100.998 58.0643C101.335 58.306 101.627 58.5776 101.919 58.8491C102.037 58.9666 102.235 58.9582 102.366 58.8468C102.493 58.7133 102.489 58.5325 102.347 58.4189C102.027 58.129 101.71 57.8613 101.37 57.5974C101.227 57.4838 101.033 57.5143 100.93 57.644C100.851 57.7698 100.859 57.9727 100.998 58.0643ZM44.4144 66.5402C44.4993 66.1413 44.5878 65.7644 44.7212 65.3579C44.769 65.1916 44.6921 65.0223 44.5082 64.9605C44.3521 64.917 44.1654 64.9918 44.1176 65.1581C43.9842 65.5646 43.8786 65.9895 43.7936 66.3884C43.7701 66.5509 43.8712 66.7164 44.0515 66.7561C44.2354 66.8179 44.3944 66.7248 44.4144 66.5402ZM98.3757 56.5945C98.6915 56.7036 98.9865 56.8385 99.2537 56.9552C99.3336 56.988 99.417 57.0429 99.4725 57.0796C99.6357 57.1673 99.8225 57.0925 99.8981 56.9445C99.9737 56.7966 99.9174 56.6013 99.782 56.5319C99.7022 56.4991 99.6188 56.4442 99.539 56.4114C99.2682 56.2726 98.9489 56.1414 98.6054 56.014C98.4458 55.9484 98.2626 56.0453 98.2112 56.1895C98.1149 56.3634 98.1919 56.5327 98.3757 56.5945ZM95.3931 55.8166C95.8264 55.8844 96.2148 55.9821 96.6033 56.0797C96.7836 56.1193 96.9426 56.0263 96.9868 55.8379C97.0346 55.6716 96.9334 55.506 96.7531 55.4664C96.3647 55.3688 95.952 55.275 95.5187 55.2071C95.3384 55.1674 95.183 55.2826 95.1594 55.4451C95.0909 55.6373 95.2163 55.799 95.3931 55.8166ZM45.3967 63.6866C45.565 63.3426 45.7782 62.9688 45.9985 62.6393C46.0984 62.4875 46.0421 62.2922 45.9032 62.2007C45.7642 62.1092 45.5739 62.1618 45.4705 62.2915C45.2295 62.6469 45.0163 63.0207 44.8551 63.409C44.7795 63.5569 44.8357 63.7522 44.9954 63.8178C45.1343 63.9093 45.3246 63.8567 45.3967 63.6866ZM92.3148 55.3712C92.7446 55.417 93.1501 55.4665 93.5557 55.5161C93.7324 55.5336 93.8879 55.4185 93.9114 55.256C93.935 55.0935 93.8096 54.9318 93.6571 54.9104C93.2515 54.8609 92.846 54.8113 92.4126 54.7434C92.2359 54.7259 92.0805 54.8411 92.0605 55.0257C92.0127 55.192 92.1381 55.3537 92.3148 55.3712ZM89.1887 55.0922C89.615 55.1158 90.0205 55.1654 90.4225 55.1928C90.5993 55.2103 90.7511 55.073 90.7504 54.9144C90.774 54.7519 90.6486 54.5902 90.4718 54.5727C90.0699 54.5452 89.6401 54.4995 89.2139 54.4758C89.0371 54.4583 88.8852 54.5956 88.8859 54.7543C88.8901 54.935 89.012 55.0746 89.1887 55.0922ZM86.0805 54.9237C86.5067 54.9473 86.9051 54.9527 87.3313 54.9763C87.5081 54.9938 87.66 54.8565 87.6557 54.6758C87.6515 54.495 87.5297 54.3554 87.3565 54.36C86.9302 54.3363 86.5282 54.3089 86.1056 54.3074C85.9288 54.2898 85.777 54.4272 85.7812 54.6079C85.7576 54.7704 85.9037 54.9062 86.0805 54.9237ZM47.0802 61.1762C47.3319 60.8871 47.6321 60.5904 47.9322 60.2937C48.0634 60.1823 48.0556 59.9794 47.9373 59.8619C47.819 59.7444 47.618 59.7307 47.4869 59.8421C47.1625 60.1427 46.8866 60.4356 46.5935 60.7766C46.4901 60.9062 46.4979 61.1091 46.6404 61.2228C46.7794 61.3143 46.9768 61.3059 47.0802 61.1762ZM82.9586 54.8254C83.3813 54.827 83.8075 54.8506 84.2059 54.8559C84.3791 54.8513 84.531 54.714 84.5303 54.5553C84.5261 54.3746 84.4043 54.235 84.2311 54.2396C83.8084 54.2381 83.4064 54.2106 82.9837 54.2091C82.8105 54.2137 82.6587 54.351 82.6593 54.5096C82.6358 54.6721 82.7819 54.8079 82.9586 54.8254ZM79.8232 54.7973C80.2459 54.7988 80.6685 54.8004 81.067 54.8057C81.2402 54.8011 81.392 54.6638 81.3914 54.5051C81.3871 54.3244 81.2411 54.1886 81.0679 54.1932C80.6452 54.1916 80.2225 54.1902 79.7999 54.1886C79.6267 54.1932 79.4748 54.3305 79.479 54.5113C79.5039 54.6662 79.65 54.8019 79.8232 54.7973ZM76.6985 54.8356C77.1211 54.8371 77.5402 54.8165 77.9629 54.818C78.1361 54.8134 78.2637 54.6799 78.2595 54.4991C78.2553 54.3184 78.1092 54.1826 77.936 54.1872C77.5133 54.1857 77.0942 54.2063 76.6716 54.2048C76.4984 54.2094 76.3707 54.3429 76.375 54.5236C76.3756 54.6823 76.5217 54.8181 76.6985 54.8356ZM49.3374 59.1426C49.6724 58.9084 50.0111 58.6963 50.3739 58.4804C50.5329 58.3874 50.5771 58.199 50.4795 58.0556C50.3819 57.9122 50.198 57.8504 50.0391 57.9434C49.6762 58.1593 49.3169 58.3973 48.9576 58.6353C48.8229 58.7246 48.7822 58.9351 48.8798 59.0785C48.9981 59.196 49.2026 59.2318 49.3374 59.1426ZM73.5531 54.8998C73.9722 54.8792 74.3948 54.8807 74.8139 54.8601C74.9871 54.8555 75.1148 54.722 75.1105 54.5412C75.1063 54.3604 74.9602 54.2247 74.787 54.2293C74.3679 54.2499 73.9453 54.2484 73.5262 54.269C73.353 54.2736 73.2253 54.407 73.2296 54.5878C73.2338 54.7686 73.3799 54.9044 73.5531 54.8998ZM70.4426 55.0265C70.8617 55.0059 71.2808 54.9853 71.6999 54.9647C71.8731 54.9601 71.9971 54.8045 71.9965 54.6459C71.9923 54.4651 71.8497 54.3514 71.6765 54.356C71.2574 54.3766 70.8383 54.3972 70.4192 54.4179C70.246 54.4224 70.1219 54.578 70.1226 54.7367C70.1026 54.9213 70.2729 55.0532 70.4426 55.0265ZM67.3149 55.2013C67.734 55.1807 68.1496 55.138 68.5687 55.1174C68.7419 55.1128 68.866 54.9572 68.8653 54.7985C68.8611 54.6178 68.7185 54.5041 68.5453 54.5087C68.1262 54.5293 67.7071 54.5499 67.2916 54.5926C67.1184 54.5972 66.9943 54.7528 66.9985 54.9336C66.975 55.0961 67.1453 55.228 67.3149 55.2013ZM52.0021 57.6344C52.3721 57.4628 52.7492 57.3354 53.1469 57.1821C53.313 57.1332 53.4057 56.9372 53.3323 56.79C53.259 56.6428 53.0922 56.533 52.9297 56.6039C52.5319 56.7572 52.1342 56.9106 51.7364 57.0639C51.5739 57.1348 51.5054 57.3271 51.5788 57.4743C51.6557 57.6436 51.8396 57.7054 52.0021 57.6344ZM64.198 55.4425C64.6135 55.3998 65.0326 55.3792 65.4482 55.3364C65.6214 55.3318 65.7454 55.1762 65.7412 54.9954C65.737 54.8147 65.5702 54.7048 65.397 54.7094C64.9779 54.73 64.5624 54.7728 64.1468 54.8155C63.9736 54.8201 63.8496 54.9757 63.8538 55.1565C63.858 55.3372 64.0248 55.4471 64.198 55.4425ZM61.0639 55.7317C61.4795 55.689 61.895 55.6463 62.3106 55.6035C62.4802 55.5768 62.6078 55.4433 62.6036 55.2625C62.5751 55.0856 62.4326 54.9719 62.2594 54.9765C61.8439 55.0192 61.4041 55.0658 61.0128 55.1047C60.8431 55.1314 60.7191 55.287 60.744 55.4419C60.7482 55.6226 60.8943 55.7584 61.0639 55.7317ZM54.9289 56.6748C55.192 56.6107 55.4792 56.5428 55.7458 56.5008C55.867 56.4817 56.0124 56.4588 56.13 56.4176C56.2997 56.3909 56.4202 56.2132 56.371 56.0622C56.3426 55.8852 56.1758 55.7754 56.0062 55.8021C55.8608 55.825 55.7396 55.8441 55.622 55.8852C55.3347 55.9531 55.0439 55.9989 54.7809 56.063C54.6148 56.1118 54.5149 56.2636 54.5434 56.4406C54.5961 56.6137 54.7593 56.7015 54.9289 56.6748ZM57.9719 56.1277C58.3596 56.0667 58.7752 56.024 59.2114 55.9553C59.381 55.9286 59.5051 55.773 59.4802 55.6181C59.4517 55.4412 59.3092 55.3275 59.1396 55.3542C58.6998 55.4008 58.2878 55.4656 57.9 55.5267C57.7304 55.5534 57.6063 55.709 57.6348 55.8859C57.6319 56.0225 57.7987 56.1323 57.9719 56.1277Z" fill="#FDCD00"/>
<path d="M52.0454 64.2114C51.3438 67.3659 53.4314 70.6758 56.4324 71.7651C59.7787 72.9844 63.4318 71.8629 65.9865 69.533C67.4388 68.2083 68.5335 66.5305 69.3224 64.75C69.7331 63.8264 68.3071 63.1503 67.8964 64.0739C66.732 66.6958 64.8131 69.1631 62.0309 70.1986C59.4438 71.1644 56.2809 70.7897 54.5471 68.4793C53.6822 67.3244 53.2825 65.9068 53.5997 64.4924C53.8197 63.5027 52.2639 63.2295 52.0454 64.2114Z" fill="#D6CBDE"/>
<path d="M52.1467 66.4336C51.0422 67.137 49.9345 67.8359 48.8299 68.5393C48.4814 68.7625 48.3801 69.2991 48.6323 69.6294C48.8975 69.9781 49.3609 70.0607 49.7319 69.8254C50.8364 69.1219 51.9441 68.423 53.0486 67.7196C53.3972 67.4964 53.4985 66.9598 53.2462 66.6295C52.9764 66.284 52.5177 66.1982 52.1467 66.4336Z" fill="#D6CBDE"/>
<path d="M55.2642 70.9075C55.1392 71.7533 55.011 72.5946 54.8821 73.4397C54.8212 73.8428 55.0883 74.2923 55.5199 74.3492C55.9358 74.4032 56.3706 74.1511 56.4372 73.7168C56.5661 72.8717 56.6903 72.0298 56.8192 71.1846C56.8802 70.7815 56.613 70.332 56.1814 70.2752C55.7656 70.2212 55.3268 70.4726 55.2642 70.9075Z" fill="#D6CBDE"/>
<path d="M62.8369 70.7728C63.1728 71.6927 63.6254 72.5731 64.1705 73.3897C64.4003 73.732 64.9362 73.8396 65.2701 73.5856C65.6171 73.3259 65.7097 72.8601 65.4677 72.4955C65.2411 72.1577 65.0363 71.8117 64.8461 71.4523C64.8762 71.5099 64.9095 71.5721 64.9396 71.6297C64.7053 71.178 64.498 70.7111 64.3211 70.2334C64.1804 69.8466 63.7014 69.6045 63.307 69.7674C62.9087 69.9295 62.6848 70.3598 62.8369 70.7728Z" fill="#D6CBDE"/>
<path d="M66.8285 67.4602C67.4892 68.0201 68.2388 68.4912 69.0346 68.842C69.4104 69.0054 69.9172 68.8707 70.0863 68.4748C70.2486 68.0938 70.1177 67.6083 69.7159 67.4322C69.3101 67.2554 68.9225 67.0456 68.5484 66.8062C68.6063 66.8446 68.6648 66.8792 68.7188 66.9169C68.4137 66.7219 68.1245 66.5056 67.8507 66.2719C67.5379 66.0072 66.999 66.0277 66.7363 66.3587C66.4737 66.6897 66.4904 67.1789 66.8285 67.4602Z" fill="#D6CBDE"/>
<path d="M81.3215 65.4182C82.0641 68.4417 84.435 70.942 87.4533 71.814C90.4883 72.6901 93.8715 71.8487 96.1241 69.6518C97.444 68.364 98.3415 66.6614 98.6624 64.8537C98.8197 63.9599 97.4281 63.6364 97.2725 64.5358C96.6526 68.0495 93.6356 70.6881 90.02 70.7392C86.5282 70.7904 83.51 68.3502 82.6908 65.0118C82.4706 64.1289 81.105 64.5372 81.3215 65.4182Z" fill="#D6CBDE"/>
<path d="M83.5617 69.1083C82.9497 69.8393 82.3414 70.5722 81.7295 71.3032C81.4935 71.588 81.4475 72.0405 81.7527 72.3029C82.0287 72.5401 82.5095 72.5846 82.7611 72.2798C83.3731 71.5488 83.9814 70.8159 84.5933 70.0849C84.8293 69.8001 84.8753 69.3476 84.5701 69.0852C84.2978 68.8499 83.8133 68.8035 83.5617 69.1083Z" fill="#D6CBDE"/>
<path d="M88.1987 71.7473C88.1285 72.7962 88.0583 73.8451 87.9898 74.8997C87.9651 75.2691 88.3711 75.609 88.7284 75.5827C89.146 75.5509 89.3919 75.2477 89.4174 74.8504C89.4876 73.8015 89.5578 72.7525 89.6263 71.698C89.651 71.3285 89.245 70.9887 88.8877 71.0149C88.4701 71.0468 88.2242 71.3499 88.1987 71.7473Z" fill="#D6CBDE"/>
<path d="M93.7915 70.511C94.1818 71.5368 94.6916 72.5179 95.3393 73.4121C95.5569 73.7127 95.9855 73.8709 96.3208 73.6487C96.6217 73.4458 96.7895 72.997 96.5594 72.6756C96.2608 72.2609 95.9873 71.8265 95.7424 71.3744C95.6235 71.1549 95.5106 70.9245 95.4051 70.698C95.3645 70.615 95.4105 70.7057 95.4207 70.7395C95.4085 70.7093 95.3943 70.6828 95.3858 70.6547C95.3594 70.598 95.3367 70.5434 95.316 70.4851C95.2618 70.3569 95.2114 70.2308 95.1629 70.1009C95.031 69.7564 94.6545 69.4937 94.2732 69.6253C93.9241 69.7504 93.6492 70.142 93.7915 70.511Z" fill="#D6CBDE"/>
<path d="M96.9005 67.7281C97.8934 68.3203 98.8863 68.9126 99.883 69.5068C100.204 69.6971 100.687 69.5537 100.849 69.2201C101.025 68.8609 100.902 68.4646 100.56 68.2625C99.5668 67.6703 98.5739 67.078 97.5772 66.4838C97.2567 66.2936 96.7737 66.4369 96.6113 66.7705C96.4387 67.1317 96.5577 67.526 96.9005 67.7281Z" fill="#D6CBDE"/>
</svg>
